<svg width="200" height="200" viewBox="0 0 200 200" fill="none" xmlns="http://www.w3.org/2000/svg">
<path fill-rule="evenodd" clip-rule="evenodd" d="M100 200C155.228 200 200 155.228 200 100C200 44.7715 155.228 0 100 0C44.7715 0 0 44.7715 0 100C0 155.228 44.7715 200 100 200ZM49.998 38H149.997C152.405 38 154.194 40.0301 153.983 42.429L144.845 144.986C144.634 147.388 142.564 149.874 140.242 150.52L104.191 160.523C101.869 161.162 98.0789 161.158 95.7603 160.515L59.754 150.497C57.4322 149.849 55.3622 147.341 55.1506 144.944L46.0169 42.429C45.8056 40.0301 47.6027 38 49.998 38ZM132.649 75.0198C132.652 75.0154 132.654 75.0103 132.655 75.0048L133.929 63.76C133.987 63.2478 133.825 62.7351 133.482 62.3505C133.139 61.9661 132.649 61.7461 132.134 61.7461H67.8527C67.3408 61.7461 66.8527 61.9637 66.5101 62.3447C66.1675 62.726 66.0024 63.2348 66.0559 63.7446L66.9445 72.2166C67.041 73.1375 67.8167 73.837 68.7416 73.837H99.4628C99.8205 73.837 100.128 74.0902 100.198 74.4417C100.267 74.7934 100.079 75.1449 99.7479 75.2816L70.5692 87.3305C69.4531 87.7912 68.7758 88.936 68.9083 90.1383L69.7764 98.0205C69.9279 99.3963 71.0887 100.438 72.4707 100.438H118.062L116.09 119.035L99.965 124.674L83.9139 119.086L82.9603 110.119C82.8137 108.739 81.6511 107.692 80.2649 107.692H73.8141C73.045 107.692 72.3123 108.019 71.7981 108.592C71.2841 109.164 71.037 109.929 71.1187 110.695L72.6729 125.283C72.8422 126.871 73.9114 128.217 75.4176 128.74L98.5994 136.783C99.4787 137.088 100.435 137.086 101.312 136.776L124.603 128.568C126.1 128.041 127.16 126.698 127.328 125.118L130.757 92.9048C130.881 91.7425 130.506 90.582 129.725 89.7126C128.945 88.8432 127.833 88.3467 126.665 88.3467H104.723C104.288 88.3467 103.915 88.0389 103.831 87.6122C103.747 87.1854 103.976 86.7587 104.378 86.5938L132.588 75.0153C132.595 75.0299 132.61 75.038 132.625 75.0354C132.635 75.0337 132.644 75.028 132.649 75.0198Z" fill="#FFC148"/>
</svg>
