<svg width="200" height="200" viewBox="0 0 200 200" fill="none" xmlns="http://www.w3.org/2000/svg">
<path fill-rule="evenodd" clip-rule="evenodd" d="M100 0C44.7715 0 0 44.7715 0 100C0 155.228 44.7715 200 100 200C155.229 200 200 155.228 200 100C200 44.7715 155.229 0 100 0ZM78.6367 89.5156H121.527C123.501 89.5156 125.102 91.1159 125.102 93.0898C125.102 95.0638 123.501 96.6641 121.527 96.6641H78.6367C76.6628 96.6641 75.0625 95.0638 75.0625 93.0898C75.0625 91.1159 76.6628 89.5156 78.6367 89.5156ZM121.527 103.812H78.6367C76.6628 103.812 75.0625 105.413 75.0625 107.387C75.0625 109.361 76.6628 110.961 78.6367 110.961H121.527C123.501 110.961 125.102 109.361 125.102 107.387C125.102 105.413 123.501 103.812 121.527 103.812ZM78.6367 118.109H121.527C123.501 118.109 125.102 119.71 125.102 121.684C125.102 123.658 123.501 125.258 121.527 125.258H78.6367C76.6628 125.258 75.0625 123.658 75.0625 121.684C75.0625 119.71 76.6628 118.109 78.6367 118.109ZM107.23 132.406H78.6367C76.6628 132.406 75.0625 134.007 75.0625 135.98C75.0625 137.954 76.6628 139.555 78.6367 139.555H107.23C109.204 139.555 110.805 137.954 110.805 135.98C110.805 134.007 109.204 132.406 107.23 132.406ZM116.907 40.0472L145.5 68.6403C146.138 69.2782 146.547 70.1934 146.547 71.168V150.277C146.547 156.19 141.737 161 135.824 161H64.3398C58.4274 161 53.6172 156.19 53.6172 150.277V49.7227C53.6172 43.8102 58.4274 39 64.3398 39H114.379C115.328 39 116.239 39.3796 116.907 40.0472ZM134.344 67.5938L117.953 51.2031V64.0195C117.953 65.9904 119.557 67.5938 121.527 67.5938H134.344ZM64.3398 153.852H135.824C137.795 153.852 139.398 152.248 139.398 150.277V74.7422H121.527C115.615 74.7422 110.805 69.932 110.805 64.0195V46.1484H64.3398C62.369 46.1484 60.7656 47.7518 60.7656 49.7227V150.277C60.7656 152.248 62.369 153.852 64.3398 153.852Z" fill="#FFC148"/>
</svg>
