<svg width="200" height="199" viewBox="0 0 200 199" fill="none" xmlns="http://www.w3.org/2000/svg">
<path fill-rule="evenodd" clip-rule="evenodd" d="M0.366013 102.269C0.366013 46.2001 45.0619 0.750549 100.181 0.750549C155.305 0.750549 199.994 46.2001 199.994 102.269C199.994 147.109 171.43 185.15 131.792 198.589C126.733 199.586 124.936 196.42 124.936 193.718C124.936 192.609 124.949 190.664 124.966 188.066C125 182.829 125.052 174.936 125.052 165.859C125.052 156.387 121.862 150.209 118.282 147.058C140.508 144.545 163.859 135.96 163.859 96.9672C163.859 85.8834 159.986 76.8271 153.586 69.7176C154.622 67.1589 158.04 56.835 152.607 42.8513C152.607 42.8513 144.237 40.1228 125.186 53.2576C117.209 51.0082 108.664 49.8802 100.181 49.8415C91.6982 49.8802 83.1594 51.0082 75.1974 53.2576C56.123 40.1228 47.7412 42.8513 47.7412 42.8513C42.3214 56.835 45.7379 67.1589 46.7743 69.7176C40.3892 76.8271 36.49 85.8834 36.49 96.9672C36.49 135.867 59.7958 144.572 81.966 147.139C79.1115 149.673 76.5247 154.154 75.6288 160.714C69.933 163.308 55.485 167.795 46.5825 152.275C46.5825 152.275 41.3049 142.528 31.2817 141.813C31.2817 141.813 21.5429 141.684 30.5991 147.985C30.5991 147.985 37.1412 151.105 41.6817 162.839C41.6817 162.839 47.5412 180.959 75.3098 174.817C75.3332 179.428 75.3712 183.895 75.401 187.401C75.4261 190.346 75.4454 192.613 75.4454 193.718C75.4454 196.4 73.614 199.542 68.6255 198.602C28.966 185.178 0.366013 147.124 0.366013 102.269ZM36.4603 146.82C37.171 147.166 37.9512 147.017 38.171 146.511C38.4222 146.005 38.009 145.31 37.2834 144.977C36.5611 144.633 35.7793 144.776 35.5644 145.295C35.3297 145.801 35.7363 146.489 36.4603 146.82ZM42.2136 151.096C41.7376 151.545 40.807 151.336 40.1756 150.627C39.5227 149.919 39.4004 148.973 39.883 148.517C40.3739 148.068 41.2764 148.278 41.931 148.986C42.5839 149.702 42.7111 150.642 42.2136 151.096ZM43.9199 156.067C44.5381 156.97 45.5381 157.375 46.1497 156.943C46.7745 156.501 46.7745 155.417 46.1646 154.501C45.5381 153.605 44.553 153.215 43.9332 153.648C43.3084 154.082 43.3084 155.165 43.9199 156.067ZM51.5406 162.591C50.9935 163.205 49.8282 163.04 48.9753 162.203C48.1026 161.384 47.8596 160.223 48.4084 159.609C48.9621 158.994 50.134 159.167 50.9935 159.997C51.8596 160.814 52.1241 161.984 51.5406 162.591ZM56.4844 166.691C57.615 167.029 58.7373 166.668 58.9787 165.873C59.2134 165.064 58.4729 164.139 57.3456 163.793C56.2068 163.432 55.0795 163.808 54.8448 164.608C54.6167 165.412 55.3555 166.343 56.4844 166.691ZM67.1473 166.48C67.1754 167.317 66.2167 168.012 65.0299 168.025C63.8365 168.054 62.8713 167.376 62.858 166.552C62.858 165.707 63.7952 165.019 64.9886 164.999C66.1754 164.975 67.1473 165.648 67.1473 166.48ZM72.888 167.042C74.0665 166.82 74.8913 165.981 74.7492 165.164C74.5988 164.334 73.5426 163.843 72.3624 164.051C71.2054 164.268 70.3657 165.107 70.5095 165.944C70.6566 166.754 71.7293 167.259 72.888 167.042Z" fill="#FFC148"/>
</svg>
