<svg width="200" height="200" viewBox="0 0 200 200" fill="none" xmlns="http://www.w3.org/2000/svg">
<path fill-rule="evenodd" clip-rule="evenodd" d="M100 0C44.7715 0 0 44.7715 0 100C0 155.228 44.7715 200 100 200C155.229 200 200 155.228 200 100C200 44.7715 155.229 0 100 0ZM152.969 115.062C152.969 113.121 154.542 111.547 156.484 111.547C158.426 111.547 160 113.121 160 115.062V118.828C160 132.127 150.103 143.004 137.407 144.702V152.969H145.188C147.13 152.969 148.703 154.543 148.703 156.484C148.703 158.426 147.13 160 145.188 160H122.594C120.652 160 119.079 158.426 119.079 156.484C119.079 154.543 120.652 152.969 122.594 152.969H130.375V144.702C119.908 143.303 111.586 135.737 108.806 126.11H67.3826L45.766 144.123C43.446 146.057 40 144.361 40 141.422V60.4611C40 49.1791 49.1791 40 60.4612 40H128.242C139.562 40 148.703 49.1608 148.703 60.4611V118.828C148.703 127.022 142.072 133.641 133.891 133.641C125.697 133.641 119.078 127.01 119.078 118.828V103.766C119.078 95.5725 125.709 88.9532 133.891 88.9532C136.682 88.9532 139.356 89.7241 141.672 91.1597V60.4611C141.672 53.0316 135.659 47.0312 128.242 47.0312H60.4612C53.0554 47.0312 47.0312 53.0554 47.0312 60.4611V133.916L63.8586 119.893C64.4904 119.366 65.2869 119.079 66.109 119.079H107.781V115.062C107.781 113.121 109.355 111.547 111.297 111.547C113.239 111.547 114.812 113.121 114.812 115.062V118.828C114.812 129.383 123.356 137.906 133.891 137.906C144.445 137.906 152.969 129.363 152.969 118.828V115.062ZM141.672 118.828V107.531V103.766C141.672 101.687 140.862 99.7327 139.392 98.2623C137.923 96.7938 135.968 95.9845 133.891 95.9845C131.813 95.9845 129.858 96.7938 128.387 98.2642C126.919 99.7336 126.109 101.688 126.109 103.766V118.829C126.109 120.906 126.919 122.861 128.389 124.333C129.858 125.8 131.813 126.61 133.891 126.61C135.968 126.61 137.923 125.8 139.394 124.33C140.863 122.861 141.672 120.906 141.672 118.828Z" fill="#FFC148"/>
</svg>
