<svg width="200" height="200" viewBox="0 0 200 200" fill="none" xmlns="http://www.w3.org/2000/svg">
<path fill-rule="evenodd" clip-rule="evenodd" d="M100 200C155.228 200 200 155.228 200 100C200 44.7715 155.228 0 100 0C44.7715 0 0 44.7715 0 100C0 155.228 44.7715 200 100 200ZM99.9333 120.713C104.608 125.652 112.034 128.721 119.312 128.721C131.464 128.721 139.628 122.403 139.629 113.045C139.73 100.86 128.927 97.5884 121.778 95.4234C113.39 92.8828 110.95 91.5138 110.95 87.3416C110.95 83.5002 116.268 82.1365 120.822 82.1365C124.205 82.1365 128.24 83.2184 130.635 84.7661C133.152 86.3937 136.513 85.6716 138.142 83.1537C139.769 80.6353 139.047 77.2742 136.529 75.6467C132.36 72.9518 126.341 71.2783 120.822 71.2783C108.423 71.2783 100.092 77.7337 100.092 87.3416C100.092 100.201 111.248 103.58 118.63 105.815C126.998 108.35 128.799 109.617 128.771 113C128.771 116.589 123.675 117.863 119.312 117.863C115.05 117.863 110.432 116.008 107.819 113.248C105.76 111.071 102.323 110.976 100.144 113.037C97.9669 115.098 97.872 118.535 99.9333 120.713ZM76.7758 127.738C86.5573 127.738 92.633 121.004 92.633 110.164V77.0961C92.633 74.0978 90.2025 71.6673 87.2042 71.6673H66.9413C63.943 71.6673 61.5125 74.0978 61.5125 77.0961C61.5125 80.0943 63.943 82.5248 66.9413 82.5248H81.7754V110.165C81.7754 116.88 78.7667 116.88 76.7758 116.88C74.2568 116.88 72.072 115.552 70.282 112.933C68.591 110.458 65.2119 109.823 62.7359 111.515C60.2606 113.207 59.6259 116.585 61.3174 119.061C65.1426 124.656 70.6325 127.738 76.7758 127.738Z" fill="#FFC148"/>
</svg>
