<svg width="200" height="200" viewBox="0 0 200 200" fill="none" xmlns="http://www.w3.org/2000/svg">
<path fill-rule="evenodd" clip-rule="evenodd" d="M100 0C44.7715 0 0 44.7715 0 100C0 155.228 44.7715 200 100 200C155.228 200 200 155.228 200 100C200 44.7715 155.228 0 100 0ZM97.4265 68.3065C92.5876 64.8109 85.6394 63.0631 76.5819 63.0631C73.9763 63.0631 71.0915 63.1879 67.9276 63.4376C64.8257 63.6249 62.003 64.0306 59.4595 64.6548V128.606H68.486V104.542H75.6513C80.18 104.542 84.2435 104.168 87.8417 103.419C91.4399 102.67 94.4797 101.484 96.9612 99.8608C99.5048 98.1754 101.428 96.0219 102.731 93.4002C104.096 90.716 104.778 87.5013 104.778 83.756C104.778 76.8895 102.327 71.7397 97.4265 68.3065ZM68.486 71.3028C70.5332 71.1155 73.48 71.0219 77.3263 71.0219C79.7458 71.0219 82.0412 71.2091 84.2125 71.5837C86.3838 71.9582 88.276 72.6448 89.8889 73.6436C91.5639 74.5799 92.8667 75.8596 93.7973 77.4825C94.7899 79.1055 95.2862 81.1654 95.2862 83.6623C95.2862 86.284 94.8209 88.4376 93.8904 90.123C92.9598 91.8084 91.626 93.1505 89.8889 94.1492C88.2139 95.0855 86.1357 95.7722 83.6542 96.2091C81.1727 96.5837 78.381 96.7709 75.2791 96.7709H68.486V71.3028ZM134.593 120.928C132.918 121.865 130.312 122.333 126.776 122.333C123.178 122.333 120.293 121.958 118.122 121.209C115.951 120.46 114.369 119.898 113.376 119.524L111.794 127.014C112.663 127.389 114.307 127.92 116.726 128.606C119.146 129.355 122.496 129.73 126.776 129.73C132.918 129.73 137.633 128.575 140.921 126.265C144.271 123.956 145.946 120.554 145.946 116.059C145.946 113.75 145.605 111.815 144.922 110.254C144.24 108.631 143.247 107.258 141.945 106.134C140.704 105.011 139.184 104.043 137.385 103.232C135.586 102.358 133.538 101.484 131.243 100.61C129.506 99.9857 128.017 99.3927 126.776 98.8309C125.536 98.2691 124.481 97.6761 123.612 97.0518C122.806 96.3652 122.186 95.6161 121.751 94.8046C121.379 93.9932 121.193 93.0568 121.193 91.9957C121.193 89.9357 122.093 88.4376 123.892 87.5013C125.691 86.5025 127.8 86.0031 130.219 86.0031C133.011 86.0031 135.4 86.284 137.385 86.8458C139.37 87.3452 140.828 87.8446 141.758 88.344L143.34 80.8533C142.844 80.6661 142.131 80.4476 141.2 80.1979C140.332 79.9482 139.308 79.7297 138.129 79.5425C136.951 79.2928 135.679 79.1055 134.314 78.9807C132.949 78.7934 131.584 78.6998 130.219 78.6998C124.76 78.6998 120.449 79.9794 117.285 82.5387C114.121 85.0356 112.539 88.4376 112.539 92.7447C112.539 94.9295 112.911 96.7709 113.655 98.2691C114.4 99.7672 115.392 101.047 116.633 102.108C117.874 103.169 119.332 104.106 121.007 104.917C122.744 105.666 124.543 106.415 126.404 107.164C130.25 108.725 133.011 110.129 134.686 111.378C136.361 112.626 137.199 114.312 137.199 116.434C137.199 118.494 136.33 119.992 134.593 120.928Z" fill="#FFC148"/>
</svg>
