<svg width="200" height="200" viewBox="0 0 200 200" fill="none" xmlns="http://www.w3.org/2000/svg">
<path fill-rule="evenodd" clip-rule="evenodd" d="M100 0C44.7715 0 0 44.7715 0 100C0 155.228 44.7715 200 100 200C155.228 200 200 155.228 200 100C200 44.7715 155.228 0 100 0ZM123.763 56.5768H134.518C140.892 56.6448 146.107 61.673 146.407 68.0405V149.134C146.407 155.361 140.746 159.89 134.518 159.89H64.8882C58.661 159.89 53 155.361 53 149.134V68.0402C53.2996 61.673 58.5142 56.6448 64.8882 56.5768H75.6443V51.765C75.6443 50.2082 77.2011 49.5007 78.7579 49.5007H86.9663C88.8709 44.2316 93.9634 40.7987 99.5621 41.0092C105.223 41.0092 110.177 43.8397 112.158 49.5007H120.508C122.064 49.5007 123.763 50.2082 123.763 51.765V56.5768ZM89.089 55.1617H81.305V66.4837H118.102V55.1617H110.035C108.622 55.0558 107.458 54.0088 107.204 52.6143C106.425 48.9863 103.271 46.3581 99.5621 46.2457C95.8184 46.3443 92.6162 48.9643 91.7781 52.6143C91.5392 53.9622 90.4478 54.9959 89.089 55.1617ZM134.518 154.229C137.632 154.229 140.746 152.248 140.746 149.134H140.745V68.0402C140.457 64.7993 137.771 62.2974 134.518 62.2378H123.762V69.4559C123.544 71.0636 122.127 72.2336 120.507 72.145H78.7576C77.167 72.2279 75.7936 71.0417 75.644 69.4559V62.2381H64.8882C61.6348 62.2974 58.9498 64.7996 58.661 68.0405V149.134C58.661 152.248 61.7746 154.229 64.8882 154.229H134.518ZM88.8059 104.271C87.7443 103.152 85.9819 103.089 84.8431 104.13L75.7854 112.762L71.9643 108.8C70.9027 107.681 69.1403 107.618 68.0015 108.658C66.9052 109.807 66.9052 111.614 68.0015 112.762L73.8039 118.707C74.3061 119.269 75.0315 119.58 75.7851 119.556C76.5317 119.545 77.2439 119.24 77.7664 118.707L88.8054 108.234C89.8997 107.23 89.9729 105.529 88.9687 104.435C88.9172 104.377 88.8628 104.323 88.8059 104.271ZM96.8729 110.356H129.424C130.987 110.356 132.254 111.624 132.254 113.187C132.254 114.75 130.987 116.017 129.424 116.017H96.8729C95.3096 116.017 94.0424 114.75 94.0424 113.187C94.0424 111.624 95.3096 110.356 96.8729 110.356ZM88.8059 81.6269C87.7443 80.5078 85.9819 80.4447 84.8431 81.4855L75.7854 90.1184L71.9643 86.1556C70.9027 85.0365 69.1403 84.9734 68.0015 86.0142C66.9052 87.1627 66.9052 88.9698 68.0015 90.1184L73.8039 96.0625C74.3061 96.6248 75.0315 96.9358 75.7851 96.9117C76.5317 96.9011 77.2439 96.5958 77.7664 96.0625L88.8054 85.5897C89.8997 84.5858 89.9729 82.8846 88.9687 81.7905C88.9172 81.7333 88.8628 81.6789 88.8059 81.6269ZM96.8729 87.7124H129.424C130.987 87.7124 132.254 88.9796 132.254 90.5429C132.254 92.1062 130.987 93.3734 129.424 93.3734H96.8729C95.3096 93.3734 94.0424 92.1062 94.0424 90.5429C94.0424 88.9796 95.3096 87.7124 96.8729 87.7124ZM88.8059 126.915C87.7443 125.796 85.9819 125.733 84.8431 126.773L75.7854 135.406L71.9643 131.443C70.9027 130.324 69.1403 130.261 68.0015 131.302C66.9052 132.451 66.9052 134.258 68.0015 135.406L73.8039 141.35C74.3061 141.913 75.0315 142.224 75.7851 142.2C76.5317 142.189 77.2439 141.884 77.7664 141.35L88.8054 130.877C89.8997 129.874 89.9729 128.172 88.9687 127.078C88.9172 127.021 88.8628 126.967 88.8059 126.915ZM96.8729 133H129.424C130.987 133 132.254 134.268 132.254 135.831C132.254 137.394 130.987 138.661 129.424 138.661H96.8729C95.3096 138.661 94.0424 137.394 94.0424 135.831C94.0424 134.268 95.3096 133 96.8729 133Z" fill="#FFC148"/>
</svg>
