<svg width="200" height="200" viewBox="0 0 200 200" fill="none" xmlns="http://www.w3.org/2000/svg">
<path fill-rule="evenodd" clip-rule="evenodd" d="M0 100C0 44.7715 44.7715 0 100 0C155.229 0 200 44.7715 200 100C200 155.228 155.229 200 100 200C44.7715 200 0 155.228 0 100ZM17.6135 98.3726C18.9185 96.4737 50.28 52 99.8562 52C142.397 52 180.304 96.2183 181.899 98.1033C182.983 99.3876 182.983 101.273 181.899 102.564C180.304 104.449 142.397 148.667 99.8562 148.667C57.3157 148.667 19.4089 104.449 17.814 102.564C16.8125 101.376 16.7229 99.6569 17.6135 98.3726ZM99.8562 141.762C133.959 141.762 166.384 109.241 174.621 100.334C166.397 91.4197 134.007 58.905 99.8562 58.905C59.9536 58.905 31.7888 91.3783 24.9119 100.147C32.8525 108.771 65.4636 141.762 99.8562 141.762ZM127.475 100.333C127.475 85.1015 115.088 72.7143 99.8562 72.7143C84.6245 72.7143 72.2373 85.1015 72.2373 100.333C72.2373 115.565 84.6245 127.952 99.8562 127.952C115.088 127.952 127.475 115.565 127.475 100.333ZM120.571 100.334C120.571 111.754 111.277 121.048 99.8562 121.048C88.4358 121.048 79.1418 111.754 79.1418 100.334C79.1418 88.9133 88.4358 79.6193 99.8562 79.6193C111.277 79.6193 120.571 88.9133 120.571 100.334Z" fill="#FFC148"/>
</svg>
