<svg width="201" height="201" viewBox="0 0 201 201" fill="none" xmlns="http://www.w3.org/2000/svg">
<path fill-rule="evenodd" clip-rule="evenodd" d="M100.617 0.8125C45.3887 0.8125 0.617188 45.584 0.617188 100.812C0.617188 156.041 45.3887 200.812 100.617 200.812C155.846 200.812 200.617 156.041 200.617 100.812C200.617 45.584 155.846 0.8125 100.617 0.8125ZM92.681 120.872C93.6122 123.541 94.6055 126.273 95.6608 129.066H105.532C103.049 122.238 100.72 115.936 98.5476 110.163C96.3748 104.327 94.233 98.8019 92.1222 93.5871C90.0735 88.3723 88.0249 83.4058 85.9762 78.6876C83.9275 73.9074 81.7857 69.1892 79.5508 64.5331H71.263C69.028 69.1892 66.8862 73.9074 64.8376 78.6876C62.7889 83.4058 60.7092 88.3723 58.5984 93.5871C56.5497 98.8019 54.439 104.327 52.2661 110.163C50.0933 115.936 47.7652 122.238 45.282 129.066H54.6873L60.554 112.584H89.7942C90.7875 115.378 91.7497 118.14 92.681 120.872ZM81.227 89.4897C83.2136 94.5183 85.2002 99.7331 87.1868 105.134H63.1614C65.0859 99.7331 67.0104 94.5183 68.9349 89.4897C70.9215 84.3991 73.0012 79.5257 75.1741 74.8696C77.2848 79.5257 79.3025 84.3991 81.227 89.4897ZM111.714 93.7733C110.473 96.9395 109.852 100.664 109.852 104.948C109.852 108.611 110.317 111.994 111.249 115.098C112.242 118.14 113.732 120.779 115.718 123.014C117.705 125.248 120.219 127.018 123.261 128.321C126.365 129.563 130.028 130.184 134.25 130.184C137.602 130.184 140.582 129.874 143.189 129.253C145.859 128.632 147.721 128.042 148.777 127.483L147.566 120.22C146.511 120.717 144.928 121.244 142.817 121.803C140.768 122.3 138.223 122.548 135.181 122.548C129.78 122.548 125.807 121.244 123.261 118.637C120.716 116.029 119.257 112.211 118.885 107.183H152.036C152.098 106.686 152.129 106.159 152.129 105.6V104.11C152.129 95.791 150.391 89.6139 146.914 85.5786C143.438 81.4813 138.44 79.4326 131.922 79.4326C129.128 79.4326 126.396 79.9603 123.727 81.0157C121.057 82.0711 118.698 83.6541 116.65 85.7649C114.601 87.8756 112.956 90.5451 111.714 93.7733ZM140.116 90.6072C142.165 93.0904 143.158 96.2876 143.096 100.199H119.071C119.257 98.5226 119.63 96.8774 120.188 95.2633C120.809 93.6492 121.647 92.2213 122.703 90.9797C123.758 89.7381 125.031 88.7448 126.521 87.9998C128.073 87.1927 129.842 86.7892 131.828 86.7892C135.367 86.7892 138.13 88.0619 140.116 90.6072Z" fill="#FFC148"/>
</svg>
