<svg width="201" height="201" viewBox="0 0 201 201" fill="none" xmlns="http://www.w3.org/2000/svg">
<path fill-rule="evenodd" clip-rule="evenodd" d="M100.617 0.8125C45.3887 0.8125 0.617188 45.584 0.617188 100.812C0.617188 156.041 45.3887 200.812 100.617 200.812C155.846 200.812 200.617 156.041 200.617 100.812C200.617 45.584 155.846 0.8125 100.617 0.8125ZM107.75 133.612C109.985 135.785 113.772 136.934 119.111 137.058L120.322 129.794C118.956 129.608 117.808 129.391 116.876 129.143C115.945 128.832 115.2 128.398 114.641 127.839C114.083 127.28 113.679 126.535 113.431 125.604C113.182 124.673 113.058 123.493 113.058 122.065V63.8644L104.398 65.3543V123.462C104.398 128.056 105.515 131.44 107.75 133.612ZM89.1675 71.5935H80.1347V136.127H89.1675V71.5935Z" fill="#FFC148"/>
</svg>
