<svg width="200" height="200" viewBox="0 0 200 200" fill="none" xmlns="http://www.w3.org/2000/svg">
<path fill-rule="evenodd" clip-rule="evenodd" d="M200 100C200 155.228 155.228 200 100 200C44.7715 200 0 155.228 0 100C0 44.7715 44.7715 0 100 0C155.228 0 200 44.7715 200 100ZM100 151.444C98.1565 153.225 96.3039 154.882 94.4545 156.401C92.1432 158.3 89.8786 159.944 87.6745 161.33C78.357 167.19 70.1141 168.439 64 164.787C56.4395 160.271 53.5244 149.093 55.7914 133.308C55.8139 133.152 55.8369 132.995 55.8604 132.838C56.1975 130.57 56.6372 128.243 57.1695 125.864L57.1694 125.864C54.7531 125.1 52.4428 124.27 50.2473 123.374C35.9033 117.513 28 109.311 28 100.28C28 91.2487 35.9033 83.0473 50.247 77.1894C52.4412 76.2941 54.7532 75.4611 57.1679 74.7003L57.1676 74.6988C56.8847 73.4305 56.6285 72.1776 56.3997 70.9412C56.1984 69.858 56.0188 68.7871 55.8615 67.7297C55.8376 67.5701 55.8143 67.4108 55.7914 67.2519C53.5258 51.47 56.4397 40.2885 63.9999 35.7728C70.0836 32.1391 78.2761 33.3591 87.5363 39.1442C87.6262 39.2004 87.7162 39.257 87.8063 39.314C89.969 40.6825 92.1894 42.2986 94.4542 44.1588C96.0947 45.5059 97.7374 46.9612 99.374 48.5184C99.5818 48.7158 99.7895 48.9149 99.9971 49.1156L99.9983 49.1144C101.846 47.3318 103.696 45.6771 105.544 44.158C117.623 34.2373 128.44 31.2572 136 35.7728C139.78 38.0306 142.399 41.9549 143.789 47.2873C143.876 47.6205 143.958 47.9593 144.035 48.3035C145.194 53.4664 145.27 59.8531 144.209 67.2521C143.889 69.4724 143.474 71.7535 142.964 74.0835C142.92 74.2884 142.874 74.4936 142.828 74.6992C145.244 75.4636 147.557 76.2937 149.753 77.1894C164.1 83.0473 172 91.2487 172 100.28C172 109.312 164.1 117.513 149.753 123.374C147.557 124.27 145.244 125.1 142.831 125.861C143.4 128.405 143.86 130.892 144.208 133.308C144.704 136.765 144.952 140.002 144.957 142.995C144.976 153.669 141.904 161.26 136 164.787C128.439 169.303 117.624 166.325 105.544 156.402C103.696 154.883 101.845 153.226 100.001 151.444L100 151.444ZM134.252 100.28L134.253 100.279C137.038 93.9048 139.337 87.5932 141.08 81.5226C143.23 82.2055 145.289 82.9511 147.248 83.7497C153.065 86.1274 157.777 88.9624 160.872 91.9541C163.73 94.7141 165.181 97.5146 165.181 100.281C165.181 103.046 163.73 105.847 160.872 108.606C157.777 111.598 153.065 114.433 147.248 116.811C145.289 117.609 143.23 118.355 141.08 119.038C139.336 112.967 137.038 106.658 134.252 100.28ZM126.909 115.148C128.097 112.994 129.232 110.832 130.315 108.667C130.581 109.342 130.841 110.015 131.095 110.687C132.401 114.147 133.54 117.557 134.5 120.887C130.598 121.848 126.472 122.638 122.176 123.248L122.177 123.248C123.404 121.267 124.604 119.243 125.774 117.179C125.986 116.805 126.197 116.43 126.407 116.054C126.575 115.752 126.743 115.45 126.909 115.148ZM104.839 146.466C109.047 141.868 113.183 136.652 117.125 130.967C123.856 130.278 130.29 129.182 136.242 127.707C136.366 128.264 136.484 128.818 136.596 129.37C136.741 130.086 136.876 130.796 137.002 131.5C137.143 132.292 137.272 133.076 137.389 133.852C137.414 134.017 137.438 134.181 137.461 134.345C137.498 134.596 137.532 134.847 137.566 135.096C138.377 141.187 138.325 146.553 137.405 150.654C136.866 153.067 136.05 155.014 134.967 156.479C134.281 157.407 133.487 158.14 132.59 158.676C131.235 159.486 129.621 159.857 127.765 159.788C127.718 159.786 127.671 159.784 127.624 159.782C127.57 159.779 127.515 159.776 127.461 159.773C126.23 159.697 124.897 159.432 123.466 158.98C122.197 158.58 120.862 158.031 119.476 157.341C119.202 157.205 118.926 157.063 118.648 156.916C115.843 155.429 112.847 153.391 109.785 150.875C108.797 150.064 107.808 149.209 106.818 148.314C106.158 147.716 105.498 147.1 104.839 146.466ZM84.1189 67.8232C83.7013 68.4087 83.2856 68.9996 82.8719 69.5957L82.8717 69.596L82.8716 69.596C76.1403 70.2852 69.7117 71.3816 63.7584 72.8539C63.2556 70.5859 62.847 68.368 62.5381 66.216C61.669 60.1729 61.6394 54.8085 62.4418 50.6344C62.4894 50.3874 62.5399 50.1446 62.5934 49.906C62.7373 49.2623 62.901 48.6517 63.0841 48.0746L63.113 47.9843C64.0526 45.0766 65.4947 43.0287 67.4101 41.8848C68.594 41.1789 69.9734 40.8044 71.5379 40.7665C72.4512 40.7448 73.4277 40.837 74.4651 41.0431C75.13 41.1754 75.8198 41.3547 76.5335 41.5808C80.5851 42.8589 85.3149 45.6627 90.2142 49.6851C91.8608 51.0379 93.5134 52.5097 95.1603 54.0974C91.3904 58.2116 87.6852 62.8221 84.1189 67.8232ZM100.001 131.826C102.74 131.826 105.455 131.763 108.137 131.635C105.478 135.177 102.755 138.479 99.9996 141.494C97.2441 138.479 94.521 135.177 91.8624 131.635C94.5442 131.763 97.2623 131.826 100.001 131.826ZM100.001 124.771C104.545 124.771 109.015 124.59 113.365 124.23C114.747 122.155 116.101 120.019 117.424 117.828C118.076 116.748 118.72 115.654 119.356 114.548C119.741 113.879 120.122 113.205 120.501 112.526C122.396 109.131 124.16 105.717 125.782 102.313C126.104 101.636 126.421 100.959 126.732 100.283C125.366 97.3097 123.888 94.3263 122.307 91.3502C121.719 90.2439 121.117 89.1386 120.501 88.0351C118.436 84.3345 116.273 80.7609 114.04 77.3472C113.817 77.007 113.593 76.6683 113.369 76.3313C109.018 75.971 104.546 75.7893 100.001 75.7893C95.4562 75.7893 90.9839 75.971 86.6327 76.328C85.8253 77.5416 85.0269 78.7762 84.2387 80.0304C83.1874 81.7036 82.1542 83.4116 81.1417 85.1509C80.5876 86.1028 80.0398 87.0642 79.4987 88.0345C78.7057 89.4547 77.9358 90.878 77.1899 92.3023C75.7974 94.9621 74.4879 97.6262 73.2676 100.282C74.0565 101.997 74.8825 103.717 75.744 105.436C76.5114 106.967 77.3067 108.498 78.129 110.027C78.5774 110.861 79.0339 111.694 79.4984 112.525C79.8365 113.132 80.1772 113.735 80.5204 114.334C82.4836 117.76 84.5278 121.068 86.6364 124.233C90.9864 124.59 95.4574 124.771 100.001 124.771ZM62.4304 149.863C61.6403 145.698 61.6737 140.357 62.5387 134.344C62.7932 132.571 63.1154 130.753 63.5005 128.899C63.583 128.503 63.6685 128.106 63.7571 127.707C69.7097 129.182 76.1404 130.275 82.8741 130.967C86.8162 136.653 90.9507 141.869 95.1617 146.464C93.6301 147.938 92.0926 149.314 90.559 150.591C90.4443 150.686 90.3297 150.781 90.2151 150.875C85.3158 154.9 80.5857 157.701 76.5344 158.982C72.7949 160.16 69.7242 160.06 67.4108 158.675C65.538 157.557 64.1176 155.574 63.1771 152.769C62.9562 152.109 62.7617 151.404 62.594 150.654C62.536 150.395 62.4815 150.131 62.4304 149.863ZM130.654 91.0272C130.543 91.3157 130.43 91.6046 130.316 91.8938C129.24 89.7484 128.115 87.6005 126.937 85.4626C126.762 85.1444 126.585 84.8263 126.408 84.5085C126.187 84.1125 125.965 83.7178 125.742 83.3245C124.582 81.2797 123.393 79.2749 122.177 77.3121C126.472 77.923 130.598 78.7121 134.501 79.6735C133.434 83.373 132.146 87.1714 130.654 91.0272ZM137.938 62.0417C137.826 63.3904 137.667 64.784 137.461 66.2157C137.152 68.3677 136.744 70.5856 136.241 72.8536L136.241 72.8539C130.288 71.3816 123.857 70.2852 117.125 69.596C113.183 63.9102 109.05 58.6945 104.838 54.0955L104.837 54.0954C106.488 52.5104 108.138 51.0381 109.785 49.6848C114.685 45.6627 119.415 42.8589 123.466 41.5805C124.12 41.3732 124.754 41.2053 125.368 41.0768C126.498 40.8404 127.558 40.7376 128.543 40.7684C130.074 40.8171 131.429 41.1908 132.589 41.8845C134.254 42.8773 135.559 44.551 136.488 46.8767C136.529 46.9779 136.569 47.0803 136.608 47.1839C136.919 48.0128 137.186 48.9205 137.406 49.9057C137.457 50.1324 137.505 50.3629 137.551 50.5972C138.142 53.6423 138.286 57.3246 137.985 61.4442C137.979 61.5233 137.973 61.6027 137.967 61.6822C137.957 61.8017 137.948 61.9215 137.938 62.0417ZM100.53 59.6504C100.353 59.4544 100.176 59.2597 99.9994 59.0661C97.2434 62.0816 94.5197 65.3839 91.8606 68.9271L91.8595 68.9284C94.5442 68.7999 97.2624 68.7343 100.001 68.7343C102.74 68.7343 105.458 68.8002 108.14 68.9284L108.139 68.9274C105.65 65.6115 103.105 62.5067 100.53 59.6504ZM65.4988 79.6733C69.4005 78.712 73.5261 77.9229 77.821 77.3121C76.3728 79.6507 74.9615 82.0545 73.5919 84.5085C72.2223 86.9627 70.917 89.4268 69.6833 91.8938C68.0472 87.7404 66.6449 83.6496 65.4988 79.6733ZM58.9192 81.5222C60.6607 87.5929 62.9609 93.901 65.7483 100.28C62.9599 106.655 60.6606 112.967 58.9191 119.038C56.7692 118.355 54.7104 117.61 52.7512 116.811C46.9344 114.433 42.2226 111.598 39.1279 108.607C36.2693 105.847 34.8189 103.046 34.8189 100.28C34.8189 97.5143 36.2693 94.7135 39.1279 91.9538C42.2226 88.9621 46.9341 86.1271 52.7512 83.7494C54.7101 82.9508 56.7693 82.2052 58.9192 81.5222ZM69.6836 108.667C68.0474 112.82 66.6452 116.911 65.4991 120.887C69.4008 121.849 73.5264 122.638 77.8213 123.248C76.373 120.91 74.963 118.508 73.5933 116.054C72.2238 113.6 70.9172 111.134 69.6836 108.667Z" fill="#FFC148"/>
</svg>
