<svg width="200" height="200" viewBox="0 0 200 200" fill="none" xmlns="http://www.w3.org/2000/svg">
<path fill-rule="evenodd" clip-rule="evenodd" d="M100 200C155.228 200 200 155.228 200 100C200 44.7715 155.228 0 100 0C44.7715 0 0 44.7715 0 100C0 155.228 44.7715 200 100 200ZM153.903 112.331C154.337 112.492 154.915 112.262 156.105 111.816C162.681 109.339 169.336 108.501 176 110.116C175.831 111.995 175.592 113.852 175.287 115.686C174.711 115.561 174.128 115.452 173.538 115.355C168.329 114.514 163.145 114.578 158.036 116.107L157.921 116.141C155.7 116.807 155.699 116.807 156.361 119.078C158.082 124.947 156.471 129.152 150.98 133.138C148.46 134.966 145.651 136.189 142.622 136.909C139.716 137.603 137.435 135.862 137.426 132.907C137.416 130.25 138.33 127.828 139.664 125.56C141.378 122.647 143.562 120.103 146.15 117.922C146.902 117.292 147.174 116.814 146.629 115.872C144.647 112.432 143.591 108.664 142.807 104.81C142.779 104.673 142.738 104.539 142.686 104.372C142.659 104.284 142.629 104.186 142.596 104.074C142.086 104.652 141.783 105.287 141.49 105.904C141.377 106.141 141.266 106.375 141.145 106.602C138.679 111.253 135.997 115.773 132.961 120.083C132.647 120.533 132.657 120.88 132.867 121.359C133.823 123.514 134.465 125.772 134.52 128.124C134.64 133.292 132.041 136.922 127.658 139.399C124.402 141.236 120.907 142.357 117.119 142.402C116.436 142.412 115.733 142.37 115.065 142.229C112.898 141.769 112.15 139.697 113.452 137.674C114.561 135.955 115.895 134.41 117.229 132.865C117.641 132.388 118.052 131.911 118.457 131.429C118.747 131.085 119.037 130.742 119.327 130.399C121.085 128.317 122.843 126.236 124.467 124.044C125.024 123.29 125.073 122.747 124.632 121.96C122.578 118.288 121.159 114.382 120.362 110.254C120.325 110.067 120.287 109.88 120.244 109.669C120.192 109.416 120.133 109.127 120.061 108.761C119.831 109.303 119.608 109.832 119.388 110.349C118.781 111.782 118.209 113.133 117.647 114.485C114.061 123.148 109.729 131.445 105.061 139.569C103.973 141.458 102.573 143.199 100.519 144.255C98.5721 145.258 96.4759 144.712 95.3616 142.836C94.4352 141.275 94.15 139.53 94.0821 137.764C94.0138 135.971 94.0073 134.172 94.1338 132.329C93.9273 132.794 93.7233 133.259 93.5193 133.725C93.0509 134.794 92.5828 135.863 92.0863 136.919C91.9969 137.11 91.9077 137.3 91.8186 137.491C90.6125 140.069 89.4104 142.639 87.6576 144.937C85.6752 147.535 80.7929 147.86 78.6062 145.014C76.4811 142.248 75.3634 139.103 74.6928 135.763C73.6138 130.398 74.6019 125.195 76.021 120.032C76.043 119.951 76.0718 119.872 76.1014 119.79C76.1937 119.536 76.293 119.262 76.212 118.863C75.5614 119.234 74.9153 119.602 74.2727 119.967C72.4703 120.992 70.6948 122.002 68.9228 123.023C68.7689 123.111 68.6007 123.194 68.4312 123.277C67.9445 123.517 67.4473 123.761 67.248 124.147C67.0621 124.512 67.3016 124.907 67.5482 125.313C67.6842 125.538 67.8223 125.766 67.8925 125.994C69.0264 129.643 69.4186 133.344 69.0459 137.166C68.6215 141.503 67.4941 145.615 65.087 149.248C60.1011 156.771 53.353 161.319 44.5378 162C37.12 160.703 30.8109 157.014 30.9572 146.636C31.6923 143.533 33.2701 140.739 35.593 138.249C40.3134 133.196 46.0961 129.56 52.0793 126.206C53.1655 125.597 54.2744 125.031 55.3829 124.465C55.7886 124.258 56.1941 124.051 56.5985 123.842L56.6076 123.837C57.8911 123.171 57.8951 123.169 56.7994 122.297C54.2889 120.297 51.6328 118.495 48.9765 116.693C47.5333 115.714 46.0901 114.735 44.6702 113.724C39.6487 110.152 34.7794 106.413 30.8109 101.665C28.1866 98.5301 26.1912 95.0544 25.2775 91.0392C24.5647 87.9201 25.3293 84.9551 26.3918 82.0706C28.8799 75.3347 33.2956 69.9091 38.4336 64.9913C44.2389 59.4344 50.8577 54.9981 57.8812 51.1243C64.7363 47.3403 71.8989 44.2277 79.3146 41.6933C84.1612 40.0391 89.1406 39.0046 94.2365 38.4009C100.094 37.707 105.893 37.8869 111.633 39.1525C116.788 40.2927 121.592 42.191 125.464 45.9655C128.719 49.1454 130.223 53.058 130.368 57.4876C130.595 64.4709 128.023 70.5741 123.96 76.1119C117.164 85.3759 107.853 90.7822 96.7376 93.4162C91.8101 94.5853 86.8307 95.2213 81.7736 95.1217C76.6064 95.0221 71.6853 94.039 67.532 90.6888C65.9349 89.4037 64.571 87.9327 63.8421 85.9828C63.729 85.6806 63.6412 85.3593 63.6025 85.0415C63.5507 84.5788 63.5085 84.0971 64.0561 83.8336C64.5906 83.5766 64.989 83.8306 65.3034 84.1967C68.0277 87.3769 71.708 88.697 75.6896 89.2977C79.1593 89.8212 82.6225 89.4711 86.0727 88.8897C92.3157 87.8396 98.215 85.8349 103.684 82.6774C110.251 78.8839 115.807 74.0399 119.302 67.2011C120.867 64.1398 121.712 60.9113 121.145 57.4165C120.663 54.4324 118.952 52.3992 116.37 50.9921C112.722 49.0037 108.747 48.3004 104.652 48.143C94.3146 47.7479 84.6086 50.3659 75.2524 54.4294C66.8973 58.0621 58.9701 62.4757 51.7423 68.0329C47.1908 71.5344 43.0635 75.466 40.2806 80.5575C37.9286 84.8616 36.8722 89.3908 38.2848 94.2542C39.1498 97.2285 40.8799 99.6924 42.9531 101.941C45.9034 105.136 49.342 107.762 52.7809 110.389C53.4771 110.92 54.1733 111.452 54.8654 111.989C55.0538 112.134 55.2423 112.28 55.4309 112.426C58.1859 114.555 60.9416 116.686 63.3371 119.232C63.7389 119.659 64.0985 119.746 64.6557 119.438C69.7386 116.659 74.8314 113.906 79.9273 111.153C80.3874 110.906 80.708 110.537 81.0254 110.135C83.7405 106.685 86.9702 103.843 90.9875 101.957C92.711 101.147 94.535 100.592 96.4626 100.948C99.1026 101.437 100.619 103.547 100.781 106.791C100.852 108.246 100.762 109.701 100.554 111.359C102.073 110.238 103.47 110.277 104.873 111.076C105.848 111.635 106.36 112.419 106.055 113.585C105.785 114.618 105.513 115.65 105.241 116.682C104.442 119.712 103.643 122.741 102.896 125.782C102.828 126.06 102.759 126.338 102.689 126.616C102.115 128.915 101.539 131.223 101.669 133.63C101.673 133.714 101.668 133.807 101.664 133.903C101.648 134.233 101.631 134.586 101.983 134.674C102.347 134.765 102.513 134.41 102.658 134.1C102.692 134.029 102.724 133.96 102.757 133.899C105.118 129.637 107.107 125.199 109.098 120.759C109.243 120.434 109.389 120.11 109.534 119.785C110.607 117.393 111.678 114.999 112.748 112.606C114.131 109.513 115.513 106.421 116.901 103.332C117.789 101.353 118.447 99.2974 118.868 97.1805C119.085 96.0981 119.72 95.5583 120.692 95.2917C122.853 94.691 125.062 94.6655 127.278 94.8389C127.696 94.8712 128.124 95.048 128.506 95.2373C129.368 95.6646 129.672 96.2782 129.306 97.2675C128.221 100.207 127.233 103.178 127.392 106.374C127.55 109.612 128.26 112.699 130.142 115.494C130.644 114.977 130.987 114.357 131.329 113.74C131.435 113.548 131.541 113.356 131.652 113.168C134.25 108.761 136.783 104.322 139.012 99.7121C139.748 98.1872 140.173 96.5853 140.599 94.9779C140.696 94.6116 140.794 94.2449 140.895 93.8788C141.811 90.5541 142.151 90.2587 145.605 89.9085C146.933 89.7736 148.3 89.7607 149.625 89.8956C151.446 90.0853 152.483 90.8209 151.686 92.9055C150.688 95.5269 149.894 98.1993 149.956 101.074C150.031 104.425 150.896 107.505 152.522 110.435C153.165 111.597 153.459 112.168 153.903 112.331ZM43.5593 153.761C45.134 153.883 46.6728 153.661 48.1532 153.141C55.9964 150.388 62.3331 141.975 62.0606 133.325C62.1645 131.883 61.8857 130.293 61.5748 128.706C61.3351 127.469 61.319 127.462 60.2726 128.079C56.8193 130.119 53.4045 132.217 50.2265 134.674C46.9574 137.199 43.7534 139.771 41.8454 143.562C40.7959 145.65 40.0862 147.796 40.2288 150.173C40.3553 152.235 41.5992 153.607 43.5593 153.761ZM92.6726 120.071C93.9521 116.64 95.1542 113.168 95.7048 109.522C95.9219 108.109 95.2838 107.556 93.9007 107.906C91.8628 108.423 90.324 109.712 89.1189 111.295C84.8071 116.977 82.1893 123.299 82.1407 131.034C82.1778 131.374 82.2004 131.742 82.2243 132.13C82.3086 133.502 82.408 135.12 83.2162 136.607C83.7473 137.584 84.4279 137.677 85.1955 136.877C86.0085 136.032 86.5365 135.001 87.0388 133.964C89.0431 129.848 90.6334 125.563 92.2229 121.281C92.3727 120.878 92.5225 120.474 92.6726 120.071ZM119.682 138.104C122.293 136.794 124.421 134.953 125.899 132.422C126.566 131.282 126.877 130.042 126.899 128.632C126.821 128.665 126.76 128.685 126.713 128.702C126.641 128.727 126.6 128.74 126.579 128.77C124.269 131.818 121.706 134.651 119.111 137.462C119.074 137.503 119.028 137.544 118.98 137.587C118.801 137.745 118.602 137.922 118.791 138.162C119.015 138.45 119.324 138.29 119.586 138.153C119.619 138.136 119.651 138.12 119.682 138.104ZM143.609 132.418C143.68 132.381 143.749 132.344 143.817 132.313C147.332 130.672 149.357 128.041 149.389 124.086C149.376 123.364 149.36 122.654 149.182 121.944C149.01 121.25 148.783 121.192 148.278 121.674C147.024 122.875 145.884 124.164 144.964 125.638C143.869 127.389 143.075 129.268 142.486 131.23C142.359 131.661 142.194 132.223 142.609 132.541C142.919 132.779 143.277 132.592 143.609 132.418Z" fill="#FFC148"/>
</svg>
