<svg width="201" height="201" viewBox="0 0 201 201" fill="none" xmlns="http://www.w3.org/2000/svg">
<path fill-rule="evenodd" clip-rule="evenodd" d="M100.617 0.8125C45.3887 0.8125 0.617188 45.584 0.617188 100.812C0.617188 156.041 45.3887 200.812 100.617 200.812C155.846 200.812 200.617 156.041 200.617 100.812C200.617 45.584 155.846 0.8125 100.617 0.8125ZM136.141 88.3723C138.127 89.1793 139.648 90.0174 140.704 90.8866V121.524C139.835 121.772 138.593 122.02 136.979 122.269C135.427 122.455 133.471 122.548 131.112 122.548C126.456 122.548 122.731 121.027 119.938 117.985C117.144 114.881 115.747 110.504 115.747 104.855C115.747 102.372 115.996 100.044 116.492 97.8707C116.989 95.6978 117.796 93.8354 118.913 92.2834C120.031 90.6693 121.459 89.4276 123.197 88.5585C124.997 87.6273 127.139 87.1617 129.622 87.1617C131.981 87.1617 134.154 87.5652 136.141 88.3723ZM149.364 56.804L140.704 58.294V82.785C139.648 82.1021 138.034 81.3881 135.862 80.6432C133.751 79.8982 131.299 79.5257 128.505 79.5257C125.028 79.5257 121.924 80.1465 119.193 81.3881C116.523 82.6298 114.257 84.368 112.395 86.603C110.532 88.8379 109.105 91.5074 108.111 94.6114C107.18 97.7155 106.714 101.13 106.714 104.855C106.714 108.766 107.273 112.305 108.391 115.471C109.57 118.575 111.215 121.213 113.326 123.386C115.437 125.559 117.982 127.235 120.962 128.415C123.942 129.594 127.294 130.184 131.019 130.184C135.054 130.184 138.624 129.905 141.728 129.346C144.832 128.787 147.378 128.228 149.364 127.67V56.804ZM88.2501 122.92C89.5538 125.155 90.6713 127.204 91.6025 129.066H101.753C98.897 123.541 95.6067 117.923 91.8819 112.211C88.157 106.5 84.1838 100.633 79.9623 94.6114L100.263 64.5331H89.9263L74.1888 88.5585L58.2649 64.5331H47.8353L68.5083 94.9839C64.3489 100.944 60.4067 106.748 56.6819 112.398C53.0191 118.047 49.7909 123.603 46.9972 129.066H56.9612C57.8925 127.204 59.0099 125.155 60.3136 122.92C61.6794 120.623 63.1073 118.264 64.5972 115.843C66.1492 113.36 67.7634 110.908 69.4395 108.487C71.1157 106.003 72.7298 103.675 74.2819 101.502C75.8339 103.675 77.448 106.003 79.1242 108.487C80.8004 110.908 82.4145 113.36 83.9665 115.843C85.5186 118.264 86.9464 120.623 88.2501 122.92Z" fill="#FFC148"/>
</svg>
