<svg width="200" height="200" viewBox="0 0 200 200" fill="none" xmlns="http://www.w3.org/2000/svg">
<path fill-rule="evenodd" clip-rule="evenodd" d="M0 100C0 44.7715 44.7715 0 100 0C155.228 0 200 44.7715 200 100C200 155.228 155.228 200 100 200C44.7715 200 0 155.228 0 100ZM114.826 77.791H143.073V69.6982H114.826V77.791ZM129.119 82.3263C133.365 82.3263 137.185 83.0811 140.584 84.5846C143.989 86.0819 146.793 88.4577 149 91.6998C151.014 94.5583 152.305 97.8746 152.895 101.643C153.24 103.845 153.378 107.038 153.321 111.189H117.806C118.019 116.009 119.7 119.394 122.911 121.33C124.855 122.537 127.194 123.143 129.941 123.143C132.832 123.143 135.197 122.407 137.009 120.94C138.006 120.142 138.884 119.041 139.637 117.63H152.65C152.305 120.476 150.725 123.378 147.928 126.323C143.563 130.994 137.448 133.333 129.59 133.333C123.099 133.333 117.373 131.366 112.425 127.418C107.451 123.477 104.98 117.055 104.98 108.17C104.98 99.8359 107.219 93.4446 111.691 88.996C116.175 84.5598 121.976 82.3263 129.119 82.3263ZM95.6042 73.5964C92.2489 69.0921 86.5606 66.7843 78.5204 66.6668H46.6671V131.694H76.3693C79.7183 131.694 82.8165 131.409 85.6826 130.821C88.5487 130.227 91.0259 129.145 93.1269 127.555C94.9959 126.169 96.5512 124.461 97.793 122.438C99.756 119.381 100.734 115.923 100.734 112.068C100.734 108.331 99.8751 105.151 98.1693 102.54C96.4446 99.9227 93.9109 98.0109 90.5493 96.7982C92.7632 95.6845 94.4377 94.4471 95.5791 93.0983C97.6174 90.6853 98.6271 87.4865 98.6271 83.5206C98.6271 79.666 97.6174 76.362 95.6042 73.5964ZM74.1556 77.9584H59.8062V92.3064H75.8364C78.6899 92.3064 81.0167 91.7681 82.8104 90.6915C84.5915 89.615 85.4883 87.7093 85.4883 84.987C85.4883 81.9491 84.3093 79.9506 81.9512 78.9731C79.9066 78.2987 77.3102 77.9584 74.1556 77.9584ZM129.126 92.7025C125.865 92.7025 123.318 93.6182 121.518 95.4497C119.719 97.2811 118.583 99.7621 118.119 102.893H140.089C139.857 99.5518 138.715 97.0274 136.696 95.2888C134.651 93.5626 132.136 92.7025 129.126 92.7025ZM59.8062 103.066H76.0371C78.8593 103.091 81.0606 103.462 82.6285 104.168C85.4319 105.436 86.8242 107.756 86.8242 111.147C86.8242 115.144 85.3817 117.841 82.4905 119.264C80.9038 120.025 78.6711 120.409 75.8113 120.409H59.8062V103.066Z" fill="#FFC148"/>
</svg>
