<svg width="201" height="200" viewBox="0 0 201 200" fill="none" xmlns="http://www.w3.org/2000/svg">
<path fill-rule="evenodd" clip-rule="evenodd" d="M100.12 200C155.348 200 200.12 155.228 200.12 100C200.12 44.7715 155.348 0 100.12 0C44.8915 0 0.119995 44.7715 0.119995 100C0.119995 155.228 44.8915 200 100.12 200ZM95.9232 54.1805V75.626L104.161 75.6276V109.876L112.666 101.038L113.127 100.627C114.739 99.3942 117.038 99.5312 118.497 101.038C120.102 102.695 120.102 105.402 118.497 107.059L102.93 123.189L102.531 123.57C101.825 124.152 100.933 124.459 100.042 124.459C98.9183 124.459 97.8484 124.017 97.0995 123.189L81.533 107.059L81.1025 106.531C80.5958 105.79 80.3562 104.915 80.3562 104.076C80.3562 102.971 80.7306 101.866 81.533 101.038C83.1378 99.3805 85.759 99.3805 87.3638 101.038L95.9227 109.876V75.6276H70.246L69.1333 75.6545C56.5941 76.2609 46.5485 87.0606 46.5485 100.154V127.055L46.5744 128.214C47.1588 141.263 57.5681 151.637 70.2995 151.637H129.784L130.897 151.61C143.439 151.007 153.535 140.259 153.535 127.166V100.209L153.509 99.0554C152.921 86.0532 142.462 75.6276 129.73 75.6276L104.161 75.626V54.1805L104.123 53.6192C103.847 51.5967 102.102 50 100.042 50C97.742 50 95.9232 51.9002 95.9232 54.1805Z" fill="white"/>
</svg>
