<svg width="200" height="201" viewBox="0 0 200 201" fill="none" xmlns="http://www.w3.org/2000/svg">
<path fill-rule="evenodd" clip-rule="evenodd" d="M100 0.0314941C44.7717 0.0314941 0 44.8032 0 100.031C0 155.26 44.7717 200.031 100 200.031C155.228 200.031 200 155.26 200 100.031C200 44.8032 155.228 0.0314941 100 0.0314941ZM99.9997 140.031C99.9997 151.077 91.0454 160.031 79.9997 160.031C68.954 160.031 59.9997 151.077 59.9997 140.031C59.9997 129.039 68.8669 120.118 79.8384 120.031L79.932 120.032L79.9997 120.032H99.9997V140.031ZM79.8384 120.031C68.8669 119.945 59.9997 111.024 59.9997 100.032C59.9997 88.9864 68.954 80.0321 79.9997 80.0321H99.9997V120.031H79.9997C79.9459 120.031 79.8921 120.031 79.8384 120.031ZM79.9997 80.0318C68.954 80.0318 59.9997 71.0775 59.9997 60.0318C59.9997 48.9861 68.954 40.0318 79.9997 40.0318H99.9997V80.0318H79.9997ZM100 80.0318H120C131.046 80.0318 140 71.0775 140 60.0318C140 48.9861 131.046 40.0318 120 40.0318H100V80.0318ZM120 80.0321C131.046 80.0321 140 88.9864 140 100.032C140 111.078 131.046 120.032 120 120.032C108.954 120.032 100 111.078 100 100.032C100 88.9864 108.954 80.0321 120 80.0321Z" fill="#FFC148"/>
</svg>
