<svg width="200" height="200" viewBox="0 0 200 200" fill="none" xmlns="http://www.w3.org/2000/svg">
<path fill-rule="evenodd" clip-rule="evenodd" d="M100 0C44.7715 0 0 44.7715 0 100C0 155.228 44.7715 200 100 200C155.228 200 200 155.228 200 100C200 44.7715 155.228 0 100 0ZM48.0064 82.8247H70.6686V150.915H48.0064V82.8247ZM72.1622 61.7612C72.0151 55.085 67.2409 50 59.4883 50C51.7357 50 46.6673 55.085 46.6673 61.7612C46.6673 68.2991 51.5859 73.5306 59.1941 73.5306H59.3389C67.2409 73.5306 72.1622 68.2991 72.1622 61.7612ZM126.305 81.2256C141.218 81.2256 152.398 90.9596 152.398 111.874L152.397 150.915H129.736V114.487C129.736 105.337 126.456 99.0928 118.252 99.0928C111.992 99.0928 108.262 103.302 106.625 107.367C106.025 108.824 105.878 110.854 105.878 112.889V150.917H83.2133C83.2133 150.917 83.512 89.2156 83.2133 82.8263H105.878V92.4708C108.886 87.8345 114.273 81.2256 126.305 81.2256Z" fill="white"/>
</svg>
