<svg width="1080" height="300" viewBox="0 0 1080 300" fill="none" xmlns="http://www.w3.org/2000/svg">
<path d="M327.301 199.644V149.646H344.015L350.101 171.52L353.004 182.947C354.315 177.444 355.251 173.619 355.813 171.52L361.993 149.646H379.222V199.644H367.611V174.459V164.478C366.441 169.468 365.692 172.546 365.317 173.806L358.107 199.644H347.854L340.691 173.852L338.397 164.524C338.397 169.888 338.397 173.246 338.397 174.599V199.644H327.301Z" fill="#616160"/>
<path d="M390.551 199.644L408.622 149.646H421.357L439.522 199.644H426.46L423.51 190.643H405.954L403.051 199.644H390.551ZM408.81 181.921H420.608L416.675 169.655L414.709 162.565C413.913 165.55 413.257 167.929 412.695 169.655L408.81 181.921Z" fill="#616160"/>
<path d="M451.227 199.644V149.646H475.244C479.773 149.446 484.233 150.796 487.885 153.471C489.498 154.712 490.787 156.323 491.642 158.166C492.498 160.009 492.895 162.03 492.801 164.058C492.979 166.765 492.208 169.449 490.62 171.653C489.031 173.856 486.724 175.441 484.093 176.138V176.371C486.124 176.991 487.915 178.219 489.222 179.887C490.528 181.556 491.288 183.585 491.396 185.699C491.727 187.705 491.931 189.73 492.005 191.762C492.005 194.188 492.286 195.96 492.473 197.173C492.66 198.385 492.988 199.038 493.503 199.225V199.831H481.424C481.05 199.831 480.769 198.945 480.582 197.825C480.296 196.284 480.108 194.726 480.02 193.161C480.02 191.109 479.739 189.477 479.552 188.497C479.507 187.468 479.25 186.459 478.797 185.533C478.344 184.607 477.705 183.784 476.919 183.115C476.132 182.445 475.217 181.944 474.228 181.643C473.239 181.341 472.199 181.245 471.171 181.362H463.493V200.018L451.227 199.644ZM463.68 171.66H473.044C475.039 171.817 477.022 171.236 478.615 170.028C479.274 169.452 479.786 168.73 480.112 167.919C480.437 167.109 480.566 166.233 480.488 165.364C480.554 164.5 480.424 163.632 480.108 162.825C479.792 162.018 479.298 161.292 478.662 160.7C477.18 159.449 475.262 158.829 473.325 158.974H463.493L463.68 171.66Z" fill="#616160"/>
<path d="M506.659 199.645V149.647H519.065V199.645H506.659ZM508.204 147.175L511.2 138.08H524.356L516.912 147.175H508.204Z" fill="#616160"/>
<path d="M530.676 199.644L548.7 149.646H561.481L579.6 199.644H566.491L563.541 190.643H545.985L543.082 199.644H530.676ZM548.934 181.781H560.732L556.94 169.655L554.974 162.565C554.178 165.55 553.476 167.929 552.914 169.655L548.934 181.781Z" fill="#616160"/>
<path d="M625.481 200.577C620.717 200.91 616.01 199.37 612.372 196.286C610.825 194.771 609.61 192.952 608.804 190.945C607.998 188.938 607.619 186.787 607.691 184.626V180.195H618.974V184.346C618.974 188.357 620.8 190.363 624.451 190.363C628.103 190.363 629.835 188.404 629.648 184.486V149.646H642.101V184.766C642.311 188.697 641.023 192.561 638.497 195.587C636.803 197.286 634.768 198.609 632.525 199.469C630.282 200.329 627.881 200.707 625.481 200.577V200.577Z" fill="#616160"/>
<path d="M697.58 193.488C692.778 198.21 686.302 200.858 679.555 200.858C672.808 200.858 666.332 198.21 661.53 193.488C656.948 188.368 654.517 181.688 654.742 174.832C654.532 167.978 656.96 161.304 661.53 156.176C666.349 151.487 672.819 148.862 679.555 148.862C686.291 148.862 692.761 151.487 697.58 156.176C702.183 161.287 704.632 167.969 704.415 174.832C704.646 181.698 702.196 188.385 697.58 193.488ZM679.602 190.783C681.362 190.868 683.114 190.506 684.694 189.731C686.275 188.956 687.632 187.793 688.638 186.352C690.864 182.915 691.961 178.872 691.774 174.785C691.971 170.668 690.875 166.593 688.638 163.125C687.586 161.735 686.225 160.606 684.661 159.829C683.097 159.052 681.373 158.648 679.625 158.648C677.878 158.648 676.154 159.052 674.59 159.829C673.026 160.606 671.664 161.735 670.613 163.125C668.472 166.641 667.34 170.674 667.34 174.785C667.34 178.897 668.472 182.93 670.613 186.445C671.635 187.886 673.011 189.042 674.609 189.801C676.208 190.561 677.975 190.899 679.742 190.783H679.602Z" fill="#616160"/>
<path d="M737.608 200.857C731.891 201.169 726.225 199.632 721.456 196.473C719.474 195.042 717.871 193.153 716.786 190.967C715.701 188.781 715.167 186.364 715.23 183.927H727.73C728.26 188.684 731.538 191.063 737.561 191.063C739.547 191.134 741.517 190.684 743.273 189.757C744.012 189.399 744.629 188.832 745.045 188.127C745.462 187.422 745.66 186.609 745.614 185.792C745.623 185.21 745.497 184.633 745.245 184.107C744.993 183.581 744.623 183.12 744.163 182.761C743.28 182.005 742.264 181.42 741.166 181.035C740.183 180.709 738.264 180.196 735.455 179.496H735.174H734.659L729.368 178.143C727.77 177.637 726.207 177.029 724.687 176.324C723.148 175.649 721.726 174.736 720.473 173.619C719.368 172.5 718.479 171.188 717.851 169.748C717.122 168.022 716.756 166.165 716.775 164.291C716.638 162.062 717.073 159.834 718.039 157.819C719.006 155.803 720.472 154.066 722.299 152.771C726.585 150.019 731.625 148.666 736.719 148.9C741.7 148.683 746.62 150.055 750.764 152.818C752.581 154.129 754.057 155.855 755.067 157.852C756.077 159.848 756.592 162.056 756.569 164.291H744.397C744.355 163.384 744.116 162.497 743.696 161.692C743.275 160.887 742.684 160.182 741.962 159.627C740.307 158.516 738.339 157.96 736.344 158.042C734.508 157.978 732.691 158.43 731.101 159.348C730.499 159.694 729.997 160.189 729.644 160.786C729.291 161.382 729.099 162.06 729.087 162.752C729.073 163.504 729.295 164.242 729.723 164.861C730.152 165.48 730.765 165.95 731.475 166.204C734.386 167.333 737.395 168.192 740.464 168.769C743.226 169.422 745.52 170.075 747.299 170.681C749.202 171.385 751.023 172.292 752.73 173.386C754.54 174.51 755.987 176.129 756.897 178.05C757.847 180.111 758.311 182.36 758.255 184.626C758.362 186.947 757.888 189.259 756.874 191.351C755.861 193.444 754.34 195.252 752.449 196.613C748.109 199.623 742.89 201.115 737.608 200.857Z" fill="#616160"/>
<path d="M771.458 199.645V149.647H809.52V159.861H783.911V168.816H805.868V178.47H783.911V189.151H809.941V199.645H771.458ZM786.533 147.175L789.576 138.08H802.685L795.241 147.175H786.533Z" fill="#616160"/>
<path d="M839.39 199.644L857.415 149.646H870.196L888.314 199.644H875.486L872.537 190.643H854.98L852.078 199.644H839.39ZM857.649 181.781H869.447L865.655 169.655L863.688 162.565C862.892 165.55 862.19 167.929 861.628 169.655L857.649 181.781Z" fill="#616160"/>
<path d="M900.064 199.644V149.646H924.082C928.61 149.446 933.071 150.796 936.722 153.471C938.292 154.737 939.536 156.358 940.351 158.2C941.165 160.041 941.526 162.05 941.404 164.058C941.582 166.765 940.811 169.449 939.223 171.653C937.635 173.856 935.328 175.441 932.696 176.138V176.371C934.728 176.991 936.518 178.219 937.825 179.887C939.132 181.556 939.891 183.585 940 185.699C940.307 187.708 940.511 189.732 940.608 191.762C940.653 193.572 940.794 195.378 941.03 197.173C941.03 198.339 941.591 199.038 942.106 199.225V199.831H930.262C929.887 199.831 929.606 198.945 929.372 197.825C929.138 196.706 928.998 195.12 928.857 193.161C928.717 191.203 928.529 189.477 928.342 188.497C928.297 187.473 928.041 186.468 927.591 185.545C927.141 184.623 926.506 183.802 925.725 183.133C924.944 182.465 924.034 181.963 923.051 181.658C922.068 181.353 921.032 181.252 920.009 181.362H912.471V200.018L900.064 199.644ZM912.471 171.66H921.835C923.815 171.814 925.783 171.232 927.359 170.028C928.023 169.454 928.542 168.734 928.876 167.924C929.209 167.114 929.347 166.237 929.279 165.364C929.344 164.5 929.214 163.632 928.898 162.825C928.582 162.018 928.088 161.292 927.453 160.7C925.97 159.449 924.053 158.829 922.115 158.974H912.471V171.66Z" fill="#616160"/>
<path d="M955.45 199.644V149.646H967.903V199.644H955.45Z" fill="#616160"/>
<path d="M979.468 199.644L997.54 149.646H1010.32L1028.44 199.644H1015.38L1012.43 190.643H994.871L991.968 199.644H979.468ZM997.727 181.781H1009.52L1005.73 169.655L1003.77 162.565C1002.97 165.55 1002.32 167.929 1001.75 169.655L997.727 181.781Z" fill="#616160"/>
<path d="M1059.1 200.857C1053.39 201.169 1047.72 199.631 1042.95 196.473C1040.97 195.042 1039.37 193.152 1038.28 190.966C1037.2 188.78 1036.66 186.364 1036.73 183.927H1049.23C1049.73 188.684 1053 191.062 1059.06 191.062C1061.04 191.134 1063.01 190.683 1064.77 189.757C1065.51 189.399 1066.12 188.832 1066.54 188.127C1066.96 187.422 1067.16 186.609 1067.11 185.792C1067.12 185.21 1066.99 184.633 1066.74 184.107C1066.49 183.581 1066.12 183.12 1065.66 182.761C1064.78 182.005 1063.76 181.42 1062.66 181.035C1061.68 180.708 1059.76 180.195 1056.95 179.496H1056.67H1056.15L1050.86 178.143C1049.27 177.637 1047.7 177.029 1046.18 176.324C1044.64 175.649 1043.22 174.736 1041.97 173.619C1040.86 172.5 1039.98 171.188 1039.35 169.748C1038.62 168.021 1038.25 166.164 1038.27 164.291C1038.13 162.01 1038.58 159.73 1039.59 157.677C1040.6 155.624 1042.13 153.869 1044.03 152.585C1048.32 149.833 1053.36 148.48 1058.45 148.713C1063.43 148.496 1068.35 149.869 1072.49 152.631C1074.31 153.943 1075.79 155.669 1076.8 157.665C1077.81 159.661 1078.32 161.869 1078.3 164.105H1066.13C1066.09 163.198 1065.85 162.311 1065.43 161.505C1065.01 160.7 1064.41 159.995 1063.69 159.441C1062.04 158.329 1060.07 157.773 1058.07 157.855C1056.24 157.791 1054.42 158.244 1052.83 159.161C1052.23 159.507 1051.73 160.002 1051.37 160.599C1051.02 161.196 1050.83 161.873 1050.82 162.565C1050.8 163.317 1051.03 164.055 1051.45 164.674C1051.88 165.293 1052.49 165.763 1053.21 166.017C1056.12 167.146 1059.12 168.005 1062.19 168.582C1064.96 169.235 1067.25 169.888 1069.03 170.494C1070.93 171.198 1072.75 172.105 1074.46 173.199C1076.27 174.323 1077.72 175.942 1078.63 177.863C1079.58 179.924 1080.04 182.173 1079.98 184.44C1080.09 186.761 1079.62 189.072 1078.6 191.164C1077.59 193.257 1076.07 195.065 1074.18 196.426C1069.8 199.552 1064.49 201.113 1059.1 200.857Z" fill="#616160"/>
<path d="M329.876 234.018V277.346H328.004V234.018H329.876Z" fill="#444444"/>
<path d="M376.693 234.018V277.346H374.539L346.449 237.142V277.346H344.623V234.018H346.449L374.539 274.221V234.018H376.693Z" fill="#444444"/>
<path d="M405.767 277.346H403.848V235.743H388.304V234.018H421.076V235.743H405.767V277.346Z" fill="#444444"/>
<path d="M434.793 235.697V254.073H459.372V255.752H434.793V275.62H462.135V277.346H432.921V234.018H461.526V235.697H434.793Z" fill="#444444"/>
<path d="M476.695 257.151V277.346H474.776V234.018H492.192C495.577 233.821 498.914 234.885 501.555 237.003C502.692 238.104 503.577 239.437 504.15 240.91C504.724 242.382 504.973 243.961 504.879 245.538C505.139 248.011 504.441 250.49 502.926 252.466C501.412 254.443 499.196 255.769 496.733 256.172V256.172C497.813 256.366 498.843 256.777 499.76 257.378C500.678 257.979 501.463 258.758 502.07 259.67C503.308 261.978 503.936 264.562 503.896 267.179C503.896 272.962 504.645 276.507 505.675 277.066H503.615C502.679 276.413 502.117 273.055 501.977 266.992C502.113 264.205 501.25 261.461 499.542 259.25C498.529 258.37 497.346 257.705 496.066 257.296C494.787 256.887 493.436 256.742 492.098 256.871L476.695 257.151ZM476.695 235.697V255.425H491.583C499.261 255.425 503.1 252.114 503.1 245.584C503.188 244.23 502.977 242.874 502.484 241.609C501.991 240.344 501.226 239.202 500.244 238.262C497.927 236.424 495.007 235.51 492.051 235.697H476.695Z" fill="#444444"/>
<path d="M548.373 277.346L542.661 262.561H522.342L516.584 277.346H514.571L531.378 234.018H533.719L550.527 277.346H548.373ZM532.502 236.303L523.138 260.929H542.193L532.83 236.303H532.502Z" fill="#444444"/>
<path d="M593.411 246.191H591.445C590.912 243.053 589.247 240.217 586.763 238.216C583.94 236.013 580.42 234.888 576.838 235.044C574.365 234.927 571.9 235.389 569.639 236.394C567.379 237.398 565.387 238.917 563.822 240.827C560.563 245.089 558.906 250.353 559.141 255.706C558.874 261.062 560.534 266.338 563.822 270.584C565.377 272.464 567.35 273.957 569.585 274.944C571.82 275.932 574.255 276.387 576.697 276.274C578.686 276.368 580.674 276.052 582.535 275.346C584.395 274.64 586.09 273.558 587.512 272.17C590.213 269.352 591.865 265.698 592.194 261.815H593.926C593.7 265.916 592.044 269.809 589.244 272.822C587.629 274.562 585.654 275.93 583.455 276.832C581.256 277.734 578.886 278.148 576.51 278.046C573.856 278.126 571.219 277.614 568.789 276.549C566.359 275.484 564.198 273.892 562.465 271.89C558.987 267.214 557.109 261.548 557.109 255.729C557.109 249.909 558.987 244.244 562.465 239.568C564.217 237.49 566.423 235.838 568.914 234.739C571.405 233.64 574.115 233.122 576.838 233.225C580.876 233.066 584.841 234.339 588.027 236.816C590.909 239.182 592.824 242.517 593.411 246.191V246.191Z" fill="#444444"/>
<path d="M619.301 277.346H617.335V235.743H601.792V234.018H634.798V235.743H619.301V277.346Z" fill="#444444"/>
<path d="M648.468 234.018V277.346H646.595V234.018H648.468Z" fill="#444444"/>
<path d="M661.624 234.018L676.98 274.688L692.523 234.018H694.443L678.01 277.346H675.95L659.564 234.018H661.624Z" fill="#444444"/>
<path d="M707.318 235.697V254.073H731.943V255.752H707.318V275.62H734.659V277.346H705.445V234.018H734.05V235.697H707.318Z" fill="#444444"/>
<path d="M763.733 277.346V234.018H779.324C782.975 233.886 786.571 234.933 789.577 237.003C792.3 238.954 794.358 241.688 795.476 244.838C796.749 248.383 797.367 252.128 797.302 255.892C797.568 261.45 795.916 266.931 792.62 271.423C790.974 273.429 788.87 275.014 786.483 276.045C784.097 277.075 781.497 277.521 778.902 277.346H763.733ZM765.653 275.667H778.855C781.176 275.844 783.505 275.472 785.654 274.58C787.802 273.688 789.708 272.303 791.215 270.537C794.304 266.35 795.827 261.219 795.522 256.032C795.802 250.788 794.355 245.597 791.403 241.247C790.004 239.461 788.192 238.039 786.12 237.105C784.049 236.171 781.781 235.752 779.511 235.883H765.887L765.653 275.667Z" fill="#444444"/>
<path d="M811.814 235.697V254.073H836.44V255.752H811.814V275.62H839.156V277.346H809.941V234.018H838.547V235.697H811.814Z" fill="#444444"/>
<path d="M848.613 263.587H850.626C850.631 265.35 851.009 267.091 851.735 268.699C852.461 270.306 853.519 271.743 854.84 272.915C857.931 275.349 861.815 276.561 865.748 276.32C869.097 276.468 872.397 275.481 875.112 273.522C876.283 272.624 877.224 271.463 877.859 270.134C878.494 268.805 878.804 267.344 878.763 265.873C878.875 264.526 878.641 263.174 878.084 261.942C877.528 260.71 876.666 259.639 875.58 258.83C872.078 256.929 868.252 255.696 864.297 255.192C860.556 254.693 856.965 253.405 853.763 251.414C852.617 250.571 851.704 249.454 851.106 248.166C850.509 246.878 850.247 245.461 850.345 244.045C850.293 242.515 850.621 240.995 851.299 239.62C851.976 238.246 852.983 237.058 854.231 236.163C857.213 234.085 860.802 233.052 864.437 233.225C868.162 233.034 871.827 234.212 874.737 236.536C877.381 238.802 879.056 241.989 879.419 245.445H877.452C877.343 243.956 876.929 242.506 876.236 241.183C875.544 239.86 874.588 238.691 873.426 237.749C870.905 235.836 867.791 234.863 864.624 234.997C861.453 234.831 858.314 235.699 855.682 237.469C854.648 238.21 853.812 239.193 853.249 240.332C852.685 241.471 852.412 242.73 852.452 243.999C852.371 245.196 852.605 246.393 853.13 247.473C853.656 248.552 854.455 249.477 855.448 250.155C858.501 251.917 861.875 253.059 865.373 253.513C867.538 253.889 869.68 254.387 871.788 255.006C873.434 255.518 875.008 256.239 876.469 257.151C877.869 257.988 879.005 259.2 879.747 260.649C880.478 262.242 880.831 263.982 880.777 265.733C880.825 267.411 880.487 269.077 879.789 270.605C879.091 272.133 878.052 273.482 876.75 274.548C873.655 276.94 869.801 278.148 865.888 277.953C861.375 278.25 856.919 276.815 853.435 273.942C851.983 272.62 850.808 271.024 849.98 269.247C849.153 267.469 848.688 265.546 848.613 263.587V263.587Z" fill="#444444"/>
<path d="M895.337 234.018V277.346H893.464V234.018H895.337Z" fill="#444444"/>
<path d="M944.167 257.571H928.999V255.892H946.04V277.346H944.448V267.132C943.546 270.202 941.674 272.901 939.111 274.828C936.102 277.056 932.418 278.191 928.671 278.046C925.878 278.177 923.092 277.684 920.516 276.603C917.939 275.521 915.639 273.879 913.783 271.796C910.04 267.298 908.076 261.592 908.258 255.752C908.062 249.934 909.973 244.239 913.642 239.708C915.466 237.595 917.741 235.917 920.301 234.795C922.862 233.673 925.641 233.136 928.437 233.225C932.49 233.065 936.474 234.3 939.72 236.723C942.687 239.04 944.702 242.357 945.385 246.051H943.465C942.91 242.765 941.118 239.813 938.456 237.796C935.563 235.669 932.03 234.583 928.437 234.717C925.879 234.569 923.322 235.028 920.977 236.058C918.633 237.088 916.568 238.659 914.953 240.641C911.718 244.879 910.063 250.105 910.272 255.426C910.038 260.735 911.697 265.955 914.953 270.164C916.59 272.112 918.662 273.65 921.004 274.654C923.346 275.659 925.892 276.101 928.437 275.947C930.581 276.049 932.722 275.684 934.711 274.879C936.7 274.073 938.489 272.847 939.954 271.283C942.852 268.01 944.377 263.752 944.214 259.39L944.167 257.571Z" fill="#444444"/>
<path d="M992.109 234.018V277.346H990.096L961.725 237.142V277.346H959.758V234.018H961.865L989.956 274.221V234.018H992.109Z" fill="#444444"/>
<path d="M1008.35 235.697V254.073H1032.93V255.752H1008.35V275.62H1035.7V277.346H1006.58V234.018H1035.18V235.697H1008.35Z" fill="#444444"/>
<path d="M1050.21 257.152V277.347H1048.34V234.018H1065.75C1069.14 233.799 1072.48 234.865 1075.12 237.003C1076.27 238.095 1077.17 239.425 1077.75 240.899C1078.33 242.373 1078.58 243.957 1078.49 245.538C1078.75 248.011 1078.05 250.49 1076.53 252.467C1075.02 254.444 1072.8 255.769 1070.34 256.172C1071.42 256.36 1072.44 256.767 1073.35 257.369C1074.26 257.971 1075.04 258.755 1075.63 259.67C1076.89 261.973 1077.53 264.558 1077.5 267.179C1077.5 272.962 1078.25 276.507 1079.28 277.067H1077.22C1076.29 276.414 1075.72 273.056 1075.54 266.993C1075.71 264.209 1074.86 261.458 1073.15 259.25C1072.13 258.373 1070.95 257.709 1069.67 257.3C1068.39 256.891 1067.04 256.746 1065.7 256.872L1050.21 257.152ZM1050.21 235.697V255.426H1065.1C1072.73 255.426 1076.57 252.114 1076.57 245.585C1076.66 244.234 1076.46 242.88 1075.97 241.615C1075.49 240.351 1074.73 239.207 1073.76 238.262C1071.44 236.424 1068.52 235.51 1065.56 235.697H1050.21Z" fill="#444444"/>
<path d="M275.427 0.0251465H0V299.267H275.427V0.0251465Z" fill="#509CFF"/>
<path d="M225.941 219.979H220.744V41.4414L151.08 149.46L146.726 146.708L225.941 23.9514V219.979Z" fill="white"/>
<path d="M113.158 275.201C105.806 275.23 98.5284 273.741 91.7838 270.827C85.0391 267.913 78.9741 263.638 73.9717 258.271L77.7171 254.773C84.0889 261.525 92.2708 266.316 101.293 268.576C110.314 270.837 119.798 270.473 128.618 267.528C137.439 264.582 145.227 259.179 151.058 251.958C156.89 244.738 160.521 236.003 161.52 226.789C162.878 214.383 158.945 204.402 152.578 193.255L141.904 177.257C121.725 144.609 105.761 120.543 88.9533 94.8444C78.3257 78.3805 67.3236 61.4502 54.4956 41.4883V220.026H49.3457V23.8584L54.0274 31.3208C68.8686 54.6408 81.2752 73.6232 93.2136 91.9527C109.881 117.651 125.611 141.904 146.024 174.132L156.745 190.783C162.738 201.323 168.028 212.937 166.436 227.488C165.135 239.629 159.727 250.967 151.099 259.638C142.471 268.31 131.138 273.798 118.963 275.201C117.044 275.201 115.077 275.201 113.158 275.201Z" fill="white"/>
</svg>
