<svg width="200" height="200" viewBox="0 0 200 200" fill="none" xmlns="http://www.w3.org/2000/svg">
<path fill-rule="evenodd" clip-rule="evenodd" d="M100 200C44.7715 200 0 155.228 0 100C0 44.7715 44.7715 0 100 0C155.228 0 200 44.7715 200 100C200 155.228 155.228 200 100 200ZM101.393 94.3873C109.581 94.3873 149.393 71.9997 149.393 71.9997L149.457 67.9997C149.457 63.5837 145.873 59.9997 141.445 59.9997H61.3408C56.9168 59.9997 53.3328 63.5837 53.3328 67.9997V71.5637C53.3328 71.5637 93.5807 94.3873 101.393 94.3873ZM53.3968 84.0005C53.3928 84.0005 93.5807 105.388 101.393 105.388C109.957 105.388 149.393 84.0005 149.393 84.0005L149.457 132C149.457 136.416 145.873 140 141.445 140H61.3408C56.9208 140 53.3328 136.416 53.3328 132L53.3968 84.0005Z" fill="white"/>
</svg>
