<svg width="127" height="185" viewBox="0 0 127 185" fill="none" xmlns="http://www.w3.org/2000/svg">
<path d="M123.27 145.988H124.77V144.488V11.3291V6.23816L122.01 10.5158L68.2003 93.9026L67.3793 95.1749L68.6593 95.9839L71.617 97.8531L72.8733 98.6472L73.6789 97.3981L118.24 28.3032V144.488V145.988H119.74H123.27Z" fill="#509CFF" stroke="#509CFF" stroke-width="3"/>
<path d="M8.31053 28.3462C12.9116 35.4923 17.1779 42.0858 21.2661 48.404C23.8893 52.458 26.4391 56.3987 28.9569 60.2993L28.9618 60.3068C30.5458 62.7286 32.1184 65.1287 33.6889 67.5255C43.4429 82.4115 53.1146 97.172 64.9098 116.256L64.9235 116.279L64.938 116.3L72.16 127.124C76.4095 134.572 78.8895 141.005 78.0199 148.951L78.0198 148.952C77.3718 154.925 75.0182 160.587 71.2372 165.269C67.4563 169.95 62.4065 173.454 56.686 175.365C50.9655 177.275 44.8149 177.511 38.9637 176.045C33.1126 174.578 27.8069 171.472 23.6755 167.094L22.6513 166.008L21.5607 167.027L19.0165 169.403L17.9214 170.426L18.9431 171.522C22.4826 175.319 26.7736 178.344 31.545 180.405C36.3152 182.466 41.4621 183.52 46.6611 183.5C46.6624 183.5 46.6637 183.5 46.665 183.5L46.6667 183.5H46.6743H46.682H46.6896H46.6973H46.7049H46.7125H46.7202H46.7278H46.7355H46.7431H46.7508H46.7584H46.7661H46.7737H46.7814H46.789H46.7967H46.8043H46.812H46.8196H46.8273H46.8349H46.8426H46.8503H46.8579H46.8656H46.8732H46.8809H46.8886H46.8962H46.9039H46.9115H46.9192H46.9269H46.9345H46.9422H46.9499H46.9575H46.9652H46.9729H46.9805H46.9882H46.9959H47.0035H47.0112H47.0189H47.0266H47.0342H47.0419H47.0496H47.0572H47.0649H47.0726H47.0803H47.0879H47.0956H47.1033H47.111H47.1187H47.1263H47.134H47.1417H47.1494H47.1571H47.1647H47.1724H47.1801H47.1878H47.1955H47.2032H47.2108H47.2185H47.2262H47.2339H47.2416H47.2493H47.257H47.2646H47.2723H47.28H47.2877H47.2954H47.3031H47.3108H47.3185H47.3262H47.3339H47.3416H47.3493H47.3569H47.3646H47.3723H47.38H47.3877H47.3954H47.4031H47.4108H47.4185H47.4262H47.4339H47.4416H47.4493H47.457H47.4647H47.4724H47.4801H47.4878H47.4955H47.5032H47.5109H47.5186H47.5263H47.534H47.5417H47.5494H47.5572H47.5649H47.5726H47.5803H47.588H47.5957H47.6034H47.6111H47.6188H47.6265H47.6342H47.6419H47.6497H47.6574H47.6651H47.6728H47.6805H47.6882H47.6959H47.7036H47.7113H47.7191H47.7268H47.7345H47.7422H47.7499H47.7576H47.7653H47.7731H47.7808H47.7885H47.7962H47.8039H47.8116H47.8194H47.8271H47.8348H47.8425H47.8502H47.8579H47.8657H47.8734H47.8811H47.8888H47.8965H47.9043H47.912H47.9197H47.9274H47.9352H47.9429H47.9506H47.9583H47.966H47.9738H47.9815H47.9892H47.9969H48.0047H48.0124H48.0201H48.0278H48.0356H48.0433H48.051H48.0587H48.0665H48.0742H48.0819H48.0896H48.0974H48.1051H48.1128H48.1205H48.1283H48.136H48.1437H48.1515H48.1592H48.1669H48.1746H48.1824H48.1901H48.1978H48.2055H48.2133H48.221H48.2287H48.2365H48.2442H48.2519H48.2597H48.2674H48.2751H48.2828H48.2906H48.2983H48.306H48.3138H48.3215H48.3292H48.337H48.3447H48.3524H48.3602H48.3679H48.3756H48.3834H48.3911H48.3988H48.4065H48.4143H48.422H48.4297H48.4375H48.4452H48.4529H48.4607H48.4684H48.4761H48.4839H48.4916H48.4993H48.5071H48.5148H48.5225H48.5303H48.538H48.5457H48.5535H48.5612H48.5689H48.5767H48.5844H48.5921H48.5999H48.6076H48.6153H48.6231H48.6308H48.6385H48.6463H48.654H48.6617H48.6695H48.6772H48.6849H48.6927H48.7004H48.7081H48.7159H48.7236H48.7313H48.7391H48.7468H48.7545H48.7623H48.77H48.7777H48.7855H48.7932H48.8009H48.8087H48.8164H48.8241H48.8319H48.8396H48.8473H48.855H48.8628H48.8705H48.8782H48.886H48.8937H48.9014H48.9092H48.9169H48.9246H48.9324H48.9401H48.9478H48.9556H48.9633H48.971H48.9787H48.9865H48.9942H49.0019H49.0097H49.0174H49.0251H49.0329H49.0406H49.0483H49.056H49.0638H49.0715H49.0792H49.087H49.0947H49.1024H49.1101H49.1179H49.1256H49.1333H49.1411H49.1488H49.1565H49.1642H49.172H49.1797H49.1874H49.1951H49.2029H49.2106H49.2183H49.226H49.2338H49.2415H49.2492H49.2569H49.2647H49.2724H49.2801H49.2878H49.2956H49.3033H49.311H49.3187H49.3264H49.3342H49.3419H49.3496H49.3573H49.365H49.3728H49.3805H49.3882H49.3959H49.4036H49.4114H49.4191H49.4268H49.4345H49.4422H49.45H49.4577H49.4654H49.4731H49.4808H49.4885H49.4963H49.504H49.5117H49.5194H49.5271H49.5348H49.5425H49.5503H49.558H49.5657H49.5734H49.5811H49.5888H49.5965H49.6042H49.6119H49.6197H49.6274H49.6351H49.6428H49.6505H49.6582H49.6659H49.6736H49.6813H49.689H49.6967H49.7044H49.7121H49.7199H49.7276H49.7353H49.743H49.7507H49.7584H49.7661H49.7738H49.7815H49.7892H49.7969H49.8046H49.8123H49.82H49.8277H49.8354H49.8431H49.8508H49.8585H49.8662H49.8739H49.8816H49.8893H49.897H49.9046H49.9123H49.92H49.9277H49.9354H49.9431H49.9508H49.9585H49.9662H49.9739H49.9816H49.9893H49.9969H50.0046H50.0123H50.02H50.0277H50.0354H50.0431H50.0508H50.0584H50.0661H50.0738H50.0815H50.0892H50.0969H50.1045H50.1122H50.1199H50.1276H50.1353H50.1429H50.1506H50.1583H50.166H50.1736H50.1813H50.189H50.1967H50.2043H50.212H50.2197H50.2274H50.235H50.2427H50.2504H50.2581H50.2657H50.2734H50.2811H50.2887H50.2964H50.3041H50.3117H50.3194H50.3271H50.3347H50.3424H50.35H50.3577H50.3654H50.373H50.3807H50.3884H50.396H50.4037H50.4113H50.419H50.4266H50.4343H50.442H50.4496H50.4573H50.4649H50.4726H50.4802H50.4879H50.4955H50.5032H50.5108H50.5185H50.5261H50.5338H50.5414H50.5491H50.5567H50.5643H50.572H50.5796H50.5873H50.5949H50.6026H50.6887L50.7743 183.49C59.3812 182.498 67.3942 178.618 73.4951 172.486C79.5957 166.355 83.4213 158.337 84.3416 149.751C85.4753 139.381 81.6823 131.145 77.5711 123.914L77.5507 123.878L77.5283 123.843L70.2516 112.542C70.2507 112.541 70.2498 112.54 70.2489 112.538C56.4184 90.7019 45.7506 74.2533 34.4647 56.8517L34.3697 56.7053L34.3681 56.7028C33.57 55.4775 32.7689 54.248 31.9635 53.0118C24.5843 41.6863 16.8443 29.8069 7.76057 15.5337L4.58289 10.4687L1.81226 6.05249V11.2659V144.52V146.02H3.31226H6.81053H8.31053V144.52V28.3462Z" fill="#509CFF" stroke="#509CFF" stroke-width="3"/>
</svg>
