<svg xmlns="http://www.w3.org/2000/svg" viewBox="0 0 70.87 102.59"><defs><style>.cls-1{fill:#E37500;}</style></defs><g id="Capa_2" data-name="Capa 2"><g id="Capa_1-2" data-name="Capa 1"><g id="Marca"><polygon class="cls-1" points="70.87 79.98 67.31 79.98 67.31 12.13 41.33 52.56 38.34 50.65 70.87 0.03 70.87 79.98"/><path class="cls-1" d="M25.79,102.59a21.75,21.75,0,0,1-16-6.92l2.59-2.43A18.35,18.35,0,0,0,44,82.67c.51-4.68-1-8.49-3.43-12.76l-4.16-6.48C28.4,50.68,22.21,41.1,15.66,31,11.87,25.09,8,19.07,3.55,12.15V80H0V0L3.27,5.13C9.11,14.26,14,21.77,18.64,29c6.56,10.16,12.75,19.75,20.8,32.5l4.21,6.56c2.45,4.29,4.57,9,3.92,15a22,22,0,0,1-19.43,19.41A23.26,23.26,0,0,1,25.79,102.59Z"/></g></g></g></svg>