<svg width="79" height="80" viewBox="0 0 79 80" fill="none" xmlns="http://www.w3.org/2000/svg">
<circle cx="39.3684" cy="39.8421" r="39.3684" fill="#FFC148"/>
<g clip-path="url(#clip0)">
<path d="M56.0811 40.8607C56.45 40.3136 56.6656 39.655 56.6656 38.947V38.2929C56.6656 36.4006 55.1261 34.8611 53.2339 34.8611C52.2898 34.8611 51.4335 35.2445 50.8124 35.8636C49.2053 31.0841 44.6825 27.6317 39.3684 27.6317C34.0543 27.6317 29.5315 31.084 27.9244 35.8636C27.3033 35.2445 26.4471 34.8611 25.5029 34.8611C23.6107 34.8611 22.0712 36.4006 22.0712 38.2929V38.947C22.0712 39.655 22.2868 40.3136 22.6557 40.8607C20.2802 41.3612 18.4912 43.473 18.4912 45.9952V47.6372C18.4912 48.0875 18.8564 48.4527 19.3067 48.4527H23.5474C23.9977 48.4527 24.3629 48.0875 24.3629 47.6372C24.3629 47.1869 23.9977 46.8217 23.5474 46.8217H20.1222V45.9952C20.1222 44.0011 21.7446 42.3787 23.7388 42.3787H27.5986C27.9116 43.7553 28.4602 45.0435 29.2003 46.1978L19.8954 55.5028C18.7039 56.6943 18.7039 58.6332 19.8954 59.8248C20.4913 60.4206 21.2737 60.7185 22.0564 60.7185C22.839 60.7185 23.6217 60.4206 24.2175 59.8248L29.3474 54.6949C29.6658 54.3765 29.6658 53.8601 29.3474 53.5415C29.0288 53.2232 28.5126 53.2232 28.194 53.5415L23.0642 58.6714C22.5084 59.2271 21.6044 59.2271 21.0487 58.6715C20.4931 58.1158 20.4931 57.2117 21.0487 56.656L30.183 47.5217C32.3985 50.1201 35.6941 51.771 39.3684 51.771C45.1038 51.771 49.9171 47.7497 51.1382 42.3787H54.998C56.9922 42.3787 58.6146 44.0011 58.6146 45.9952V46.8217H50.9487C50.4984 46.8217 50.1332 47.1869 50.1332 47.6372C50.1332 48.0875 50.4984 48.4527 50.9487 48.4527H59.4301C59.8804 48.4527 60.2456 48.0875 60.2456 47.6372V45.9952C60.2456 43.473 58.4566 41.3612 56.0811 40.8607ZM27.3037 38.9471C27.3037 39.94 26.4959 40.7477 25.5029 40.7477C24.51 40.7477 23.7022 39.94 23.7022 38.9471V38.2929C23.7022 37.3 24.51 36.4922 25.5029 36.4922C26.4959 36.4922 27.3037 37.3 27.3037 38.2929V38.9471ZM39.3684 50.1399C33.6126 50.1399 28.9298 45.4572 28.9298 39.7013C28.9298 33.9455 33.6126 29.2627 39.3684 29.2627C45.1242 29.2627 49.807 33.9455 49.807 39.7013C49.807 45.4572 45.1242 50.1399 39.3684 50.1399ZM55.0345 38.9471C55.0345 39.94 54.2268 40.7477 53.2338 40.7477C52.2408 40.7477 51.4331 39.94 51.4331 38.9471V38.2929C51.4331 37.3 52.2408 36.4922 53.2338 36.4922C54.2268 36.4922 55.0345 37.3 55.0345 38.2929V38.9471Z" fill="white"/>
<path d="M39.3684 30.8938C34.5118 30.8938 30.5608 34.8448 30.5608 39.7014C30.5608 42.2221 31.6255 44.4986 33.3285 46.1056C33.3576 46.1371 33.3888 46.1668 33.4231 46.1937C34.991 47.6307 37.079 48.5089 39.3684 48.5089C41.6578 48.5089 43.7457 47.6306 45.3136 46.1937C45.3479 46.1669 45.3791 46.1371 45.4082 46.1056C47.1112 44.4986 48.1759 42.2221 48.1759 39.7014C48.1759 34.8449 44.2249 30.8938 39.3684 30.8938ZM39.3684 46.8779C37.6914 46.8779 36.1472 46.2996 34.924 45.3322C35.7905 43.6927 37.4791 42.6611 39.3684 42.6611C41.2576 42.6611 42.9462 43.6927 43.8127 45.3322C42.5896 46.2996 41.0453 46.8779 39.3684 46.8779ZM37.6498 39.3115V38.678C37.6498 37.7303 38.4207 36.9594 39.3684 36.9594C40.316 36.9594 41.0869 37.7303 41.0869 38.678V39.3115C41.0869 40.2592 40.316 41.0301 39.3684 41.0301C38.4207 41.0301 37.6498 40.2592 37.6498 39.3115ZM45.0056 44.1377C44.2585 42.9456 43.165 42.0366 41.8851 41.5183C42.4029 40.9284 42.7179 40.1563 42.7179 39.3116V38.6781C42.7179 36.8312 41.2153 35.3285 39.3684 35.3285C37.5215 35.3285 36.0188 36.8312 36.0188 38.6781V39.3116C36.0188 40.1563 36.3337 40.9284 36.8516 41.5183C35.5717 42.0367 34.4783 42.9456 33.7311 44.1377C32.7675 42.9159 32.1918 41.3746 32.1918 39.7014C32.1918 35.7442 35.4112 32.5248 39.3684 32.5248C43.3255 32.5248 46.5449 35.7442 46.5449 39.7014C46.5449 41.3746 45.9692 42.9159 45.0056 44.1377Z" fill="white"/>
<path d="M31.5288 51.3603C31.3771 51.2086 31.1667 51.1213 30.9522 51.1213C30.7378 51.1213 30.5274 51.2086 30.3757 51.3603C30.2241 51.512 30.1367 51.7224 30.1367 51.9369C30.1367 52.1513 30.224 52.3617 30.3757 52.5134C30.5274 52.665 30.7378 52.7524 30.9522 52.7524C31.1667 52.7524 31.3771 52.6651 31.5288 52.5134C31.6804 52.3617 31.7677 52.1513 31.7677 51.9369C31.7677 51.7224 31.6805 51.512 31.5288 51.3603Z" fill="white"/>
<path d="M39.385 18.9656C38.9346 18.9656 38.5695 19.3308 38.5695 19.7811V22.5558C38.5695 23.0062 38.9346 23.3713 39.385 23.3713C39.8353 23.3713 40.2005 23.0061 40.2005 22.5558V19.7811C40.2005 19.3308 39.8353 18.9656 39.385 18.9656Z" fill="white"/>
<path d="M39.9612 24.6685C39.8096 24.5168 39.5999 24.4295 39.3847 24.4295C39.1702 24.4295 38.9598 24.5167 38.8082 24.6685C38.6565 24.8202 38.5692 25.0305 38.5692 25.245C38.5692 25.4595 38.6564 25.6699 38.8082 25.8215C38.9598 25.9732 39.1702 26.0605 39.3847 26.0605C39.6 26.0605 39.8096 25.9733 39.9612 25.8215C40.1129 25.6699 40.2002 25.4595 40.2002 25.245C40.2002 25.0305 40.113 24.8201 39.9612 24.6685Z" fill="white"/>
<path d="M46.2986 22.1646C45.9801 21.8462 45.4638 21.8462 45.1452 22.1646L43.7119 23.5979C43.3934 23.9164 43.3934 24.4328 43.7119 24.7513C43.8712 24.9105 44.0798 24.9902 44.2886 24.9902C44.4974 24.9902 44.706 24.9105 44.8653 24.7513L46.2986 23.3179C46.6171 22.9995 46.6171 22.4831 46.2986 22.1646Z" fill="white"/>
<path d="M35.0387 23.6078L33.5916 22.1607C33.273 21.8423 32.7568 21.8423 32.4382 22.1607C32.1197 22.4791 32.1197 22.9955 32.4382 23.314L33.8854 24.7612C34.0447 24.9204 34.2534 25 34.462 25C34.6707 25 34.8794 24.9204 35.0387 24.7612C35.3572 24.4427 35.3572 23.9263 35.0387 23.6078Z" fill="white"/>
</g>
<defs>
<clipPath id="clip0">
<rect width="41.7544" height="41.7544" fill="white" transform="translate(18.4912 18.9648)"/>
</clipPath>
</defs>
</svg>
