<svg width="54" height="51" viewBox="0 0 54 51" fill="none" xmlns="http://www.w3.org/2000/svg">
<path fill-rule="evenodd" clip-rule="evenodd" d="M28.8754 3.15991L34.9693 15.4187C35.2745 16.037 35.8639 16.4685 36.548 16.5685L50.1907 18.5393C50.7433 18.6129 51.2406 18.9024 51.58 19.3444C52.2168 20.1732 52.1194 21.3468 51.3564 22.0598L41.4683 31.6216C40.9658 32.0952 40.7421 32.7898 40.8737 33.4661L43.2417 46.9588C43.4075 48.0771 42.6445 49.1243 41.5262 49.3059C41.0631 49.3769 40.5895 49.3032 40.1685 49.0954L28.0176 42.7252C27.4072 42.3937 26.6757 42.3937 26.0653 42.7252L13.8249 49.1296C12.8014 49.6506 11.549 49.2638 10.9911 48.2613C10.778 47.8561 10.7043 47.3956 10.778 46.9457L13.1461 33.4529C13.2645 32.7793 13.0408 32.0873 12.5514 31.6111L2.61078 22.0519C1.80037 21.2468 1.79511 19.9364 2.60288 19.126C2.60551 19.1234 2.60815 19.1181 2.61078 19.1155C2.94494 18.8129 3.35541 18.6103 3.80008 18.5314L17.4455 16.5606C18.127 16.4527 18.7137 16.0265 19.0242 15.4081L25.1128 3.15991C25.3575 2.66262 25.7916 2.28109 26.3179 2.10743C26.8467 1.93114 27.4256 1.97324 27.9229 2.22321C28.3307 2.42581 28.6649 2.75471 28.8754 3.15991Z" stroke="white" stroke-width="3" stroke-linecap="round" stroke-linejoin="round"/>
</svg>
