<svg width="79" height="79" viewBox="0 0 79 79" fill="none" xmlns="http://www.w3.org/2000/svg">
<circle cx="39.3684" cy="39.5789" r="39.3684" fill="#E37500"/>
<path d="M22.8064 25.2829C21.7959 25.2829 20.9738 26.106 20.9738 27.1178C20.9738 28.1296 21.7959 28.9527 22.8064 28.9527C23.8169 28.9527 24.6389 28.1296 24.6389 27.1178C24.6389 26.106 23.8169 25.2829 22.8064 25.2829ZM22.8064 27.7294C22.4704 27.7294 22.197 27.4551 22.197 27.1178C22.197 26.7805 22.4704 26.5062 22.8064 26.5062C23.1423 26.5062 23.4157 26.7805 23.4157 27.1178C23.4157 27.4551 23.1423 27.7294 22.8064 27.7294Z" fill="white"/>
<path d="M28.097 25.2829C27.0865 25.2829 26.2644 26.106 26.2644 27.1178C26.2644 28.1296 27.0865 28.9527 28.097 28.9527C29.1075 28.9527 29.9296 28.1296 29.9296 27.1178C29.9296 26.106 29.1075 25.2829 28.097 25.2829ZM28.097 27.7294C27.761 27.7294 27.4877 27.4551 27.4877 27.1178C27.4877 26.7805 27.761 26.5062 28.097 26.5062C28.4329 26.5062 28.7063 26.7805 28.7063 27.1178C28.7063 27.4551 28.4329 27.7294 28.097 27.7294Z" fill="white"/>
<path d="M33.2351 25.2829C32.2246 25.2829 31.4025 26.106 31.4025 27.1178C31.4025 28.1296 32.2246 28.9527 33.2351 28.9527C34.2456 28.9527 35.0676 28.1296 35.0676 27.1178C35.0676 26.106 34.2456 25.2829 33.2351 25.2829ZM33.2351 27.7294C32.8991 27.7294 32.6257 27.4551 32.6257 27.1178C32.6257 26.7805 32.8991 26.5062 33.2351 26.5062C33.571 26.5062 33.8444 26.7805 33.8444 27.1178C33.8444 27.4551 33.571 27.7294 33.2351 27.7294Z" fill="white"/>
<path d="M57.6242 27.1178C57.6242 26.106 56.8021 25.2829 55.7916 25.2829H38.6987C37.6882 25.2829 36.8661 26.106 36.8661 27.1178C36.8661 28.1296 37.6882 28.9527 38.6987 28.9527H55.7917C56.8021 28.9527 57.6242 28.1296 57.6242 27.1178ZM55.7917 27.7294H38.6987C38.3627 27.7294 38.0894 27.4551 38.0894 27.1178C38.0894 26.7805 38.3627 26.5062 38.6987 26.5062H55.7917C56.1277 26.5062 56.401 26.7805 56.401 27.1178C56.401 27.4551 56.1277 27.7294 55.7917 27.7294Z" fill="white"/>
<path d="M51.4217 46.3994C51.2275 46.1233 50.846 46.0567 50.5696 46.2511C50.2933 46.4454 50.2269 46.827 50.4213 47.1033L51.9521 49.2794C52.147 49.544 52.0759 49.9478 51.8037 50.1311C51.5378 50.326 51.1353 50.2549 50.9511 49.9828L47.2728 44.7544C47.0821 44.4834 46.7706 44.3217 46.4393 44.3216C46.4392 44.3216 46.4392 44.3216 46.439 44.3216C46.1079 44.3216 45.7964 44.4832 45.6056 44.7539L41.9228 49.9822C41.7371 50.2546 41.3355 50.3263 41.0691 50.1307C40.7934 49.9366 40.7273 49.5542 40.9215 49.2785L45.2783 43.0934C45.5255 42.7425 45.5255 42.2709 45.2787 41.9199L41.593 36.6802C41.399 36.4043 41.4656 36.0219 41.741 35.8281C42.0174 35.6342 42.3997 35.7007 42.5938 35.9762L45.6073 40.2602C45.7978 40.5311 46.1094 40.693 46.4407 40.6931H46.441C46.7723 40.6931 47.0838 40.5315 47.2745 40.2607L50.2926 35.9758C50.4767 35.7033 50.88 35.6334 51.1452 35.8285C51.418 36.0122 51.4879 36.4157 51.293 36.6805L47.6017 41.9213C47.3545 42.2722 47.3544 42.7438 47.6014 43.0948L48.7782 44.7677C48.9726 45.044 49.354 45.1106 49.6304 44.9161C49.9067 44.7217 49.973 44.3402 49.7786 44.0639L48.6844 42.5084L52.293 37.385C52.8778 36.5905 52.6675 35.379 51.8493 34.8282C51.055 34.2436 49.8438 34.4533 49.2925 35.2713L46.4411 39.3194L43.5942 35.2724C43.0124 34.4457 41.866 34.2459 41.0375 34.8273C40.2101 35.4094 40.0104 36.5562 40.5923 37.3838L44.1955 42.5062L39.9215 48.574C39.3387 49.4011 39.5375 50.5479 40.3648 51.131C41.1619 51.7154 42.3661 51.5041 42.922 50.6877L46.4388 45.6951L49.9505 50.6867C50.5031 51.5034 51.7104 51.7155 52.5071 51.1318C53.3255 50.5811 53.5369 49.3696 52.9523 48.5751L51.4217 46.3994Z" fill="white"/>
<path d="M36.5284 34.4935C35.5167 34.4935 34.6935 35.3166 34.6935 36.3284V45.4723C34.6935 46.0968 34.5156 46.8247 33.1962 47.4892C32.7921 47.6927 32.3329 47.7959 31.8264 47.7959C31.273 47.7952 30.7932 47.6601 30.3599 47.3833C29.3274 46.7237 29.1201 46.1668 29.1201 45.4819V41.2263C29.1201 40.8885 28.8463 40.6146 28.5084 40.6146C28.1706 40.6146 27.8968 40.8885 27.8968 41.2263V45.482C27.8968 46.7291 28.4364 47.6061 29.7013 48.4142C30.3369 48.8203 31.0315 49.0182 31.8316 49.0193C32.5258 49.0193 33.1701 48.8721 33.7465 48.5818C35.2069 47.8462 35.9168 46.8292 35.9168 45.4724V36.3284C35.9168 35.9911 36.1911 35.7167 36.5284 35.7167C36.8657 35.7167 37.1401 35.9911 37.1401 36.3284V45.4723C37.1401 47.3104 36.1834 48.7241 34.2966 49.6743C33.5479 50.0513 32.7185 50.2425 31.8316 50.2425H31.8231C30.8041 50.2411 29.8686 49.9728 29.0426 49.445C27.4262 48.4123 26.6733 47.153 26.6733 45.4819V36.3284C26.6733 35.9911 26.9477 35.7167 27.285 35.7167C27.6223 35.7167 27.8966 35.9911 27.8966 36.3284V38.372C27.8966 38.7098 28.1704 38.9836 28.5083 38.9836C28.8461 38.9836 29.1199 38.7098 29.1199 38.372V36.3284C29.1199 35.3166 28.2967 34.4935 27.285 34.4935C26.2733 34.4935 25.4501 35.3166 25.4501 36.3284V45.482C25.4501 47.5519 26.4372 49.2321 28.384 50.4759C29.4093 51.131 30.5659 51.4641 31.8222 51.4658H31.8315C32.9113 51.4658 33.9258 51.2307 34.8468 50.7669C37.7532 49.3031 38.3633 47.0798 38.3633 45.4724V36.3284C38.3633 35.3166 37.5402 34.4935 36.5284 34.4935Z" fill="white"/>
<path d="M57.1874 22.8771H21.5494C19.8631 22.8771 18.4912 24.249 18.4912 25.9353V52.7658C18.4912 54.4521 19.8631 55.824 21.5494 55.824H57.1874C58.8737 55.824 60.2456 54.4521 60.2456 52.7658V25.9353C60.2456 24.249 58.8737 22.8771 57.1874 22.8771ZM57.1874 54.6007H21.5494C20.5377 54.6007 19.7145 53.7776 19.7145 52.7658V31.3993H54.2108C54.5487 31.3993 54.8224 31.1254 54.8224 30.7876C54.8224 30.4498 54.5487 30.176 54.2108 30.176H19.7145V25.9353C19.7145 24.9235 20.5377 24.1004 21.5494 24.1004H57.1874C58.1991 24.1004 59.0223 24.9235 59.0223 25.9353V30.176H57.0651C56.7272 30.176 56.4535 30.4498 56.4535 30.7876C56.4535 31.1254 56.7272 31.3993 57.0651 31.3993H59.0223V52.7658C59.0223 53.7776 58.1991 54.6007 57.1874 54.6007Z" fill="white"/>
</svg>
