<svg width="79" height="79" viewBox="0 0 79 79" fill="none" xmlns="http://www.w3.org/2000/svg">
<circle cx="39.3684" cy="39.3684" r="39.3684" fill="#FFC148"/>
<path d="M34.9655 47.6761C34.8077 47.6761 34.6489 47.6218 34.5192 47.5114L30.0585 43.7131C29.9046 43.5819 29.8162 43.3904 29.8162 43.188C29.8162 42.9861 29.905 42.7945 30.0585 42.6633L34.5192 38.865C34.8089 38.6181 35.244 38.6531 35.4909 38.9427C35.7375 39.2328 35.7029 39.6679 35.4128 39.9144L31.5688 43.188L35.4128 46.4616C35.7029 46.7086 35.7375 47.1437 35.4909 47.4333C35.3544 47.5937 35.1605 47.6761 34.9655 47.6761Z" fill="white"/>
<path d="M43.7715 47.6761C43.5764 47.6761 43.3826 47.5937 43.2464 47.4333C42.9994 47.1437 43.0344 46.7086 43.3241 46.4616L47.1682 43.188L43.3241 39.9144C43.0344 39.6679 42.9994 39.2328 43.2464 38.9427C43.493 38.6531 43.9284 38.6181 44.2177 38.865L48.6784 42.6633C48.8323 42.7945 48.9208 42.9861 48.9208 43.188C48.9208 43.3904 48.8323 43.5819 48.6784 43.7131L44.2177 47.5114C44.0881 47.6218 43.9292 47.6761 43.7715 47.6761Z" fill="white"/>
<path d="M37.7893 50.5251C37.742 50.5251 37.6943 50.5201 37.6462 50.5101C37.2738 50.4316 37.0353 50.0658 37.1138 49.6934L39.8939 36.494C39.9723 36.1216 40.3378 35.8831 40.7105 35.9616C41.0829 36.0401 41.3214 36.4055 41.2429 36.7783L38.4629 49.9777C38.3944 50.3023 38.1082 50.5251 37.7893 50.5251Z" fill="white"/>
<path d="M55.6172 57.7162H23.1196C20.5677 57.7162 18.4912 55.6401 18.4912 53.0877V25.5056C18.4912 22.9537 20.5677 20.8772 23.1196 20.8772H55.6172C58.1691 20.8772 60.2456 22.9537 60.2456 25.5056V53.0877C60.2456 55.6401 58.1691 57.7162 55.6172 57.7162ZM23.1196 22.2559C21.3278 22.2559 19.8699 23.7138 19.8699 25.5056V53.0877C19.8699 54.8796 21.3278 56.3375 23.1196 56.3375H55.6172C57.409 56.3375 58.8669 54.8796 58.8669 53.0877V25.5056C58.8669 23.7138 57.409 22.2559 55.6172 22.2559H23.1196Z" fill="white"/>
<path d="M59.5563 31.9155H19.1806C18.7997 31.9155 18.4912 31.607 18.4912 31.2262C18.4912 30.8458 18.7997 30.5369 19.1806 30.5369H59.5563C59.9371 30.5369 60.2456 30.8458 60.2456 31.2262C60.2456 31.607 59.9371 31.9155 59.5563 31.9155Z" fill="white"/>
<path d="M30.2693 28.6169C29.0668 28.6169 28.0878 27.6379 28.0878 26.4354C28.0878 25.2325 29.0668 24.2539 30.2693 24.2539C31.4722 24.2539 32.4508 25.2325 32.4508 26.4354C32.4508 27.6379 31.4722 28.6169 30.2693 28.6169ZM30.2693 25.6326C29.8269 25.6326 29.4665 25.9926 29.4665 26.4354C29.4665 26.8782 29.8269 27.2382 30.2693 27.2382C30.712 27.2382 31.0721 26.8782 31.0721 26.4354C31.0721 25.9926 30.712 25.6326 30.2693 25.6326Z" fill="white"/>
<path d="M23.5666 28.5958C22.3638 28.5958 21.3851 27.6172 21.3851 26.4143C21.3851 25.2114 22.3638 24.2328 23.5666 24.2328C24.7695 24.2328 25.7481 25.2114 25.7481 26.4143C25.7481 27.6172 24.7695 28.5958 23.5666 28.5958ZM23.5666 25.6115C23.1243 25.6115 22.7638 25.9719 22.7638 26.4143C22.7638 26.8571 23.1243 27.2171 23.5666 27.2171C24.0094 27.2171 24.3695 26.8571 24.3695 26.4143C24.3695 25.9719 24.0094 25.6115 23.5666 25.6115Z" fill="white"/>
<path d="M36.9719 28.6376C35.7694 28.6376 34.7908 27.659 34.7908 26.4561C34.7908 25.2536 35.7694 24.275 36.9719 24.275C38.1748 24.275 39.1534 25.2536 39.1534 26.4561C39.1534 27.659 38.1748 28.6376 36.9719 28.6376ZM36.9719 25.6533C36.5295 25.6533 36.1695 26.0134 36.1695 26.4561C36.1695 26.8989 36.5295 27.259 36.9719 27.259C37.4147 27.259 37.7747 26.8989 37.7747 26.4561C37.7747 26.0134 37.4147 25.6533 36.9719 25.6533Z" fill="white"/>
</svg>
