<svg width="201" height="200" viewBox="0 0 201 200" fill="none" xmlns="http://www.w3.org/2000/svg">
<path fill-rule="evenodd" clip-rule="evenodd" d="M100.617 200C155.846 200 200.617 155.228 200.617 100C200.617 44.7715 155.846 0 100.617 0C45.3887 0 0.617188 44.7715 0.617188 100C0.617188 155.228 45.3887 200 100.617 200ZM70.0386 86.6391L57.1188 64.2404C62.3291 57.8733 68.8902 52.7447 76.327 49.226C83.7637 45.7073 91.89 43.8866 100.117 43.8958C108.891 43.8893 117.542 45.9621 125.361 49.9441C133.179 53.9262 139.943 59.7042 145.098 66.8048L100.13 66.7917H100.117C93.711 66.7916 87.4458 68.6723 82.0988 72.2006C76.7518 75.7288 72.5583 80.7493 70.0386 86.6391ZM152.165 79.8881H152.169L152.163 79.8816C152.163 79.8837 152.164 79.8859 152.165 79.8881ZM152.165 79.8881L126.284 79.875C130.385 85.3373 132.819 92.1341 132.819 99.4935C132.819 105.446 131.223 111.04 128.436 115.861V115.867L105.979 154.79C114.429 153.895 122.561 151.076 129.752 146.549C136.943 142.022 143.001 135.907 147.46 128.674C151.919 121.441 154.662 113.282 155.477 104.824C156.292 96.3679 155.159 87.8379 152.165 79.8881ZM104.042 131.973L91.1159 154.385V154.378C82.7236 153.001 74.7589 149.718 67.8339 144.781C60.909 139.844 55.2083 133.385 51.17 125.901C47.1317 118.416 44.8635 110.105 44.5395 101.607C44.2156 93.1086 45.8447 84.6492 49.3015 76.8789L71.7394 115.782L71.7918 115.874C74.998 121.423 79.7642 125.907 85.4981 128.769C91.2319 131.631 97.6804 132.745 104.042 131.973ZM90.304 116.497C87.3204 114.775 84.8433 112.297 83.1219 109.313L83.1154 109.319L83.0827 109.254C81.3732 106.269 80.4782 102.887 80.4874 99.4478C80.4965 96.0083 81.4095 92.6316 83.1348 89.656C84.8601 86.6804 87.3371 84.2106 90.3177 82.4939C93.2982 80.7773 96.6776 79.8742 100.117 79.875H100.13C105.333 79.8785 110.321 81.9476 113.999 85.6277C117.676 89.3077 119.742 94.2974 119.742 99.5C119.744 102.078 119.237 104.63 118.252 107.012C117.266 109.394 115.821 111.558 113.998 113.381C112.175 115.204 110.011 116.649 107.629 117.635C105.248 118.62 102.695 119.127 100.117 119.125C96.6721 119.126 93.2875 118.22 90.304 116.497ZM68.4616 38.5345C58.6828 43.6129 50.2709 50.9716 43.9374 59.9883L43.9308 59.9818C36.0546 71.155 31.4297 84.8009 31.4297 99.5C31.4297 135.388 58.9505 164.851 94.0465 167.926C96.0483 168.096 98.0762 168.188 100.117 168.188C138.052 168.188 168.805 137.435 168.805 99.5C168.805 89.1838 166.528 79.3844 162.44 70.5858C151.535 47.1143 127.736 30.8125 100.117 30.8125C89.0984 30.8074 78.2404 33.4561 68.4616 38.5345Z" fill="#FFC148"/>
</svg>
