<svg width="200" height="200" viewBox="0 0 200 200" fill="none" xmlns="http://www.w3.org/2000/svg">
<path fill-rule="evenodd" clip-rule="evenodd" d="M100 200C155.228 200 200 155.228 200 100C200 44.7715 155.228 0 100 0C44.7715 0 0 44.7715 0 100C0 155.228 44.7715 200 100 200ZM69.4214 86.6391L56.5016 64.2404C61.7119 57.8734 68.273 52.7447 75.7098 49.226C83.1465 45.7073 91.2728 43.8867 99.5 43.8958C108.274 43.8893 116.925 45.962 124.744 49.9441C132.562 53.9261 139.326 59.7042 144.48 66.8047L99.5131 66.7917H99.5C93.0938 66.7916 86.8286 68.6723 81.4816 72.2006C76.1346 75.7288 71.9411 80.7493 69.4214 86.6391ZM151.548 79.8881H151.552L151.545 79.8815C151.546 79.8837 151.547 79.8859 151.548 79.8881ZM151.548 79.8881L125.667 79.875C129.768 85.3373 132.202 92.1341 132.202 99.4935C132.202 105.446 130.606 111.039 127.819 115.861V115.867L105.361 154.79C113.811 153.896 121.944 151.076 129.135 146.549C136.326 142.022 142.383 135.907 146.843 128.674C151.302 121.441 154.045 113.282 154.86 104.824C155.675 96.3679 154.542 87.8379 151.548 79.8881ZM103.425 131.973L90.4987 154.385V154.378C82.1064 153.001 74.1417 149.718 67.2167 144.781C60.2918 139.844 54.5911 133.385 50.5528 125.901C46.5145 118.416 44.2463 110.105 43.9224 101.607C43.5984 93.1086 45.2275 84.6492 48.6843 76.8789L71.1223 115.782L71.1746 115.874C74.3809 121.423 79.147 125.907 84.8809 128.769C90.6147 131.631 97.0632 132.745 103.425 131.973ZM89.6868 116.497C86.7032 114.775 84.2261 112.297 82.5048 109.312L82.4982 109.319L82.4655 109.254C80.756 106.269 79.861 102.887 79.8702 99.4479C79.8793 96.0083 80.7923 92.6315 82.5176 89.656C84.2429 86.6804 86.7199 84.2106 89.7005 82.494C92.681 80.7773 96.0604 79.8741 99.5 79.875H99.5131C104.716 79.8785 109.704 81.9476 113.382 85.6277C117.059 89.3077 119.125 94.2974 119.125 99.5C119.127 102.078 118.62 104.63 117.635 107.012C116.649 109.394 115.203 111.558 113.381 113.381C111.558 115.203 109.394 116.649 107.012 117.635C104.63 118.62 102.078 119.127 99.5 119.125C96.0549 119.126 92.6703 118.22 89.6868 116.497ZM67.8444 38.5345C58.0656 43.6129 49.6537 50.9716 43.3202 59.9883L43.3136 59.9818C35.4374 71.155 30.8125 84.8009 30.8125 99.5C30.8125 135.388 58.3333 164.851 93.4293 167.926C95.4311 168.096 97.459 168.188 99.5 168.188C137.435 168.188 168.188 137.435 168.188 99.5C168.188 89.1838 165.911 79.3844 161.822 70.5858C150.917 47.1143 127.119 30.8125 99.5 30.8125C88.4811 30.8074 77.6232 33.4561 67.8444 38.5345Z" fill="white"/>
</svg>
