<svg width="186" height="186" viewBox="0 0 186 186" fill="none" xmlns="http://www.w3.org/2000/svg">
<path fill-rule="evenodd" clip-rule="evenodd" d="M92.9023 0.8125C41.9347 0.8125 0.617188 42.13 0.617188 93.0977C0.617188 144.065 41.9347 185.383 92.9023 185.383C143.87 185.383 185.188 144.065 185.188 93.0977C185.188 42.13 143.87 0.8125 92.9023 0.8125ZM85.5784 111.609C86.4377 114.073 87.3544 116.594 88.3284 119.172H97.4377C95.1461 112.87 92.9976 107.055 90.9924 101.727C88.9872 96.3411 87.0107 91.2422 85.0628 86.4297C83.1721 81.6172 81.2815 77.0339 79.3909 72.6797C77.5003 68.2682 75.5237 63.9141 73.4612 59.6172H65.8127C63.7502 63.9141 61.7737 68.2682 59.8831 72.6797C57.9924 77.0339 56.0732 81.6172 54.1252 86.4297C52.2346 91.2422 50.2867 96.3411 48.2815 101.727C46.2763 107.055 44.1278 112.87 41.8362 119.172H50.5159L55.9299 103.961H82.9143C83.831 106.539 84.719 109.089 85.5784 111.609ZM75.0081 82.6484C76.8414 87.2891 78.6747 92.1016 80.5081 97.0859H58.3362C60.1122 92.1016 61.8883 87.2891 63.6643 82.6484C65.4976 77.9505 67.4169 73.4531 69.4221 69.1562C71.37 73.4531 73.232 77.9505 75.0081 82.6484ZM103.143 86.6016C101.997 89.5234 101.424 92.9609 101.424 96.9141C101.424 100.294 101.854 103.417 102.714 106.281C103.63 109.089 105.005 111.523 106.838 113.586C108.672 115.648 110.992 117.281 113.799 118.484C116.664 119.63 120.044 120.203 123.94 120.203C127.034 120.203 129.784 119.917 132.19 119.344C134.654 118.771 136.372 118.227 137.346 117.711L136.229 111.008C135.255 111.466 133.794 111.953 131.846 112.469C129.956 112.927 127.607 113.156 124.799 113.156C119.815 113.156 116.148 111.953 113.799 109.547C111.45 107.141 110.104 103.617 109.76 98.9766H140.354C140.411 98.5182 140.44 98.0312 140.44 97.5156V96.1406C140.44 88.4635 138.836 82.763 135.628 79.0391C132.419 75.2578 127.807 73.3672 121.792 73.3672C119.214 73.3672 116.693 73.8542 114.229 74.8281C111.766 75.8021 109.589 77.263 107.698 79.2109C105.807 81.1588 104.289 83.6224 103.143 86.6016ZM129.354 83.6797C131.245 85.9714 132.161 88.9219 132.104 92.5312H109.932C110.104 90.9844 110.448 89.4661 110.964 87.9766C111.536 86.487 112.31 85.1693 113.284 84.0234C114.258 82.8776 115.432 81.9609 116.807 81.2734C118.24 80.5286 119.872 80.1562 121.706 80.1562C124.971 80.1562 127.521 81.3307 129.354 83.6797Z" fill="white"/>
</svg>
