<svg width="200" height="200" viewBox="0 0 200 200" fill="none" xmlns="http://www.w3.org/2000/svg">
<path fill-rule="evenodd" clip-rule="evenodd" d="M200 100C200 155.228 155.228 200 100 200C44.7715 200 0 155.228 0 100C0 44.7715 44.7715 0 100 0C155.228 0 200 44.7715 200 100ZM100 151.444C98.1565 153.225 96.3039 154.882 94.4545 156.401C92.1327 158.308 89.8581 159.959 87.6445 161.349C78.3394 167.193 70.1075 168.435 64 164.787C56.4395 160.271 53.5244 149.093 55.7914 133.308C55.8039 133.221 55.8165 133.134 55.8293 133.048L55.8601 132.84C56.1972 130.572 56.637 128.244 57.1695 125.864L57.1694 125.864C54.7531 125.1 52.4428 124.27 50.2473 123.374C35.9033 117.513 28 109.311 28 100.28C28 91.2487 35.9033 83.0473 50.247 77.1894C52.4412 76.2941 54.7532 75.4611 57.1679 74.7003L57.1676 74.6988C56.8846 73.4302 56.6284 72.177 56.3995 70.9402C56.1982 69.8568 56.0186 68.7857 55.8613 67.7281C55.8375 67.5691 55.8142 67.4103 55.7914 67.2519C53.5258 51.47 56.4397 40.2885 63.9999 35.7728C70.0245 32.1744 78.1173 33.3359 87.2669 38.977C87.4463 39.0876 87.6261 39.2 87.8063 39.314C89.969 40.6825 92.1894 42.2986 94.4542 44.1588C96.094 45.5054 97.736 46.96 99.3719 48.5164C99.5804 48.7145 99.7888 48.9142 99.9971 49.1156L99.9983 49.1144C101.846 47.3318 103.696 45.6771 105.544 44.158C117.623 34.2373 128.44 31.2572 136 35.7728C139.78 38.0306 142.399 41.9549 143.789 47.2873C143.962 47.9538 144.117 48.6423 144.252 49.3524C145.199 54.3225 145.199 60.3463 144.209 67.2521C143.889 69.4708 143.475 71.7503 142.965 74.0786C142.921 74.2851 142.875 74.492 142.828 74.6992C145.244 75.4636 147.557 76.2937 149.753 77.1894C164.1 83.0473 172 91.2487 172 100.28C172 109.312 164.1 117.513 149.753 123.374C147.557 124.27 145.244 125.1 142.831 125.861C143.4 128.405 143.86 130.892 144.208 133.308C144.677 136.576 144.924 139.647 144.954 142.502C144.957 142.846 144.958 143.187 144.955 143.525C144.873 153.921 141.806 161.319 136 164.787C128.439 169.303 117.624 166.325 105.544 156.402C103.696 154.883 101.845 153.226 100.001 151.444L100 151.444ZM134.252 100.28C137.038 106.658 139.336 112.967 141.08 119.038C143.23 118.355 145.289 117.609 147.248 116.811C153.065 114.433 157.777 111.598 160.872 108.606C163.73 105.847 165.181 103.046 165.181 100.281C165.181 97.5146 163.73 94.7141 160.872 91.9541C157.777 88.9624 153.065 86.1274 147.248 83.7497C145.289 82.9511 143.23 82.2055 141.08 81.5226C139.337 87.5932 137.038 93.9048 134.253 100.279L134.252 100.28ZM126.908 115.15C128.096 112.996 129.231 110.833 130.315 108.667C130.585 109.351 130.848 110.033 131.105 110.713C132.407 114.164 133.543 117.566 134.5 120.887C130.598 121.848 126.472 122.638 122.176 123.248L122.177 123.248C123.405 121.266 124.605 119.241 125.776 117.176C125.987 116.803 126.197 116.429 126.407 116.054C126.575 115.753 126.742 115.451 126.908 115.15ZM104.839 146.466C109.048 141.868 113.183 136.652 117.125 130.967C123.856 130.278 130.29 129.182 136.242 127.707C136.367 128.27 136.486 128.83 136.599 129.387C136.743 130.095 136.877 130.799 137.001 131.496C137.144 132.292 137.273 133.081 137.39 133.862L137.42 134.059C137.434 134.154 137.448 134.249 137.461 134.345C137.498 134.596 137.532 134.847 137.566 135.097C138.377 141.187 138.325 146.553 137.405 150.654C136.864 153.074 136.045 155.027 134.956 156.493C134.273 157.414 133.483 158.143 132.59 158.676C131.278 159.461 129.723 159.833 127.941 159.793C127.758 159.789 127.573 159.781 127.385 159.768C126.176 159.686 124.868 159.423 123.466 158.98C122.277 158.606 121.031 158.1 119.739 157.471C117.727 156.491 115.605 155.211 113.42 153.66C112.224 152.812 111.01 151.882 109.785 150.875C108.952 150.191 108.118 149.476 107.283 148.731C107.086 148.556 106.889 148.378 106.692 148.199C106.074 147.637 105.456 147.059 104.839 146.466ZM84.1302 67.8074C83.7087 68.3981 83.2893 68.9942 82.8719 69.5957L82.8717 69.596L82.8716 69.596C76.1403 70.2852 69.7117 71.3816 63.7584 72.8539C63.2556 70.5859 62.847 68.368 62.5381 66.216C61.669 60.1729 61.6394 54.8084 62.4418 50.6343C62.4894 50.3874 62.5399 50.1445 62.5934 49.906C62.7369 49.2641 62.9 48.6552 63.0825 48.0795L63.113 47.9843C64.0526 45.0766 65.4947 43.0287 67.4101 41.8848C68.594 41.1789 69.9734 40.8044 71.5379 40.7665C72.4512 40.7448 73.4277 40.837 74.4651 41.0431C75.13 41.1754 75.8198 41.3547 76.5335 41.5808C80.5851 42.8589 85.3149 45.6627 90.2142 49.6851C91.8608 51.0379 93.5134 52.5097 95.1603 54.0974C91.3944 58.2073 87.693 62.8124 84.1302 67.8074ZM100.001 131.826C102.74 131.826 105.455 131.763 108.137 131.635C105.478 135.177 102.755 138.479 99.9996 141.494C97.2441 138.479 94.521 135.177 91.8624 131.635C94.5442 131.763 97.2623 131.826 100.001 131.826ZM100.001 124.771C104.545 124.771 109.015 124.59 113.365 124.23C114.749 122.153 116.104 120.014 117.428 117.821C118.088 116.727 118.74 115.619 119.384 114.499C119.759 113.846 120.132 113.188 120.501 112.526C122.394 109.134 124.157 105.723 125.778 102.322C126.102 101.642 126.42 100.962 126.732 100.283C125.368 97.3147 123.893 94.3363 122.315 91.365C121.725 90.2538 121.12 89.1435 120.501 88.0351C118.434 84.3315 116.269 80.7551 114.034 77.3389C113.813 77.0015 113.591 76.6656 113.369 76.3313C109.018 75.971 104.546 75.7893 100.001 75.7893C95.4562 75.7893 90.9839 75.971 86.6327 76.328C85.8167 77.5545 85.01 78.8024 84.2137 80.0703C83.1733 81.7271 82.1507 83.4179 81.1483 85.1395C80.592 86.0951 80.042 87.0603 79.4987 88.0345C78.7109 89.4455 77.9459 90.8594 77.2046 92.2744C75.8065 94.9435 74.4922 97.6169 73.2676 100.282C74.0554 101.995 74.8801 103.712 75.7403 105.429C76.5055 106.956 77.2985 108.483 78.1184 110.008C78.5702 110.848 79.0303 111.687 79.4984 112.525C79.8365 113.132 80.1773 113.735 80.5205 114.334C82.4837 117.76 84.5278 121.068 86.6364 124.233C90.9864 124.59 95.4574 124.771 100.001 124.771ZM62.4311 149.866C61.6403 145.701 61.6735 140.358 62.5387 134.344C62.7933 132.571 63.1155 130.753 63.5005 128.899C63.583 128.503 63.6685 128.106 63.7571 127.707C69.7097 129.182 76.1404 130.275 82.8741 130.967C86.8162 136.653 90.9506 141.869 95.1617 146.464C93.631 147.937 92.0943 149.313 90.5615 150.589C90.446 150.685 90.3305 150.78 90.2151 150.875C87.7652 152.888 85.3576 154.594 83.0561 155.958C82.3191 156.394 81.5928 156.796 80.8796 157.161C79.3661 157.936 77.9109 158.546 76.5339 158.98C75.1352 159.421 73.8303 159.684 72.6235 159.767C70.6037 159.905 68.8589 159.542 67.4108 158.675C65.538 157.557 64.1176 155.574 63.1771 152.769C62.9562 152.109 62.7617 151.404 62.594 150.654C62.5363 150.396 62.482 150.134 62.4311 149.866ZM130.654 91.027C130.543 91.3157 130.43 91.6046 130.316 91.8939C129.241 89.7489 128.115 87.6014 126.938 85.464C126.762 85.1453 126.586 84.8268 126.408 84.5085C126.187 84.1125 125.965 83.7178 125.742 83.3245C124.582 81.2797 123.393 79.2749 122.177 77.3121C126.472 77.923 130.598 78.7121 134.501 79.6735C133.434 83.3729 132.146 87.1713 130.654 91.027ZM137.548 50.586C138.36 54.7669 138.334 60.1493 137.461 66.2157C137.152 68.3677 136.744 70.5856 136.241 72.8536L136.241 72.8539C130.288 71.3816 123.857 70.2852 117.125 69.596C113.183 63.9102 109.05 58.6945 104.838 54.0955L104.837 54.0954C106.488 52.5104 108.138 51.0381 109.785 49.6848C114.685 45.6627 119.415 42.8589 123.466 41.5805C124.12 41.3732 124.754 41.2053 125.368 41.0768C126.499 40.8402 127.559 40.7375 128.545 40.7685C130.075 40.8175 131.429 41.1912 132.589 41.8845C134.181 42.8341 135.445 44.4067 136.365 46.577C136.449 46.7744 136.53 46.9767 136.608 47.1839C136.919 48.0128 137.186 48.9205 137.406 49.9057C137.456 50.1287 137.503 50.3555 137.548 50.586ZM91.8606 68.9271L91.8595 68.9284C94.5442 68.7999 97.2624 68.7343 100.001 68.7343C102.74 68.7343 105.458 68.8002 108.14 68.9284L108.139 68.9274C105.651 65.6124 103.107 62.5083 100.532 59.6526C100.355 59.4559 100.177 59.2604 99.9994 59.0661C97.2434 62.0816 94.5197 65.3839 91.8606 68.9271ZM65.4988 79.6733C69.4005 78.712 73.5261 77.9229 77.821 77.3121C76.3728 79.6507 74.9615 82.0545 73.5919 84.5085C72.2222 86.9627 70.917 89.4268 69.6833 91.8938C68.0472 87.7404 66.6449 83.6496 65.4988 79.6733ZM58.9192 81.5222C60.6607 87.5929 62.9609 93.901 65.7483 100.28C62.9599 106.655 60.6606 112.967 58.9191 119.038C56.7692 118.355 54.7104 117.61 52.7512 116.811C46.9344 114.433 42.2226 111.598 39.1279 108.607C36.2693 105.847 34.8189 103.046 34.8189 100.28C34.8189 97.5143 36.2693 94.7135 39.1279 91.9538C42.2226 88.9621 46.9341 86.1271 52.7512 83.7494C54.7101 82.9508 56.7693 82.2052 58.9192 81.5222ZM69.6836 108.667C68.0474 112.82 66.6452 116.911 65.4991 120.887C69.4008 121.849 73.5264 122.638 77.8213 123.248C76.373 120.91 74.963 118.508 73.5933 116.054C72.2238 113.6 70.9172 111.134 69.6836 108.667Z" fill="white"/>
</svg>
