<svg width="186" height="186" viewBox="0 0 186 186" fill="none" xmlns="http://www.w3.org/2000/svg">
<path fill-rule="evenodd" clip-rule="evenodd" d="M92.9023 0.8125C41.9347 0.8125 0.617188 42.13 0.617188 93.0977C0.617188 144.065 41.9347 185.383 92.9023 185.383C143.87 185.383 185.188 144.065 185.188 93.0977C185.188 42.13 143.87 0.8125 92.9023 0.8125ZM125.685 81.6172C127.519 82.362 128.922 83.1354 129.896 83.9375V112.211C129.094 112.44 127.948 112.669 126.459 112.898C125.027 113.07 123.222 113.156 121.045 113.156C116.748 113.156 113.31 111.753 110.732 108.945C108.154 106.081 106.865 102.042 106.865 96.8281C106.865 94.5364 107.094 92.388 107.553 90.3828C108.011 88.3776 108.756 86.6588 109.787 85.2265C110.818 83.737 112.136 82.5911 113.74 81.789C115.402 80.9297 117.378 80.5 119.67 80.5C121.847 80.5 123.852 80.8724 125.685 81.6172ZM137.889 52.4844L129.896 53.8594V76.4609C128.922 75.8307 127.433 75.1719 125.428 74.4844C123.48 73.7969 121.217 73.4531 118.639 73.4531C115.43 73.4531 112.566 74.026 110.045 75.1719C107.581 76.3177 105.49 77.9219 103.771 79.9844C102.053 82.0469 100.735 84.5104 99.8182 87.375C98.9589 90.2396 98.5292 93.3906 98.5292 96.8281C98.5292 100.437 99.0448 103.703 100.076 106.625C101.165 109.49 102.683 111.924 104.631 113.93C106.579 115.935 108.928 117.482 111.678 118.57C114.428 119.659 117.521 120.203 120.959 120.203C124.683 120.203 127.977 119.945 130.842 119.43C133.706 118.914 136.055 118.398 137.889 117.883V52.4844ZM81.4894 113.5C82.6925 115.562 83.7238 117.453 84.5831 119.172H93.9503C91.3149 114.073 88.2784 108.888 84.8409 103.617C81.4034 98.3463 77.7368 92.9323 73.8409 87.375L92.5753 59.6172H83.0363L68.5128 81.789L53.8175 59.6172H44.1925L63.2706 87.7187C59.4321 93.2187 55.7941 98.5755 52.3566 103.789C48.9764 109.003 45.9972 114.13 43.4191 119.172H52.6144C53.4738 117.453 54.505 115.562 55.7081 113.5C56.9685 111.38 58.2863 109.203 59.6613 106.969C61.0935 104.677 62.5831 102.414 64.13 100.18C65.6769 97.888 67.1665 95.7395 68.5988 93.7343C70.0311 95.7395 71.5206 97.888 73.0675 100.18C74.6144 102.414 76.104 104.677 77.5363 106.969C78.9686 109.203 80.2863 111.38 81.4894 113.5Z" fill="white"/>
</svg>
