<svg width="200" height="200" viewBox="0 0 200 200" fill="none" xmlns="http://www.w3.org/2000/svg">
<path fill-rule="evenodd" clip-rule="evenodd" d="M100 0C44.7717 0 0 44.7717 0 100C0 155.228 44.7717 200 100 200C155.228 200 200 155.228 200 100C200 44.7717 155.228 0 100 0ZM99.9997 139.999C99.9997 151.045 91.0454 159.999 79.9997 159.999C68.954 159.999 59.9997 151.045 59.9997 139.999C59.9997 129.007 68.8669 120.087 79.8384 120L79.932 120.001L79.9997 120.001H99.9997V139.999ZM79.8384 120C68.8669 119.913 59.9997 110.993 59.9997 100.001C59.9997 88.9549 68.954 80.0006 79.9997 80.0006H99.9997V119.999H79.9997C79.9459 119.999 79.8921 120 79.8384 120ZM79.9997 80.0003C68.954 80.0003 59.9997 71.046 59.9997 60.0003C59.9997 48.9546 68.954 40.0003 79.9997 40.0003H99.9997V80.0003H79.9997ZM100 80.0003H120C131.046 80.0003 140 71.046 140 60.0003C140 48.9546 131.046 40.0003 120 40.0003H100V80.0003ZM120 80.0006C131.046 80.0006 140 88.9549 140 100.001C140 111.046 131.046 120.001 120 120.001C108.954 120.001 100 111.046 100 100.001C100 88.9549 108.954 80.0006 120 80.0006Z" fill="white"/>
</svg>
