<svg width="201" height="200" viewBox="0 0 201 200" fill="none" xmlns="http://www.w3.org/2000/svg">
<path fill-rule="evenodd" clip-rule="evenodd" d="M0.366013 102.459C0.366013 46.2848 45.1451 0.750549 100.367 0.750549C155.594 0.750549 200.366 46.2848 200.366 102.459C200.366 147.381 171.749 185.493 132.037 198.957C126.968 199.956 125.168 196.785 125.168 194.078C125.168 192.966 125.181 191.018 125.198 188.415C125.232 183.168 125.284 175.26 125.284 166.166C125.284 156.677 122.088 150.487 118.501 147.331C140.769 144.813 164.163 136.211 164.163 97.1464C164.163 86.042 160.283 76.9688 153.871 69.8461C154.91 67.2826 158.334 56.9395 152.891 42.9297C152.891 42.9297 144.505 40.1962 125.418 53.3554C117.427 51.1018 108.865 49.9717 100.367 49.9329C91.8684 49.9717 83.3136 51.1018 75.3368 53.3554C56.2269 40.1962 47.8295 42.9297 47.8295 42.9297C42.3995 56.9395 45.8224 67.2826 46.8607 69.8461C40.4637 76.9688 36.5573 86.042 36.5573 97.1464C36.5573 136.119 59.9065 144.84 82.118 147.412C79.2582 149.95 76.6666 154.44 75.769 161.012C70.0626 163.611 55.5877 168.106 46.6686 152.557C46.6686 152.557 41.3811 142.792 31.3393 142.076C31.3393 142.076 21.5823 141.946 30.6554 148.259C30.6554 148.259 37.2097 151.385 41.7587 163.141C41.7587 163.141 47.6291 181.294 75.4494 175.142C75.4728 179.756 75.5108 184.228 75.5407 187.739L75.5408 187.746L75.5408 187.749L75.5408 187.751L75.541 187.769L75.541 187.778C75.566 190.714 75.5852 192.974 75.5852 194.078C75.5852 196.764 73.7504 199.912 68.7527 198.971C29.0193 185.522 0.366013 147.397 0.366013 102.459ZM36.5275 147.092C37.2396 147.439 38.0212 147.289 38.2414 146.782C38.4931 146.275 38.0792 145.58 37.3522 145.246C36.6285 144.901 35.8452 145.044 35.63 145.564C35.3948 146.071 35.8022 146.76 36.5275 147.092ZM42.2916 151.376C41.8146 151.826 40.8823 151.617 40.2497 150.906C39.5956 150.197 39.4731 149.249 39.9566 148.792C40.4485 148.343 41.3526 148.553 42.0084 149.262C42.6625 149.98 42.79 150.921 42.2916 151.376ZM44.0011 156.357C44.6204 157.261 45.6223 157.667 46.235 157.234C46.8609 156.791 46.8609 155.705 46.2499 154.787C45.6223 153.889 44.6353 153.499 44.0143 153.933C43.3884 154.368 43.3884 155.452 44.0011 156.357ZM51.636 162.893C51.0878 163.508 49.9204 163.343 49.0659 162.504C48.1916 161.684 47.9481 160.52 48.4979 159.905C49.0527 159.289 50.2267 159.462 51.0878 160.294C51.9556 161.113 52.2205 162.285 51.636 162.893ZM56.589 167C57.7217 167.339 58.8461 166.977 59.0878 166.18C59.323 165.37 58.5811 164.444 57.4517 164.097C56.3108 163.735 55.1814 164.112 54.9463 164.914C54.7177 165.719 55.458 166.652 56.589 167ZM67.2717 166.789C67.2999 167.628 66.3394 168.323 65.1504 168.337C63.9548 168.365 62.9877 167.686 62.9744 166.861C62.9744 166.014 63.9134 165.325 65.109 165.305C66.298 165.281 67.2717 165.955 67.2717 166.789ZM73.0231 167.352C74.2038 167.129 75.0302 166.289 74.8877 165.47C74.737 164.638 73.6789 164.147 72.4965 164.355C71.3373 164.573 70.4961 165.413 70.6402 166.252C70.7876 167.064 71.8623 167.569 73.0231 167.352Z" fill="#FFC148"/>
</svg>
