<svg width="164" height="164" viewBox="0 0 164 164" fill="none" xmlns="http://www.w3.org/2000/svg">
<circle cx="82" cy="82" r="82" fill="#E37500"/>
<path fill-rule="evenodd" clip-rule="evenodd" d="M58.2903 63.2435C59.1228 61.8652 63.7092 56.852 66.9821 57.0034C67.9605 57.0844 68.8254 57.6763 69.5281 58.3627C71.1416 59.9383 75.7604 65.8974 76.0226 67.1514C76.6604 70.2269 72.9956 71.9997 74.1172 75.0995C76.9766 82.0964 81.9036 87.0231 88.9035 89.8797C92.0008 91.0013 93.7738 87.3366 96.8494 87.9771C98.1007 88.2393 104.063 92.8579 105.639 94.4713C106.322 95.1713 106.917 96.0388 106.998 97.0171C107.12 100.463 101.795 105.114 100.757 105.708C98.3089 107.46 95.1143 107.43 91.2197 105.619C80.3523 101.098 62.9849 84.0585 58.3795 72.7808C56.6174 68.908 56.4958 65.692 58.2903 63.2435Z" stroke="white" stroke-width="3" stroke-linecap="round" stroke-linejoin="round"/>
</svg>
