<svg width="164" height="164" viewBox="0 0 164 164" fill="none" xmlns="http://www.w3.org/2000/svg">
<circle cx="82" cy="82" r="82" fill="#E37500"/>
<path fill-rule="evenodd" clip-rule="evenodd" d="M83.8754 59.1599L89.9693 71.4187C90.2745 72.037 90.8639 72.4685 91.548 72.5685L105.191 74.5393C105.743 74.6129 106.241 74.9024 106.58 75.3444C107.217 76.1732 107.119 77.3468 106.356 78.0598L96.4683 87.6216C95.9658 88.0952 95.7421 88.7898 95.8737 89.4661L98.2417 102.959C98.4075 104.077 97.6445 105.124 96.5262 105.306C96.0631 105.377 95.5895 105.303 95.1685 105.095L83.0176 98.7252C82.4072 98.3937 81.6757 98.3937 81.0653 98.7252L68.8249 105.13C67.8014 105.651 66.549 105.264 65.9911 104.261C65.778 103.856 65.7043 103.396 65.778 102.946L68.1461 89.4529C68.2645 88.7793 68.0408 88.0873 67.5514 87.6111L57.6108 78.0519C56.8004 77.2468 56.7951 75.9364 57.6029 75.126C57.6055 75.1234 57.6081 75.1181 57.6108 75.1155C57.9449 74.8129 58.3554 74.6103 58.8001 74.5314L72.4455 72.5606C73.127 72.4527 73.7137 72.0265 74.0242 71.4081L80.1128 59.1599C80.3575 58.6626 80.7916 58.2811 81.3179 58.1074C81.8467 57.9311 82.4256 57.9732 82.9229 58.2232C83.3307 58.4258 83.6649 58.7547 83.8754 59.1599Z" stroke="white" stroke-width="3" stroke-linecap="round" stroke-linejoin="round"/>
</svg>
