<svg width="164" height="164" viewBox="0 0 164 164" fill="none" xmlns="http://www.w3.org/2000/svg">
<circle cx="82" cy="82" r="82" fill="#E37500"/>
<path fill-rule="evenodd" clip-rule="evenodd" d="M76.2626 90.6664C65.8732 90.6664 57 92.2367 57 98.5287C57 104.818 65.8164 106.448 76.2626 106.448C86.652 106.448 95.5252 104.875 95.5252 98.5855C95.5252 92.2962 86.7088 90.6664 76.2626 90.6664Z" stroke="white" stroke-width="3" stroke-linecap="round" stroke-linejoin="round"/>
<path fill-rule="evenodd" clip-rule="evenodd" d="M76.2625 81.6925C83.1167 81.6925 88.6087 76.1977 88.6087 69.3462C88.6087 62.492 83.1167 57 76.2625 57C69.411 57 63.9163 62.492 63.9163 69.3462C63.9163 76.1977 69.411 81.6925 76.2625 81.6925Z" stroke="white" stroke-width="3" stroke-linecap="round" stroke-linejoin="round"/>
<path d="M101.471 72.9983V83.8364" stroke="white" stroke-width="3" stroke-linecap="round" stroke-linejoin="round"/>
<path d="M107 78.4169H95.9457" stroke="white" stroke-width="3" stroke-linecap="round" stroke-linejoin="round"/>
</svg>
