<svg id="Capa_1" data-name="Capa 1" xmlns="http://www.w3.org/2000/svg" xmlns:xlink="http://www.w3.org/1999/xlink" viewBox="0 0 1769.08 1152"><defs><style>.cls-1,.cls-60,.cls-61,.cls-62{fill:none;}.cls-1{stroke:#1d1d1b;stroke-miterlimit:10;stroke-width:2px;}.cls-2{fill:url(#Degradado_sin_nombre_119);}.cls-3{fill:url(#Degradado_sin_nombre_102);}.cls-4{fill:url(#Degradado_sin_nombre_175);}.cls-5{fill:url(#Degradado_sin_nombre_176);}.cls-6{fill:url(#Degradado_sin_nombre_185);}.cls-7{fill:url(#Degradado_sin_nombre_184);}.cls-8{fill:url(#Degradado_sin_nombre_179);}.cls-9{fill:url(#Degradado_sin_nombre_177);}.cls-10{fill:url(#Degradado_sin_nombre_107);}.cls-11{fill:url(#Degradado_sin_nombre_106);}.cls-12{fill:url(#Degradado_sin_nombre_173);}.cls-13{fill:url(#Degradado_sin_nombre_172);}.cls-14{fill:url(#Degradado_sin_nombre_104);}.cls-15{fill:url(#Degradado_sin_nombre_102-2);}.cls-16{fill:url(#Degradado_sin_nombre_102-3);}.cls-17{fill:#e83b3b;}.cls-18,.cls-25{font-size:17px;}.cls-18,.cls-20,.cls-25,.cls-29,.cls-34,.cls-69{fill:#1d1d1b;}.cls-18,.cls-20,.cls-25,.cls-29{font-family:Dubai-Light, Dubai;font-weight:300;}.cls-19{letter-spacing:-0.01em;}.cls-20{font-size:12px;}.cls-21{letter-spacing:-0.02em;}.cls-22{letter-spacing:-0.01em;}.cls-23{letter-spacing:-0.02em;}.cls-24{letter-spacing:-0.01em;}.cls-25{letter-spacing:-0.03em;}.cls-26{letter-spacing:-0.03em;}.cls-27{letter-spacing:-0.06em;}.cls-28{letter-spacing:-0.03em;}.cls-29,.cls-34{font-size:24px;}.cls-30{letter-spacing:-0.02em;}.cls-31{letter-spacing:-0.01em;}.cls-32{letter-spacing:0em;}.cls-33{letter-spacing:-0.02em;}.cls-34{font-family:Thasadith-Regular, Thasadith;}.cls-35{letter-spacing:-0.02em;}.cls-36{letter-spacing:0.02em;}.cls-37{fill:url(#Degradado_sin_nombre_33);}.cls-38{fill:url(#Degradado_sin_nombre_58);}.cls-39{fill:url(#Degradado_sin_nombre_102-4);}.cls-40{fill:#d9b0b0;}.cls-41{fill:url(#Degradado_sin_nombre_62);}.cls-42{fill:url(#Degradado_sin_nombre_173-2);}.cls-43{fill:url(#Degradado_sin_nombre_172-2);}.cls-44,.cls-47,.cls-51{font-size:15px;letter-spacing:0.12em;}.cls-44,.cls-51,.cls-58{fill:#616160;}.cls-44,.cls-47,.cls-53,.cls-64{font-family:NeueHaasDisplay-XThin, Neue Haas Grotesk Display Pro;font-weight:200;}.cls-45{letter-spacing:0.11em;}.cls-46{letter-spacing:0.12em;}.cls-47,.cls-53,.cls-59,.cls-64{fill:#444;}.cls-48{letter-spacing:0.08em;}.cls-49{letter-spacing:0.09em;}.cls-50{letter-spacing:0.11em;}.cls-51{font-family:NeueHaasDisplay-Bold, Neue Haas Grotesk Display Pro;font-weight:700;}.cls-52{letter-spacing:0.1em;}.cls-53,.cls-64{font-size:13px;}.cls-53{letter-spacing:0.11em;}.cls-54{letter-spacing:0.07em;}.cls-55{letter-spacing:0.08em;}.cls-56{letter-spacing:0.11em;}.cls-57{letter-spacing:0.1em;}.cls-60{stroke:#fff;}.cls-60,.cls-61,.cls-62{stroke-linecap:round;stroke-linejoin:round;stroke-width:0.5px;}.cls-61{stroke:#cdcccc;opacity:0.5;}.cls-62{stroke:#0d71b9;}.cls-63{fill:#fff;}.cls-64{letter-spacing:0.11em;}.cls-65{letter-spacing:0.07em;}.cls-66{letter-spacing:0.08em;}.cls-67{letter-spacing:0.1em;}.cls-68{fill:#dadada;}</style><linearGradient id="Degradado_sin_nombre_119" x1="759.01" y1="472.67" x2="789.75" y2="472.67" gradientUnits="userSpaceOnUse"><stop offset="0" stop-color="#398fcd"/><stop offset="0.89" stop-color="#66b32e"/></linearGradient><linearGradient id="Degradado_sin_nombre_102" x1="333.85" y1="263.55" x2="324.84" y2="445.38" gradientUnits="userSpaceOnUse"><stop offset="0" stop-color="#ee7411"/><stop offset="0.18" stop-color="#64c3d4"/><stop offset="0.45" stop-color="#30bad2"/><stop offset="0.67" stop-color="#984694"/><stop offset="0.75" stop-color="#a73e86"/><stop offset="0.9" stop-color="#cd2760"/><stop offset="0.99" stop-color="#e61947"/></linearGradient><radialGradient id="Degradado_sin_nombre_175" cx="624.81" cy="472.67" r="38.16" gradientUnits="userSpaceOnUse"><stop offset="0" stop-color="#398fcd"/><stop offset="0.53" stop-color="#664495"/><stop offset="0.63" stop-color="#924b6b"/><stop offset="0.74" stop-color="#b75146"/><stop offset="0.84" stop-color="#d2552c"/><stop offset="0.93" stop-color="#e2581d"/><stop offset="1" stop-color="#e85917"/></radialGradient><radialGradient id="Degradado_sin_nombre_176" cx="179.78" cy="365.45" r="47" gradientUnits="userSpaceOnUse"><stop offset="0.06" stop-color="#398fcd"/><stop offset="0.53" stop-color="#664495"/><stop offset="0.63" stop-color="#924b6b"/><stop offset="0.74" stop-color="#b75146"/><stop offset="0.84" stop-color="#d2552c"/><stop offset="0.93" stop-color="#e2581d"/><stop offset="1" stop-color="#e85917"/></radialGradient><radialGradient id="Degradado_sin_nombre_185" cx="589.67" cy="592.54" r="0.5" gradientUnits="userSpaceOnUse"><stop offset="0" stop-color="#398fcd"/><stop offset="0.4" stop-color="#c37a3d"/><stop offset="0.53" stop-color="#ee7411"/><stop offset="0.53" stop-color="#ed7513"/><stop offset="0.62" stop-color="#c38c4d"/><stop offset="0.71" stop-color="#a1a07d"/><stop offset="0.8" stop-color="#87afa3"/><stop offset="0.88" stop-color="#74babe"/><stop offset="0.95" stop-color="#68c1ce"/><stop offset="1" stop-color="#64c3d4"/></radialGradient><radialGradient id="Degradado_sin_nombre_184" cx="174.73" cy="474.66" r="0.5" gradientUnits="userSpaceOnUse"><stop offset="0.06" stop-color="#398fcd"/><stop offset="0.43" stop-color="#c2573d"/><stop offset="0.53" stop-color="#e84816"/><stop offset="0.62" stop-color="#c16c4e"/><stop offset="0.71" stop-color="#a08b7d"/><stop offset="0.8" stop-color="#86a3a3"/><stop offset="0.88" stop-color="#73b5be"/><stop offset="0.95" stop-color="#68bfce"/><stop offset="1" stop-color="#64c3d4"/></radialGradient><linearGradient id="Degradado_sin_nombre_179" x1="891.52" y1="472.67" x2="922.26" y2="472.67" gradientUnits="userSpaceOnUse"><stop offset="0.22" stop-color="#398fcd"/><stop offset="0.6" stop-color="#e3df20"/><stop offset="0.99" stop-color="#e84816"/></linearGradient><linearGradient id="Degradado_sin_nombre_177" x1="438.98" y1="365.45" x2="484.76" y2="365.45" gradientUnits="userSpaceOnUse"><stop offset="0" stop-color="#664495"/><stop offset="0.24" stop-color="#398fcd"/><stop offset="0.72" stop-color="#e3df20"/><stop offset="0.99" stop-color="#e84816"/></linearGradient><linearGradient id="Degradado_sin_nombre_107" x1="622.2" y1="599.13" x2="644.69" y2="676.56" gradientUnits="userSpaceOnUse"><stop offset="0" stop-color="#664495"/><stop offset="0.57" stop-color="#398fcd"/><stop offset="0.99" stop-color="#e84816"/></linearGradient><linearGradient id="Degradado_sin_nombre_106" x1="183.73" y1="463.23" x2="183.61" y2="569.89" gradientUnits="userSpaceOnUse"><stop offset="0.22" stop-color="#66b32e"/><stop offset="0.65" stop-color="#e3df20"/><stop offset="0.69" stop-color="#e3d21f"/><stop offset="0.78" stop-color="#e5af1d"/><stop offset="0.9" stop-color="#e67819"/><stop offset="0.99" stop-color="#e84816"/></linearGradient><linearGradient id="Degradado_sin_nombre_173" x1="940.8" y1="653.75" x2="912.08" y2="606.87" gradientUnits="userSpaceOnUse"><stop offset="0" stop-color="#398fcd"/><stop offset="0.29" stop-color="#664495"/><stop offset="0.45" stop-color="#924b6b"/><stop offset="0.61" stop-color="#b75146"/><stop offset="0.76" stop-color="#d2552c"/><stop offset="0.9" stop-color="#e2581d"/><stop offset="1" stop-color="#e85917"/></linearGradient><linearGradient id="Degradado_sin_nombre_172" x1="519.24" y1="604.98" x2="421.72" y2="488.81" gradientUnits="userSpaceOnUse"><stop offset="0.13" stop-color="#398fcd"/><stop offset="0.48" stop-color="#664495"/><stop offset="0.59" stop-color="#924b6b"/><stop offset="0.71" stop-color="#b75146"/><stop offset="0.83" stop-color="#d2552c"/><stop offset="0.92" stop-color="#e2581d"/><stop offset="1" stop-color="#e85917"/></linearGradient><linearGradient id="Degradado_sin_nombre_104" x1="136.52" y1="258.96" x2="151.41" y2="338.2" gradientUnits="userSpaceOnUse"><stop offset="0.07" stop-color="#ee7411"/><stop offset="0.99" stop-color="#e61947"/></linearGradient><linearGradient id="Degradado_sin_nombre_102-2" x1="-298.93" y1="96.1" x2="-307.93" y2="277.93" xlink:href="#Degradado_sin_nombre_102"/><linearGradient id="Degradado_sin_nombre_102-3" x1="350.21" y1="396.02" x2="350.61" y2="396.02" xlink:href="#Degradado_sin_nombre_102"/><linearGradient id="Degradado_sin_nombre_33" x1="241.77" y1="256.69" x2="274.17" y2="235.09" gradientUnits="userSpaceOnUse"><stop offset="0.27" stop-color="#4a72a7"/><stop offset="0.6" stop-color="#d9b0b0"/><stop offset="0.65" stop-color="#dca3a1"/><stop offset="0.74" stop-color="#e3827b"/><stop offset="0.83" stop-color="#eb5e51"/><stop offset="1" stop-color="#eb5e51"/></linearGradient><linearGradient id="Degradado_sin_nombre_58" x1="280.7" y1="234.81" x2="295.82" y2="253.53" gradientUnits="userSpaceOnUse"><stop offset="0" stop-color="#664495"/><stop offset="0.24" stop-color="#398fcd"/><stop offset="0.45" stop-color="#66b32e"/><stop offset="0.72" stop-color="#e3df20"/><stop offset="0.99" stop-color="#e84816"/></linearGradient><linearGradient id="Degradado_sin_nombre_102-4" x1="307.98" y1="247" x2="328.42" y2="247" xlink:href="#Degradado_sin_nombre_102"/><linearGradient id="Degradado_sin_nombre_62" x1="213.21" y1="314.58" x2="211.19" y2="355.39" gradientUnits="userSpaceOnUse"><stop offset="0.72" stop-color="#e3df20"/><stop offset="1" stop-color="#e84816"/></linearGradient><linearGradient id="Degradado_sin_nombre_173-2" x1="509.41" y1="855.97" x2="480.69" y2="809.09" xlink:href="#Degradado_sin_nombre_173"/><linearGradient id="Degradado_sin_nombre_172-2" x1="87.85" y1="807.21" x2="-9.67" y2="691.04" xlink:href="#Degradado_sin_nombre_172"/></defs><path class="cls-1" d="M119.79,140.15V31.06L91,92.05" transform="translate(414.94 117.88)"/><path class="cls-1" d="M53.46,140.15" transform="translate(414.94 117.88)"/><path class="cls-1" d="M53.45,207.69a38.44,38.44,0,0,0,65.83-33.63h0a40.71,40.71,0,0,0-3.4-10.93Q84.67,97.1,53.46,31.06V140.15" transform="translate(414.94 117.88)"/><path class="cls-1" d="M239.73,138V28.87l-28.83,61" transform="translate(414.94 117.88)"/><path class="cls-1" d="M173.39,138" transform="translate(414.94 117.88)"/><path class="cls-1" d="M221.7,131.08Q197.54,80,173.39,28.87V138" transform="translate(414.94 117.88)"/><path class="cls-1" d="M173.39,138" transform="translate(414.94 117.88)"/><path class="cls-1" d="M221.28,130.08a25,25,0,0,1-44.23,23.28" transform="translate(414.94 117.88)"/><path class="cls-1" d="M476.58,111.24V29.92L447.75,75.39" transform="translate(414.94 117.88)"/><path class="cls-1" d="M410.25,135.57" transform="translate(414.94 117.88)"/><path class="cls-1" d="M410.24,135.57" transform="translate(414.94 117.88)"/><path class="cls-1" d="M414.26,129.29A25,25,0,0,0,458.49,106l.06.11-48.3-76.19v81.32" transform="translate(414.94 117.88)"/><path class="cls-1" d="M115.12,402.06v-99l-28.83,61" transform="translate(414.94 117.88)"/><path class="cls-1" d="M48.78,412.14" transform="translate(414.94 117.88)"/><line class="cls-1" x1="463.73" y1="420.93" x2="463.73" y2="519.94"/><path class="cls-1" d="M48.78,412.14" transform="translate(414.94 117.88)"/><path class="cls-1" d="M52,411.9a21.89,21.89,0,0,0,38.67-20.35l.37.87L48.78,303.05" transform="translate(414.94 117.88)"/><polygon class="cls-2" points="789.75 524.4 787.75 524.4 787.75 429.85 760.82 486.81 759.01 485.96 789.75 420.93 789.75 524.4"/><path class="cls-3" d="M352.25,405a22.9,22.9,0,0,1-42.44,11.93l1.71-1.05A20.9,20.9,0,0,0,348.8,397.3L308.47,312v94.55h-2V303.05l43.74,92.56.4.84A22.65,22.65,0,0,1,352.25,405Z" transform="translate(414.94 117.88)"/><polygon class="cls-4" points="640.17 524.4 638.17 524.4 638.17 429.85 611.25 486.81 609.44 485.96 640.17 420.93 640.17 524.4"/><path class="cls-5" d="M202.67,405a22.9,22.9,0,0,1-42.44,11.93l1.71-1.05a20.9,20.9,0,0,0,37.28-18.54L158.89,312v94.55h-2V303.05l43.74,92.56.4.84A22.65,22.65,0,0,1,202.67,405Z" transform="translate(414.94 117.88)"/><polygon class="cls-6" points="531.01 681.77 529.01 681.77 529.01 587.21 502.09 644.18 500.28 643.33 531.01 578.3 531.01 681.77"/><path class="cls-7" d="M93.51,562.33a22.9,22.9,0,0,1-42.44,11.93l1.71-1a20.9,20.9,0,0,0,37.28-18.54L49.73,469.34v94.55h-2V460.42L91.47,553l.4.84A22.65,22.65,0,0,1,93.51,562.33Z" transform="translate(414.94 117.88)"/><polygon class="cls-8" points="922.25 524.4 920.25 524.4 920.25 429.85 893.33 486.81 891.52 485.96 922.25 420.93 922.25 524.4"/><path class="cls-9" d="M484.76,405a22.9,22.9,0,0,1-42.44,11.93l1.71-1.05a20.9,20.9,0,0,0,37.28-18.54L441,312v94.55h-2V303.05l43.74,92.56.4.84A22.65,22.65,0,0,1,484.76,405Z" transform="translate(414.94 117.88)"/><polygon class="cls-10" points="644.06 692.43 642.06 692.43 642.06 597.88 615.13 654.85 613.33 653.99 644.06 588.97 644.06 692.43"/><path class="cls-11" d="M206.56,573a22.9,22.9,0,0,1-42.44,11.93l1.71-1a20.9,20.9,0,0,0,37.28-18.54L162.78,480v94.55h-2V471.08l43.74,92.56.4.84A22.65,22.65,0,0,1,206.56,573Z" transform="translate(414.94 117.88)"/><polygon class="cls-12" points="936.4 588.97 936.4 692.43 934.4 692.43 934.4 597.88 907.48 654.85 905.67 653.99 936.4 588.97"/><path class="cls-13" d="M498.9,573a22.9,22.9,0,0,1-42.44,11.93l1.71-1a20.9,20.9,0,0,0,37.28-18.54L455.12,480v94.55h-2V471.08l43.74,92.56.4.84A22.65,22.65,0,0,1,498.9,573Z" transform="translate(414.94 117.88)"/><polygon class="cls-14" points="156.97 356.95 154.97 356.95 154.97 262.4 128.04 319.36 126.24 318.51 156.97 253.48 156.97 356.95"/><path class="cls-15" d="M-280.53,237.51a22.92,22.92,0,0,1-22.89,22.89,22.77,22.77,0,0,1-19.55-11l1.71-1.05a20.76,20.76,0,0,0,17.84,10,20.91,20.91,0,0,0,20.89-20.89,20.61,20.61,0,0,0-1.45-7.66l-40.33-85.33v94.55h-2V135.6l43.74,92.56.4.84A22.65,22.65,0,0,1-280.53,237.51Z" transform="translate(414.94 117.88)"/><path class="cls-16" d="M350.61,396.45l-.4-.84,0,0C350.38,395.87,350.5,396.16,350.61,396.45Z" transform="translate(414.94 117.88)"/><polygon class="cls-17" points="789.75 688.73 787.75 688.73 787.75 594.18 760.82 651.15 759.01 650.29 789.75 585.27 789.75 688.73"/><path class="cls-17" d="M352.25,569.29a22.9,22.9,0,0,1-42.44,11.93l1.71-1.05a20.9,20.9,0,0,0,37.28-18.54L308.47,476.3v94.55h-2V467.38l43.74,92.56.4.84A22.65,22.65,0,0,1,352.25,569.29Z" transform="translate(414.94 117.88)"/><path class="cls-17" d="M350.61,560.78l-.4-.84,0,0C350.38,560.2,350.5,560.49,350.61,560.78Z" transform="translate(414.94 117.88)"/><path class="cls-1" d="M358.33,126.62V30.91a3,3,0,0,0-5.72-1.28L329.5,78.53" transform="translate(414.94 117.88)"/><path class="cls-1" d="M292,126.62" transform="translate(414.94 117.88)"/><path class="cls-1" d="M340.3,119.74,297.71,29.63A3,3,0,0,0,292,30.91v95.71" transform="translate(414.94 117.88)"/><path class="cls-1" d="M292,126.62" transform="translate(414.94 117.88)"/><path class="cls-1" d="M339.88,118.74A25,25,0,0,1,295.65,142" transform="translate(414.94 117.88)"/><text class="cls-18" transform="translate(780.27 362.87)">MARÍA JOSÉ ARI<tspan class="cls-19" x="119.34" y="0">A</tspan><tspan x="129.62" y="0">S</tspan></text><text class="cls-20" transform="translate(712.51 25.02)">I<tspan class="cls-21" x="2.99" y="0">n</tspan><tspan class="cls-22" x="8.89" y="0">t</tspan><tspan x="13" y="0">e</tspan><tspan class="cls-23" x="18.44" y="0">r</tspan><tspan x="22.28" y="0">acti</tspan><tspan class="cls-24" x="39.38" y="0">v</tspan><tspan x="44.47" y="0">e Designer</tspan></text><text class="cls-25" transform="translate(780.27 378.31)">INT<tspan class="cls-26" x="24.34" y="0">E</tspan><tspan x="33.06" y="0">R</tspan><tspan class="cls-27" x="42.23" y="0">A</tspan><tspan x="51.7" y="0">CTIVE DESIGN</tspan><tspan class="cls-28" x="149.85" y="0">E</tspan><tspan x="158.57" y="0">R</tspan></text><text class="cls-20" transform="translate(712.51 9.89)">Maria Jose Arias</text><text class="cls-29" transform="translate(0 618.43)">I<tspan class="cls-30" x="5.98" y="0">n</tspan><tspan class="cls-31" x="17.78" y="0">t</tspan><tspan class="cls-32" x="25.99" y="0">e</tspan><tspan class="cls-24" x="36.89" y="0">r</tspan><tspan x="44.57" y="0">acti</tspan><tspan class="cls-33" x="78.76" y="0">v</tspan><tspan x="88.94" y="0">e Designer</tspan></text><text class="cls-29" transform="translate(0 594.57)">Maria Jose Arias</text><text class="cls-34" transform="translate(0 711.06)">In<tspan class="cls-22" x="17.47" y="0">t</tspan><tspan x="24.17" y="0">e</tspan><tspan class="cls-31" x="35.97" y="0">r</tspan><tspan x="42.96" y="0">acti</tspan><tspan class="cls-35" x="77.11" y="0">v</tspan><tspan class="cls-32" x="87.07" y="0">e D</tspan><tspan class="cls-36" x="118.56" y="0">e</tspan><tspan x="130.84" y="0">signer</tspan></text><text class="cls-34" transform="translate(0 677.67)">Maria Jose Arias</text><text class="cls-34" transform="translate(0 785.22)">In<tspan class="cls-22" x="17.47" y="0">t</tspan><tspan x="24.17" y="0">e</tspan><tspan class="cls-31" x="35.97" y="0">r</tspan><tspan x="42.96" y="0">acti</tspan><tspan class="cls-35" x="77.11" y="0">v</tspan><tspan class="cls-32" x="87.07" y="0">e D</tspan><tspan class="cls-36" x="118.56" y="0">e</tspan><tspan x="130.84" y="0">signer</tspan></text><text class="cls-34" transform="translate(0 751.83)">Maria Jose Arias</text><ellipse class="cls-37" cx="261.7" cy="243.4" rx="11.52" ry="10.08"/><ellipse class="cls-38" cx="288.7" cy="244.72" rx="9.72" ry="6.6"/><ellipse class="cls-39" cx="318.2" cy="247" rx="10.22" ry="6.48"/><ellipse class="cls-40" cx="348.34" cy="247" rx="10.56" ry="6.48"/><ellipse class="cls-40" cx="383.86" cy="245.8" rx="11.28" ry="7.68"/><ellipse class="cls-41" cx="211.47" cy="349.81" rx="12.22" ry="21.26"/><polygon class="cls-42" points="505.01 791.2 505.01 894.66 503.01 894.66 503.01 800.11 476.09 857.08 474.28 856.22 505.01 791.2"/><path class="cls-43" d="M67.51,775.22a22.9,22.9,0,0,1-42.44,11.93l1.71-1a20.9,20.9,0,0,0,37.28-18.54L23.73,682.23v94.55h-2V673.31l43.74,92.56.4.84A22.65,22.65,0,0,1,67.51,775.22Z" transform="translate(414.94 117.88)"/><text class="cls-44" transform="translate(518.53 867.23)">MARÍA JOSÉ ARI<tspan class="cls-45" x="127.02" y="0">A</tspan><tspan class="cls-46" x="137.68" y="0">S</tspan></text><text class="cls-47" transform="translate(517.57 912.47)">INTER<tspan class="cls-48" x="47.71" y="0">A</tspan><tspan class="cls-49" x="57.93" y="0">C</tspan><tspan x="69.36" y="0">TIVE D</tspan><tspan class="cls-50" x="120.97" y="0">E</tspan><tspan x="131.31" y="0">SIGNER</tspan></text><text class="cls-51" transform="translate(826.21 867.93)">MARÍA JOSÉ ARI<tspan class="cls-52" x="140.05" y="0">A</tspan><tspan x="152.04" y="0">S</tspan></text><text class="cls-53" transform="translate(826.21 883.58)">INTER<tspan class="cls-54" x="40.9" y="0">A</tspan><tspan class="cls-55" x="49.66" y="0">C</tspan><tspan class="cls-56" x="59.47" y="0">TIVE D</tspan><tspan class="cls-57" x="103.66" y="0">E</tspan><tspan class="cls-56" x="112.52" y="0">SIGNER</tspan></text><rect class="cls-58" x="750.92" y="824.85" width="58.83" height="64.16"/><path class="cls-58" d="M740.52,1013v-10.72h3.57l1.31,4.69.61,2.45h0c.28-1.18.48-2,.6-2.45l1.32-4.69h3.6V1013h-2.43v-5.4l0-2.14h0c-.25,1.07-.42,1.73-.5,2l-1.54,5.55h-2.19l-1.53-5.53-.5-2h0c0,1.15,0,1.87,0,2.16V1013Z" transform="translate(414.94 117.88)"/><path class="cls-58" d="M754,1013l3.85-10.72h2.73l3.87,10.72H761.7l-.63-1.93h-3.75l-.61,1.93Zm3.9-3.84h2.52l-.81-2.59-.42-1.52h0c-.17.64-.32,1.15-.44,1.52Z" transform="translate(414.94 117.88)"/><path class="cls-58" d="M767,1013v-10.72h5.13a4.24,4.24,0,0,1,2.7.82,2.71,2.71,0,0,1,1,2.27,2.52,2.52,0,0,1-1.86,2.59v.05a2.21,2.21,0,0,1,1.56,2,10.34,10.34,0,0,1,.12,1.3c0,.52.06.9.1,1.16s.12.4.23.44v.13h-2.58a.63.63,0,0,1-.19-.43,8.32,8.32,0,0,1-.11-1c0-.44-.07-.79-.11-1a1.6,1.6,0,0,0-1.78-1.53h-1.61v4Zm2.65-6h2a1.77,1.77,0,0,0,1.18-.35,1.2,1.2,0,0,0,.41-1,1.24,1.24,0,0,0-.39-1,1.58,1.58,0,0,0-1.14-.37h-2.06Z" transform="translate(414.94 117.88)"/><path class="cls-58" d="M778.83,1013v-10.72h2.66V1013Zm.33-11.25.65-2h2.8l-1.59,2Z" transform="translate(414.94 117.88)"/><path class="cls-58" d="M784,1013l3.86-10.72h2.73l3.87,10.72h-2.79L791,1011h-3.75l-.62,1.93Zm3.9-3.84h2.52l-.81-2.59-.42-1.52h0c-.17.64-.31,1.15-.43,1.52Z" transform="translate(414.94 117.88)"/><path class="cls-58" d="M804.21,1013.17a3.9,3.9,0,0,1-2.8-.92,3.35,3.35,0,0,1-.95-2.5v-1h2.42v.89q0,1.29,1.17,1.29t1.11-1.26v-7.47h2.65v7.53a3.34,3.34,0,0,1-.76,2.32A3.66,3.66,0,0,1,804.21,1013.17Z" transform="translate(414.94 117.88)"/><path class="cls-58" d="M819.65,1011.65a5.49,5.49,0,0,1-7.71,0,6.33,6.33,0,0,1,0-8,5.52,5.52,0,0,1,7.71,0,6.3,6.3,0,0,1,0,8Zm-3.84-.58a2.2,2.2,0,0,0,1.92-1,5,5,0,0,0,0-5,2.18,2.18,0,0,0-1.92-1,2.23,2.23,0,0,0-1.93,1,4.88,4.88,0,0,0,0,5A2.23,2.23,0,0,0,815.81,1011.07Z" transform="translate(414.94 117.88)"/><path class="cls-58" d="M828.17,1013.23a5.7,5.7,0,0,1-3.46-.94,3.22,3.22,0,0,1-1.33-2.69h2.67q.16,1.53,2.1,1.53a2.42,2.42,0,0,0,1.22-.28.9.9,0,0,0,.51-.85.82.82,0,0,0-.32-.65,2,2,0,0,0-.64-.37c-.21-.07-.62-.18-1.22-.33l-.06,0h-.1l-1.14-.29a8.41,8.41,0,0,1-1-.39,3.34,3.34,0,0,1-.89-.58,2.76,2.76,0,0,1-.57-.83,2.94,2.94,0,0,1-.23-1.17,2.8,2.8,0,0,1,1.18-2.47,5.24,5.24,0,0,1,3.08-.83,5,5,0,0,1,3,.84,3,3,0,0,1,1.24,2.46h-2.59a1.35,1.35,0,0,0-.53-1,2,2,0,0,0-1.2-.34,2.09,2.09,0,0,0-1.12.28.85.85,0,0,0-.42.73.77.77,0,0,0,.51.74,10.81,10.81,0,0,0,1.92.55c.59.14,1.07.28,1.45.41a6,6,0,0,1,1.16.58,2.37,2.37,0,0,1,.89,1,3.19,3.19,0,0,1,.29,1.41,3,3,0,0,1-1.24,2.57A5.08,5.08,0,0,1,828.17,1013.23Z" transform="translate(414.94 117.88)"/><path class="cls-58" d="M835.4,1013v-10.72h8.13v2.19h-5.48v1.92h4.7v2.07h-4.7v2.29h5.57V1013Zm3.21-11.25.64-2h2.81l-1.59,2Z" transform="translate(414.94 117.88)"/><path class="cls-58" d="M849.9,1013l3.86-10.72h2.73l3.87,10.72h-2.79l-.63-1.93h-3.75l-.62,1.93Zm3.9-3.84h2.52l-.81-2.59-.42-1.52h0c-.17.64-.31,1.15-.43,1.52Z" transform="translate(414.94 117.88)"/><path class="cls-58" d="M862.86,1013v-10.72H868a4.24,4.24,0,0,1,2.7.82,2.71,2.71,0,0,1,1,2.27,2.52,2.52,0,0,1-1.86,2.59v.05a2.21,2.21,0,0,1,1.56,2,12.34,12.34,0,0,1,.13,1.3,10.41,10.41,0,0,0,.1,1.16c0,.25.11.4.22.44v.13h-2.58c-.08-.05-.14-.19-.18-.43a8,8,0,0,1-.12-1c0-.44-.06-.79-.1-1a1.61,1.61,0,0,0-1.79-1.53h-1.6v4Zm2.66-6h2a1.8,1.8,0,0,0,1.19-.35,1.19,1.19,0,0,0,.4-1,1.24,1.24,0,0,0-.39-1,1.58,1.58,0,0,0-1.14-.37h-2.05Z" transform="translate(414.94 117.88)"/><path class="cls-58" d="M874.7,1013v-10.72h2.65V1013Z" transform="translate(414.94 117.88)"/><path class="cls-58" d="M879.83,1013l3.85-10.72h2.73l3.87,10.72h-2.79l-.63-1.93h-3.75l-.61,1.93Zm3.9-3.84h2.52l-.81-2.59L885,1005h0c-.17.64-.32,1.15-.44,1.52Z" transform="translate(414.94 117.88)"/><path class="cls-58" d="M896.84,1013.23a5.7,5.7,0,0,1-3.46-.94,3.22,3.22,0,0,1-1.33-2.69h2.67q.16,1.53,2.1,1.53a2.42,2.42,0,0,0,1.22-.28.9.9,0,0,0,.51-.85.82.82,0,0,0-.32-.65,2,2,0,0,0-.64-.37c-.21-.07-.62-.18-1.22-.33l-.06,0h-.1l-1.14-.29a8.41,8.41,0,0,1-1-.39,3.34,3.34,0,0,1-.89-.58,2.76,2.76,0,0,1-.57-.83,2.94,2.94,0,0,1-.23-1.17,2.8,2.8,0,0,1,1.18-2.47,5.24,5.24,0,0,1,3.08-.83,5,5,0,0,1,3,.84,3,3,0,0,1,1.24,2.46h-2.59a1.35,1.35,0,0,0-.53-1,2,2,0,0,0-1.2-.34,2.09,2.09,0,0,0-1.12.28.85.85,0,0,0-.42.73.77.77,0,0,0,.51.74,10.81,10.81,0,0,0,1.92.55c.59.14,1.07.28,1.45.41a6,6,0,0,1,1.16.58,2.3,2.3,0,0,1,.89,1,3.19,3.19,0,0,1,.29,1.41,3,3,0,0,1-1.23,2.57A5.13,5.13,0,0,1,896.84,1013.23Z" transform="translate(414.94 117.88)"/><path class="cls-59" d="M741.08,1020.34v9.29h-.41v-9.29Z" transform="translate(414.94 117.88)"/><path class="cls-59" d="M751.07,1020.34v9.29h-.43l-6.06-8.62h0v8.62h-.39v-9.29h.46l6,8.62h0v-8.62Z" transform="translate(414.94 117.88)"/><path class="cls-59" d="M757.29,1029.63h-.42v-8.92h-3.32v-.37h7.05v.37h-3.31Z" transform="translate(414.94 117.88)"/><path class="cls-59" d="M763.49,1020.7v3.94h5.25v.36h-5.25v4.25h5.83v.38h-6.24v-9.29h6.11v.36Z" transform="translate(414.94 117.88)"/><path class="cls-59" d="M772.43,1025.3v4.33H772v-9.29h3.72a2.91,2.91,0,0,1,2,.64,2.32,2.32,0,0,1,.71,1.83,2.09,2.09,0,0,1-1.74,2.28v0a1.74,1.74,0,0,1,1.14.75,3.3,3.3,0,0,1,.4,1.61c0,1.24.16,2,.37,2.12v0h-.44c-.2-.14-.32-.86-.35-2.16a2.52,2.52,0,0,0-.52-1.66,2.1,2.1,0,0,0-1.58-.51Zm0-4.6v4.23h3.17c1.64,0,2.46-.71,2.46-2.11a2,2,0,0,0-.61-1.57,2.52,2.52,0,0,0-1.74-.55Z" transform="translate(414.94 117.88)"/><path class="cls-59" d="M787.74,1029.63l-1.22-3.17h-4.34l-1.22,3.17h-.43l3.59-9.29h.46l3.59,9.29Zm-3.39-8.8-2,5.28h4.07l-2-5.28Z" transform="translate(414.94 117.88)"/><path class="cls-59" d="M797.36,1023H797a2.82,2.82,0,0,0-1-1.71,3.19,3.19,0,0,0-2.12-.68,3.35,3.35,0,0,0-2.78,1.24,5.57,5.57,0,0,0,0,6.38,3.36,3.36,0,0,0,2.75,1.22,3.09,3.09,0,0,0,2.31-.88,3.61,3.61,0,0,0,1-2.22h.38a3.89,3.89,0,0,1-1,2.36,3.53,3.53,0,0,1-2.73,1.12,3.81,3.81,0,0,1-3-1.32,5.86,5.86,0,0,1,0-6.93,3.83,3.83,0,0,1,3.07-1.34,3.62,3.62,0,0,1,2.38.77A3.22,3.22,0,0,1,797.36,1023Z" transform="translate(414.94 117.88)"/><path class="cls-59" d="M802.89,1029.63h-.42v-8.92h-3.31v-.37h7v.37h-3.31Z" transform="translate(414.94 117.88)"/><path class="cls-59" d="M809.13,1020.34v9.29h-.41v-9.29Z" transform="translate(414.94 117.88)"/><path class="cls-59" d="M811.94,1020.34l3.27,8.72h0l3.32-8.72H819l-3.51,9.29H815l-3.49-9.29Z" transform="translate(414.94 117.88)"/><path class="cls-59" d="M821.7,1020.7v3.94H827v.36H821.7v4.25h5.84v.38h-6.25v-9.29h6.12v.36Z" transform="translate(414.94 117.88)"/><path class="cls-59" d="M833.75,1029.63v-9.29h3.33a3.49,3.49,0,0,1,3.45,2.32,6.93,6.93,0,0,1,.38,2.37,5.28,5.28,0,0,1-1,3.33,3.5,3.5,0,0,1-2.93,1.27Zm.4-.36H837a3.17,3.17,0,0,0,2.6-1.13,4.78,4.78,0,0,0,.91-3.11,5.1,5.1,0,0,0-.88-3.17,3,3,0,0,0-2.54-1.15h-2.91Z" transform="translate(414.94 117.88)"/><path class="cls-59" d="M844,1020.7v3.94h5.25v.36H844v4.25h5.84v.38h-6.24v-9.29h6.11v.36Z" transform="translate(414.94 117.88)"/><path class="cls-59" d="M851.87,1026.68h.43a2.69,2.69,0,0,0,.9,2,3.49,3.49,0,0,0,2.34.73,3.16,3.16,0,0,0,2-.6,1.94,1.94,0,0,0,.76-1.61,1.68,1.68,0,0,0-.69-1.51,6.78,6.78,0,0,0-2.41-.78,5.67,5.67,0,0,1-2.25-.81,1.83,1.83,0,0,1-.72-1.58,2,2,0,0,1,.82-1.69,3.51,3.51,0,0,1,2.18-.63,3.23,3.23,0,0,1,2.2.71,2.83,2.83,0,0,1,1,1.91H858a2.43,2.43,0,0,0-.86-1.65,2.94,2.94,0,0,0-1.89-.59,3.08,3.08,0,0,0-1.9.53,1.64,1.64,0,0,0-.7,1.39,1.52,1.52,0,0,0,.64,1.33,5.7,5.7,0,0,0,2.12.72,13.17,13.17,0,0,1,1.38.32,4.69,4.69,0,0,1,1,.46,1.83,1.83,0,0,1,.69.75,2.44,2.44,0,0,1,.22,1.09,2.35,2.35,0,0,1-.85,1.89,3.53,3.53,0,0,1-2.33.73,3.8,3.8,0,0,1-2.66-.86A3.17,3.17,0,0,1,851.87,1026.68Z" transform="translate(414.94 117.88)"/><path class="cls-59" d="M861.85,1020.34v9.29h-.4v-9.29Z" transform="translate(414.94 117.88)"/><path class="cls-59" d="M872.28,1025.39H869V1025h3.64v4.6h-.34l0-2.19h0a3.07,3.07,0,0,1-1.14,1.65,3.49,3.49,0,0,1-2.23.69,4,4,0,0,1-3.18-1.34,5.76,5.76,0,0,1,0-6.88,3.91,3.91,0,0,1,3.17-1.37,3.8,3.8,0,0,1,2.42.75,3.33,3.33,0,0,1,1.2,2h-.4a2.88,2.88,0,0,0-1.08-1.78,3.88,3.88,0,0,0-5,.62,4.91,4.91,0,0,0-1,3.17,4.82,4.82,0,0,0,1,3.16,3.48,3.48,0,0,0,2.88,1.24,3.19,3.19,0,0,0,2.47-1,3.64,3.64,0,0,0,.9-2.55Z" transform="translate(414.94 117.88)"/><path class="cls-59" d="M882.52,1020.34v9.29h-.43L876,1021h0v8.62h-.39v-9.29h.46l6,8.62h0v-8.62Z" transform="translate(414.94 117.88)"/><path class="cls-59" d="M886,1020.7v3.94h5.26v.36H886v4.25h5.84v.38h-6.24v-9.29h6.11v.36Z" transform="translate(414.94 117.88)"/><path class="cls-59" d="M894.94,1025.3v4.33h-.41v-9.29h3.72a2.92,2.92,0,0,1,2,.64,2.36,2.36,0,0,1,.71,1.83,2.09,2.09,0,0,1-1.74,2.28v0a1.74,1.74,0,0,1,1.14.75,3.2,3.2,0,0,1,.39,1.61c0,1.24.16,2,.38,2.12v0h-.44c-.2-.14-.32-.86-.35-2.16a2.52,2.52,0,0,0-.52-1.66,2.11,2.11,0,0,0-1.59-.51Zm0-4.6v4.23h3.17c1.64,0,2.46-.71,2.46-2.11a2,2,0,0,0-.61-1.57,2.53,2.53,0,0,0-1.75-.55Z" transform="translate(414.94 117.88)"/><g id="Lineas_de_simetria" data-name="Lineas de simetria"><line class="cls-60" x1="1390.99" y1="588.92" x2="1471.02" y2="712.98"/><line class="cls-60" x1="1369.34" y1="627.86" x2="1449.37" y2="751.92"/><line class="cls-60" x1="1484.58" y1="603.42" x2="1404.54" y2="727.48"/><line class="cls-60" x1="1506.23" y1="642.37" x2="1426.2" y2="766.42"/><line class="cls-60" x1="1417.1" y1="704.96" x2="1472.02" y2="704.96"/><line class="cls-60" x1="1442.46" y1="741.21" x2="1442.46" y2="617.07"/><circle class="cls-60" cx="1433.03" cy="690.6" r="19.83"/><circle class="cls-60" cx="1442.46" cy="704.96" r="19.83"/><rect class="cls-60" x="1409.36" y="617.07" width="66.33" height="72.63"/><line class="cls-60" x1="1475.69" y1="668.8" x2="1409.36" y2="668.8"/></g><g id="Aurea"><circle class="cls-61" cx="1421.63" cy="693.68" r="3.99"/><circle class="cls-61" cx="1424.15" cy="704.18" r="6.51"/><circle class="cls-61" cx="1434.6" cy="672.8" r="16.97"/><circle class="cls-61" cx="1441.11" cy="700.15" r="10.46"/><rect class="cls-62" x="1417.67" y="655.8" width="33.91" height="33.91"/><rect class="cls-62" x="1430.63" y="689.7" width="20.94" height="20.94"/><rect class="cls-62" x="1417.67" y="697.68" width="12.96" height="12.96"/><rect class="cls-62" x="1417.67" y="689.7" width="7.98" height="7.98"/><rect class="cls-62" x="1425.65" y="689.7" width="4.98" height="4.98"/><rect class="cls-62" x="1427.63" y="694.68" width="3" height="3"/><rect class="cls-62" x="1425.64" y="695.7" width="1.98" height="1.99"/><rect class="cls-62" x="1425.64" y="694.68" width="1.02" height="1.02"/><path class="cls-62" d="M1002.69,538a33.91,33.91,0,0,1,33.94,33.93v-.08a20.9,20.9,0,0,1-20.92,20.91,13,13,0,0,1-13-13v.08a8,8,0,0,1,8-8,5,5,0,0,1,5,5v-.08a3,3,0,0,1-3,3,2,2,0,0,1-2-2,1,1,0,0,1,1-.95" transform="translate(414.94 117.88)"/></g><g id="Marca"><path class="cls-1" d="M1031.92,544.05l28.83-44.86V572" transform="translate(414.94 117.88)"/><path class="cls-1" d="M994.41,572V499.19c13.8,21.6,22.05,34,35.64,55.56l4.16,6.48c2.37,4.18,4.17,8.35,3.59,13.63a19.82,19.82,0,0,1-34.18,11.42" transform="translate(414.94 117.88)"/></g><g id="Marca-2" data-name="Marca"><polygon class="cls-63" points="799.17 872.01 798.07 872.01 798.07 833.73 783.19 856.89 782.26 856.3 799.17 829.98 799.17 872.01"/><path class="cls-63" d="M360.15,766a11.4,11.4,0,0,1-8.38-3.63l.8-.75a10.39,10.39,0,0,0,17.91-6c.28-2.65-.56-4.79-1.92-7.18l-2.28-3.54C361.92,738,358.56,732.8,355,727.3c-2.28-3.53-4.63-7.16-7.37-11.44v38.27h-1.1v-42l1,1.6c3.18,5,5.82,9.07,8.37,13,3.56,5.51,6.92,10.71,11.28,17.62l2.29,3.57a12.62,12.62,0,0,1,2.07,7.87A11.52,11.52,0,0,1,361.38,766Q360.75,766,360.15,766Z" transform="translate(414.94 117.88)"/></g><path class="cls-58" d="M740.52,926.72V916h3.57l1.31,4.69.61,2.45h0c.28-1.18.48-2,.6-2.45L748,916h3.6v10.72h-2.43v-5.4l0-2.14h0c-.25,1.07-.42,1.73-.5,2l-1.54,5.55h-2.19l-1.53-5.53-.5-2h0c0,1.15,0,1.87,0,2.16v5.38Z" transform="translate(414.94 117.88)"/><path class="cls-58" d="M754,926.72,757.89,916h2.73l3.87,10.72H761.7l-.63-1.93h-3.75l-.61,1.93Zm3.9-3.84h2.52l-.81-2.59-.42-1.52h0c-.17.64-.32,1.15-.44,1.52Z" transform="translate(414.94 117.88)"/><path class="cls-58" d="M767,926.72V916h5.13a4.24,4.24,0,0,1,2.7.82,2.71,2.71,0,0,1,1,2.27,2.52,2.52,0,0,1-1.86,2.59v.05a2.21,2.21,0,0,1,1.56,2,10.34,10.34,0,0,1,.12,1.3c0,.52.06.9.1,1.16s.12.4.23.44v.13h-2.58a.63.63,0,0,1-.19-.43,8.32,8.32,0,0,1-.11-1c0-.44-.07-.79-.11-1a1.6,1.6,0,0,0-1.78-1.53h-1.61v4Zm2.65-6h2a1.77,1.77,0,0,0,1.18-.35,1.2,1.2,0,0,0,.41-1,1.24,1.24,0,0,0-.39-1,1.58,1.58,0,0,0-1.14-.37h-2.06Z" transform="translate(414.94 117.88)"/><path class="cls-58" d="M778.83,926.72V916h2.66v10.72Zm.33-11.25.65-2h2.8l-1.59,2Z" transform="translate(414.94 117.88)"/><path class="cls-58" d="M784,926.72,787.82,916h2.73l3.87,10.72h-2.79l-.63-1.93h-3.75l-.62,1.93Zm3.9-3.84h2.52l-.81-2.59-.42-1.52h0c-.17.64-.31,1.15-.43,1.52Z" transform="translate(414.94 117.88)"/><path class="cls-58" d="M804.21,926.92a3.9,3.9,0,0,1-2.8-.92,3.35,3.35,0,0,1-.95-2.5v-1h2.42v.89q0,1.29,1.17,1.29t1.11-1.26V916h2.65v7.53a3.34,3.34,0,0,1-.76,2.32A3.66,3.66,0,0,1,804.21,926.92Z" transform="translate(414.94 117.88)"/><path class="cls-58" d="M819.65,925.4a5.49,5.49,0,0,1-7.71,0,6.33,6.33,0,0,1,0-8,5.52,5.52,0,0,1,7.71,0,6.3,6.3,0,0,1,0,8Zm-3.84-.58a2.2,2.2,0,0,0,1.92-1,5,5,0,0,0,0-5,2.18,2.18,0,0,0-1.92-1,2.23,2.23,0,0,0-1.93,1,4.88,4.88,0,0,0,0,5A2.23,2.23,0,0,0,815.81,924.82Z" transform="translate(414.94 117.88)"/><path class="cls-58" d="M828.17,927a5.7,5.7,0,0,1-3.46-.94,3.22,3.22,0,0,1-1.33-2.69h2.67q.16,1.53,2.1,1.53a2.42,2.42,0,0,0,1.22-.28.9.9,0,0,0,.51-.85.82.82,0,0,0-.32-.65,2,2,0,0,0-.64-.37c-.21-.07-.62-.18-1.22-.33l-.06,0h-.1l-1.14-.29a8.41,8.41,0,0,1-1-.39,3.34,3.34,0,0,1-.89-.58,2.76,2.76,0,0,1-.57-.83,2.94,2.94,0,0,1-.23-1.17,2.8,2.8,0,0,1,1.18-2.47,5.24,5.24,0,0,1,3.08-.83,5,5,0,0,1,3,.84,3,3,0,0,1,1.24,2.46h-2.59a1.35,1.35,0,0,0-.53-1,2,2,0,0,0-1.2-.34,2.09,2.09,0,0,0-1.12.28.85.85,0,0,0-.42.73.77.77,0,0,0,.51.74,10.81,10.81,0,0,0,1.92.55c.59.14,1.07.28,1.45.41a6,6,0,0,1,1.16.58,2.37,2.37,0,0,1,.89,1,3.19,3.19,0,0,1,.29,1.41,3,3,0,0,1-1.24,2.57A5.08,5.08,0,0,1,828.17,927Z" transform="translate(414.94 117.88)"/><path class="cls-58" d="M835.4,926.72V916h8.13v2.19h-5.48v1.92h4.7v2.07h-4.7v2.29h5.57v2.25Zm3.21-11.25.64-2h2.81l-1.59,2Z" transform="translate(414.94 117.88)"/><path class="cls-58" d="M849.9,926.72,853.76,916h2.73l3.87,10.72h-2.79l-.63-1.93h-3.75l-.62,1.93Zm3.9-3.84h2.52l-.81-2.59-.42-1.52h0c-.17.64-.31,1.15-.43,1.52Z" transform="translate(414.94 117.88)"/><path class="cls-58" d="M862.86,926.72V916H868a4.24,4.24,0,0,1,2.7.82,2.71,2.71,0,0,1,1,2.27,2.52,2.52,0,0,1-1.86,2.59v.05a2.21,2.21,0,0,1,1.56,2,12.34,12.34,0,0,1,.13,1.3,10.41,10.41,0,0,0,.1,1.16c0,.25.11.4.22.44v.13h-2.58c-.08-.05-.14-.19-.18-.43a8,8,0,0,1-.12-1c0-.44-.06-.79-.1-1a1.61,1.61,0,0,0-1.79-1.53h-1.6v4Zm2.66-6h2a1.8,1.8,0,0,0,1.19-.35,1.19,1.19,0,0,0,.4-1,1.24,1.24,0,0,0-.39-1,1.58,1.58,0,0,0-1.14-.37h-2.05Z" transform="translate(414.94 117.88)"/><path class="cls-58" d="M874.7,926.72V916h2.65v10.72Z" transform="translate(414.94 117.88)"/><path class="cls-58" d="M879.83,926.72,883.68,916h2.73l3.87,10.72h-2.79l-.63-1.93h-3.75l-.61,1.93Zm3.9-3.84h2.52l-.81-2.59-.42-1.52h0c-.17.64-.32,1.15-.44,1.52Z" transform="translate(414.94 117.88)"/><path class="cls-58" d="M896.84,927a5.7,5.7,0,0,1-3.46-.94,3.22,3.22,0,0,1-1.33-2.69h2.67q.16,1.53,2.1,1.53a2.42,2.42,0,0,0,1.22-.28.9.9,0,0,0,.51-.85.82.82,0,0,0-.32-.65,2,2,0,0,0-.64-.37c-.21-.07-.62-.18-1.22-.33l-.06,0h-.1l-1.14-.29a8.41,8.41,0,0,1-1-.39,3.34,3.34,0,0,1-.89-.58,2.76,2.76,0,0,1-.57-.83,2.94,2.94,0,0,1-.23-1.17,2.8,2.8,0,0,1,1.18-2.47,5.24,5.24,0,0,1,3.08-.83,5,5,0,0,1,3,.84,3,3,0,0,1,1.24,2.46h-2.59a1.35,1.35,0,0,0-.53-1,2,2,0,0,0-1.2-.34,2.09,2.09,0,0,0-1.12.28.85.85,0,0,0-.42.73.77.77,0,0,0,.51.74,10.81,10.81,0,0,0,1.92.55c.59.14,1.07.28,1.45.41a6,6,0,0,1,1.16.58,2.3,2.3,0,0,1,.89,1,3.19,3.19,0,0,1,.29,1.41,3,3,0,0,1-1.23,2.57A5.13,5.13,0,0,1,896.84,927Z" transform="translate(414.94 117.88)"/><path class="cls-59" d="M741.08,934.09v9.29h-.41v-9.29Z" transform="translate(414.94 117.88)"/><path class="cls-59" d="M751.07,934.09v9.29h-.43l-6.06-8.62h0v8.62h-.39v-9.29h.46l6,8.62h0v-8.62Z" transform="translate(414.94 117.88)"/><path class="cls-59" d="M757.29,943.38h-.42v-8.92h-3.32v-.37h7.05v.37h-3.31Z" transform="translate(414.94 117.88)"/><path class="cls-59" d="M763.49,934.45v3.94h5.25v.36h-5.25V943h5.83v.38h-6.24v-9.29h6.11v.36Z" transform="translate(414.94 117.88)"/><path class="cls-59" d="M772.43,939.05v4.33H772v-9.29h3.72a2.91,2.91,0,0,1,2,.64,2.32,2.32,0,0,1,.71,1.83,2.09,2.09,0,0,1-1.74,2.28v0a1.74,1.74,0,0,1,1.14.75,3.3,3.3,0,0,1,.4,1.61c0,1.24.16,1.95.37,2.12v0h-.44c-.2-.14-.32-.86-.35-2.16a2.52,2.52,0,0,0-.52-1.66,2.1,2.1,0,0,0-1.58-.51Zm0-4.6v4.22h3.17q2.46,0,2.46-2.1a2,2,0,0,0-.61-1.57,2.47,2.47,0,0,0-1.74-.55Z" transform="translate(414.94 117.88)"/><path class="cls-59" d="M787.74,943.38l-1.22-3.17h-4.34L781,943.38h-.43l3.59-9.29h.46l3.59,9.29Zm-3.39-8.8-2,5.28h4.07l-2-5.28Z" transform="translate(414.94 117.88)"/><path class="cls-59" d="M797.36,936.7H797a2.79,2.79,0,0,0-1-1.71,3.19,3.19,0,0,0-2.12-.68,3.35,3.35,0,0,0-2.78,1.24,5.57,5.57,0,0,0,0,6.38,3.36,3.36,0,0,0,2.75,1.22,3.13,3.13,0,0,0,2.31-.88,3.63,3.63,0,0,0,1-2.22h.38a3.89,3.89,0,0,1-1,2.36,3.53,3.53,0,0,1-2.73,1.11,3.8,3.8,0,0,1-3-1.31,5.86,5.86,0,0,1,0-6.93,3.83,3.83,0,0,1,3.07-1.34,3.62,3.62,0,0,1,2.38.77A3.19,3.19,0,0,1,797.36,936.7Z" transform="translate(414.94 117.88)"/><path class="cls-59" d="M802.89,943.38h-.42v-8.92h-3.31v-.37h7v.37h-3.31Z" transform="translate(414.94 117.88)"/><path class="cls-59" d="M809.13,934.09v9.29h-.41v-9.29Z" transform="translate(414.94 117.88)"/><path class="cls-59" d="M811.94,934.09l3.27,8.72h0l3.32-8.72H819l-3.51,9.29H815l-3.49-9.29Z" transform="translate(414.94 117.88)"/><path class="cls-59" d="M821.7,934.45v3.94H827v.36H821.7V943h5.84v.38h-6.25v-9.29h6.12v.36Z" transform="translate(414.94 117.88)"/><path class="cls-59" d="M833.75,943.38v-9.29h3.33a3.49,3.49,0,0,1,3.45,2.32,6.93,6.93,0,0,1,.38,2.37,5.28,5.28,0,0,1-1,3.33,3.5,3.5,0,0,1-2.93,1.27Zm.4-.36H837a3.17,3.17,0,0,0,2.6-1.13,4.78,4.78,0,0,0,.91-3.11,5.1,5.1,0,0,0-.88-3.17,3,3,0,0,0-2.54-1.15h-2.91Z" transform="translate(414.94 117.88)"/><path class="cls-59" d="M844,934.45v3.94h5.25v.36H844V943h5.84v.38h-6.24v-9.29h6.11v.36Z" transform="translate(414.94 117.88)"/><path class="cls-59" d="M851.87,940.43h.43a2.69,2.69,0,0,0,.9,2,3.49,3.49,0,0,0,2.34.73,3.16,3.16,0,0,0,2-.6,1.94,1.94,0,0,0,.76-1.61,1.68,1.68,0,0,0-.69-1.51,6.78,6.78,0,0,0-2.41-.78,5.67,5.67,0,0,1-2.25-.81,1.83,1.83,0,0,1-.72-1.58,2,2,0,0,1,.82-1.69,3.51,3.51,0,0,1,2.18-.63,3.23,3.23,0,0,1,2.2.71,2.83,2.83,0,0,1,1,1.91H858a2.4,2.4,0,0,0-.86-1.65,2.89,2.89,0,0,0-1.89-.59,3.08,3.08,0,0,0-1.9.53,1.64,1.64,0,0,0-.7,1.39,1.52,1.52,0,0,0,.64,1.33,5.7,5.7,0,0,0,2.12.72,13.17,13.17,0,0,1,1.38.32,4.69,4.69,0,0,1,1,.46,1.83,1.83,0,0,1,.69.75,2.44,2.44,0,0,1,.22,1.09,2.35,2.35,0,0,1-.85,1.89,3.53,3.53,0,0,1-2.33.72,3.8,3.8,0,0,1-2.66-.85A3.17,3.17,0,0,1,851.87,940.43Z" transform="translate(414.94 117.88)"/><path class="cls-59" d="M861.85,934.09v9.29h-.4v-9.29Z" transform="translate(414.94 117.88)"/><path class="cls-59" d="M872.28,939.14H869v-.36h3.64v4.6h-.34l0-2.2h0a3,3,0,0,1-1.14,1.65,3.49,3.49,0,0,1-2.23.69,4,4,0,0,1-3.18-1.33,5.76,5.76,0,0,1,0-6.88,3.91,3.91,0,0,1,3.17-1.37,3.8,3.8,0,0,1,2.42.75,3.33,3.33,0,0,1,1.2,2h-.4a2.88,2.88,0,0,0-1.08-1.78,3.88,3.88,0,0,0-5,.62,4.91,4.91,0,0,0-1,3.17,4.82,4.82,0,0,0,1,3.16,3.48,3.48,0,0,0,2.88,1.24,3.19,3.19,0,0,0,2.47-1,3.64,3.64,0,0,0,.9-2.55Z" transform="translate(414.94 117.88)"/><path class="cls-59" d="M882.52,934.09v9.29h-.43L876,934.76h0v8.62h-.39v-9.29h.46l6,8.62h0v-8.62Z" transform="translate(414.94 117.88)"/><path class="cls-59" d="M886,934.45v3.94h5.26v.36H886V943h5.84v.38h-6.24v-9.29h6.11v.36Z" transform="translate(414.94 117.88)"/><path class="cls-59" d="M894.94,939.05v4.33h-.41v-9.29h3.72a2.92,2.92,0,0,1,2,.64,2.36,2.36,0,0,1,.71,1.83,2.09,2.09,0,0,1-1.74,2.28v0a1.74,1.74,0,0,1,1.14.75,3.2,3.2,0,0,1,.39,1.61c0,1.24.16,1.95.38,2.12v0h-.44c-.2-.14-.32-.86-.35-2.16a2.52,2.52,0,0,0-.52-1.66,2.11,2.11,0,0,0-1.59-.51Zm0-4.6v4.22h3.17q2.46,0,2.46-2.1A2,2,0,0,0,900,935a2.48,2.48,0,0,0-1.75-.55Z" transform="translate(414.94 117.88)"/><rect class="cls-58" x="1085.56" y="1001.8" width="58.83" height="64.16"/><g id="Marca-3" data-name="Marca"><polygon class="cls-63" points="1133.82 1048.96 1132.71 1048.96 1132.71 1010.68 1117.83 1033.84 1116.9 1033.25 1133.82 1006.92 1133.82 1048.96"/><path class="cls-63" d="M694.79,943a11.4,11.4,0,0,1-8.38-3.63l.8-.75a10.39,10.39,0,0,0,17.91-6c.28-2.65-.56-4.79-1.92-7.18l-2.27-3.54c-4.37-6.92-7.73-12.12-11.28-17.62-2.28-3.53-4.63-7.16-7.36-11.44v38.27h-1.11V889l1,1.6c3.18,5,5.82,9.07,8.37,13,3.56,5.51,6.92,10.71,11.29,17.62l2.29,3.57a12.68,12.68,0,0,1,2.06,7.87A11.51,11.51,0,0,1,696,942.9C695.61,942.94,695.19,943,694.79,943Z" transform="translate(414.94 117.88)"/></g><text class="cls-51" transform="translate(1154.73 962.49)">MARÍA JOSÉ ARI<tspan class="cls-52" x="140.05" y="0">A</tspan><tspan x="152.04" y="0">S</tspan></text><text class="cls-64" transform="translate(1154.73 979.14)">INTER<tspan class="cls-65" x="40.64" y="0">A</tspan><tspan class="cls-66" x="49.35" y="0">C</tspan><tspan x="59.11" y="0">TIVE D</tspan><tspan class="cls-67" x="102.98" y="0">E</tspan><tspan x="111.8" y="0">SIGNER</tspan></text><rect class="cls-58" x="1085.56" y="919.68" width="58.83" height="64.16"/><g id="Marca-4" data-name="Marca"><polygon class="cls-63" points="1133.82 966.85 1132.71 966.85 1132.71 928.56 1117.83 951.73 1116.9 951.13 1133.82 924.81 1133.82 966.85"/><path class="cls-63" d="M694.79,860.84a11.4,11.4,0,0,1-8.38-3.63l.8-.75a10.39,10.39,0,0,0,17.91-6c.28-2.66-.56-4.8-1.92-7.19l-2.27-3.54c-4.37-6.92-7.73-12.11-11.28-17.62-2.28-3.53-4.63-7.16-7.36-11.44V849h-1.11V806.91l1,1.6c3.18,5,5.82,9.07,8.37,13,3.56,5.51,6.92,10.71,11.29,17.62l2.29,3.57a12.68,12.68,0,0,1,2.06,7.87A11.51,11.51,0,0,1,696,860.78C695.61,860.82,695.19,860.84,694.79,860.84Z" transform="translate(414.94 117.88)"/></g><rect class="cls-68" x="1655.7" y="588.46" width="113.39" height="113.39"/><g id="Marca-5" data-name="Marca"><polygon class="cls-63" points="1747.82 673.83 1744.27 673.83 1744.27 605.98 1718.29 646.42 1715.3 644.5 1747.82 593.89 1747.82 673.83"/><path class="cls-63" d="M1287.81,578.57a21.79,21.79,0,0,1-16-6.92l2.59-2.43a18.35,18.35,0,0,0,31.63-10.57c.5-4.69-1-8.49-3.43-12.77l-4.17-6.48c-8-12.75-14.24-22.33-20.79-32.48-3.79-5.86-7.68-11.88-12.11-18.79V556H1262V476l3.27,5.13c5.84,9.13,10.69,16.64,15.37,23.9,6.56,10.15,12.76,19.74,20.81,32.49l4.21,6.56c2.44,4.3,4.56,9,3.92,15a22,22,0,0,1-19.44,19.42A23.22,23.22,0,0,1,1287.81,578.57Z" transform="translate(414.94 117.88)"/></g><rect class="cls-68" x="1085.56" y="1093.18" width="58.83" height="58.83"/><g id="Marca-6" data-name="Marca"><polygon class="cls-69" points="1133.35 1137.47 1131.51 1137.47 1131.51 1102.27 1118.03 1123.25 1116.48 1122.25 1133.35 1096 1133.35 1137.47"/><path class="cls-69" d="M695,1031.32a11.27,11.27,0,0,1-8.29-3.59l1.34-1.26a9.52,9.52,0,0,0,16.41-5.48c.27-2.43-.52-4.4-1.78-6.62l-2.16-3.37c-4.17-6.61-7.38-11.58-10.78-16.84-2-3-4-6.17-6.28-9.76v35.19h-1.85V978.1l1.7,2.66c3,4.74,5.54,8.63,8,12.4,3.41,5.26,6.62,10.24,10.8,16.85l2.18,3.41a12.49,12.49,0,0,1,2,7.77,11.41,11.41,0,0,1-10.09,10.07C695.83,1031.3,695.43,1031.32,695,1031.32Z" transform="translate(414.94 117.88)"/></g></svg>