<svg width="79" height="80" viewBox="0 0 79 80" fill="none" xmlns="http://www.w3.org/2000/svg">
<circle cx="39.3684" cy="40.1052" r="39.3684" fill="#E37500"/>
<path d="M24.3689 38.1431H28.5228C28.8607 38.1431 29.1346 37.8693 29.1346 37.5314C29.1346 37.1935 28.8607 36.9197 28.5228 36.9197H24.3689C24.0311 36.9197 23.7572 37.1935 23.7572 37.5314C23.7572 37.8693 24.0311 38.1431 24.3689 38.1431Z" fill="white"/>
<path d="M59.6338 36.5599C59.9716 36.5599 60.2455 36.2861 60.2455 35.9482V22.2866C60.2455 20.6001 58.8735 19.228 57.187 19.228H51.6867C51.3489 19.228 51.075 19.5018 51.075 19.8397C51.075 20.1776 51.3489 20.4515 51.6867 20.4515H57.187C58.1989 20.4515 59.0221 21.2747 59.0221 22.2866V23.8922H45.6512V22.2866C45.6512 21.2747 46.4744 20.4515 47.4864 20.4515H48.8321C49.1699 20.4515 49.4438 20.1776 49.4438 19.8397C49.4438 19.5018 49.1699 19.228 48.8321 19.228H47.4864C45.7998 19.228 44.4278 20.6001 44.4278 22.2866V31.5438H43.4083C40.8223 31.5438 38.7185 33.6476 38.7185 36.2336V43.7373C38.7185 45.6487 37.1635 47.2036 35.2521 47.2036H34.4721V37.7833C34.4721 36.0968 33.1 34.7247 31.4135 34.7247H21.5498C19.8632 34.7247 18.4912 36.0968 18.4912 37.7833V57.929C18.4912 59.6155 19.8632 60.9876 21.5498 60.9876H21.9984C22.3362 60.9876 22.6101 60.7137 22.6101 60.3758C22.6101 60.0379 22.3362 59.7641 21.9984 59.7641H21.5498C20.5378 59.7641 19.7146 58.9408 19.7146 57.929V56.9227H33.2486V57.929C33.2486 58.9408 32.4254 59.7641 31.4135 59.7641H24.853C24.5152 59.7641 24.2413 60.0379 24.2413 60.3758C24.2413 60.7137 24.5152 60.9876 24.853 60.9876H31.4135C33.1 60.9876 34.4721 59.6155 34.4721 57.929V48.4271H35.2521C37.8381 48.4271 39.9419 46.3233 39.9419 43.7373V36.2336C39.9419 34.3222 41.4969 32.7672 43.4083 32.7672H44.4278V42.5954C44.4278 44.2819 45.7998 45.654 47.4864 45.654H57.187C58.8736 45.654 60.2456 44.2819 60.2456 42.5954V38.8028C60.2456 38.4649 59.9717 38.1911 59.6339 38.1911C59.2961 38.1911 59.0222 38.4649 59.0222 38.8028V40.3393H45.6512V32.7672H50.8216L49.7046 33.8843C49.4657 34.1233 49.4657 34.5105 49.7046 34.7494C49.824 34.8688 49.9806 34.9285 50.1371 34.9285C50.2936 34.9285 50.4502 34.8688 50.5696 34.7494L52.731 32.5881C52.9674 32.36 52.9674 31.9509 52.731 31.7229L50.5696 29.5616C50.3307 29.3227 49.9434 29.3227 49.7046 29.5616C49.4657 29.8005 49.4657 30.1878 49.7046 30.4267L50.8216 31.5438H45.6512V25.1156H59.0222V35.9482C59.0221 36.2861 59.296 36.5599 59.6338 36.5599ZM21.5498 35.9482H31.4135C32.4254 35.9482 33.2486 36.7714 33.2486 37.7833V39.3586H19.7146V37.7833C19.7146 36.7714 20.5378 35.9482 21.5498 35.9482ZM33.2486 55.6993H19.7146V40.582H33.2486V47.2036H30.0387C29.87 46.3179 29.0903 45.6461 28.1563 45.6461H27.9524C27.6145 45.6461 27.3406 45.9199 27.3406 46.2578C27.3406 46.5957 27.6145 46.8695 27.9524 46.8695H28.1563C28.5385 46.8695 28.8495 47.1805 28.8495 47.5628V48.0679C28.8495 48.4502 28.5385 48.7611 28.1563 48.7611H24.7307C24.3484 48.7611 24.0374 48.4502 24.0374 48.0679V47.5628C24.0374 47.1805 24.3484 46.8695 24.7307 46.8695H25.1237C25.4615 46.8695 25.7354 46.5957 25.7354 46.2578C25.7354 45.9199 25.4615 45.6461 25.1237 45.6461H24.7307C23.6738 45.6461 22.814 46.5059 22.814 47.5628V48.0679C22.814 49.1247 23.6738 49.9846 24.7307 49.9846H28.1563C29.0904 49.9846 29.87 49.3127 30.0387 48.427H33.2486V55.6993ZM59.0221 41.5627V42.5954C59.0221 43.6073 58.1989 44.4306 57.187 44.4306H47.4864C46.4744 44.4306 45.6512 43.6073 45.6512 42.5954V41.5627H59.0221Z" fill="white"/>
<path d="M50.2473 22.6608H54.3553C54.6932 22.6608 54.9671 22.387 54.9671 22.0491C54.9671 21.7112 54.6932 21.4374 54.3553 21.4374H50.2473C49.9095 21.4374 49.6356 21.7112 49.6356 22.0491C49.6356 22.387 49.9095 22.6608 50.2473 22.6608Z" fill="white"/>
</svg>
