<svg width="200" height="200" viewBox="0 0 200 200" fill="none" xmlns="http://www.w3.org/2000/svg">
<path fill-rule="evenodd" clip-rule="evenodd" d="M0 100C0 44.7715 44.7715 0 100 0C155.228 0 200 44.7715 200 100C200 155.228 155.228 200 100 200C44.7715 200 0 155.228 0 100ZM56.3219 154.672L99.6459 166.667L143.089 154.655L152.754 46.6673H46.6673L56.3219 154.672ZM81.4766 81.7882L82.6697 95.736H131.895L128.077 137.595L100.474 145L72.6476 137.564L70.9542 116.165H84.3477L85.3099 126.988L100.474 131.144L115.407 127.018L117.077 109.437H70.246L66.6667 68.333L134.281 68.3484L133.096 81.8036L81.4766 81.7882Z" fill="white"/>
</svg>
