<svg width="186" height="186" viewBox="0 0 186 186" fill="none" xmlns="http://www.w3.org/2000/svg">
<path fill-rule="evenodd" clip-rule="evenodd" d="M92.9023 0.8125C41.9347 0.8125 0.617188 42.13 0.617188 93.0977C0.617188 144.065 41.9347 185.383 92.9023 185.383C143.87 185.383 185.188 144.065 185.188 93.0977C185.188 42.13 143.87 0.8125 92.9023 0.8125ZM99.4852 123.367C101.548 125.372 105.043 126.432 109.97 126.547L111.087 119.844C109.826 119.672 108.766 119.471 107.907 119.242C107.048 118.956 106.36 118.555 105.845 118.039C105.329 117.523 104.957 116.836 104.727 115.977C104.498 115.117 104.384 114.029 104.384 112.711V59L96.3914 60.375V114C96.3914 118.24 97.4227 121.362 99.4852 123.367ZM82.336 66.1328H74V125.687H82.336V66.1328Z" fill="white"/>
</svg>
