<svg width="199" height="199" viewBox="0 0 199 199" fill="none" xmlns="http://www.w3.org/2000/svg">
<path fill-rule="evenodd" clip-rule="evenodd" d="M99.1071 0C44.3718 0 0 44.3718 0 99.1071C0 153.842 44.3718 198.214 99.1071 198.214C153.842 198.214 198.214 153.842 198.214 99.1071C198.214 44.3718 153.842 0 99.1071 0ZM96.5566 67.6966C91.7609 64.2322 84.8747 62.5 75.8981 62.5C73.3158 62.5 70.4568 62.6237 67.3211 62.8712C64.2469 63.0568 61.4494 63.4589 58.9286 64.0776V127.458H67.8745V103.609H74.9758C79.4641 103.609 83.4913 103.238 87.0574 102.495C90.6234 101.753 93.6361 100.578 96.0955 98.9692C98.6163 97.2989 100.522 95.1645 101.813 92.5662C103.166 89.906 103.842 86.72 103.842 83.0081C103.842 76.203 101.414 71.0992 96.5566 67.6966ZM67.8745 70.6661C69.9034 70.4805 72.8239 70.3877 76.6359 70.3877C79.0338 70.3877 81.3087 70.5733 83.4606 70.9445C85.6125 71.3157 87.4878 71.9962 89.0863 72.9861C90.7464 73.914 92.0376 75.1823 92.9598 76.7907C93.9436 78.3992 94.4354 80.4407 94.4354 82.9153C94.4354 85.5136 93.9743 87.648 93.052 89.3183C92.1298 90.9887 90.8079 92.3188 89.0863 93.3086C87.4263 94.2366 85.3666 94.9171 82.9072 95.3501C80.4479 95.7213 77.6811 95.9069 74.6069 95.9069H67.8745V70.6661ZM133.391 119.849C131.731 120.776 129.149 121.24 125.644 121.24C122.078 121.24 119.219 120.869 117.067 120.127C114.915 119.385 113.348 118.828 112.364 118.457L110.796 125.88C111.657 126.252 113.286 126.777 115.684 127.458C118.082 128.2 121.402 128.571 125.644 128.571C131.731 128.571 136.404 127.427 139.663 125.138C142.983 122.849 144.643 119.477 144.643 115.023C144.643 112.734 144.305 110.816 143.628 109.27C142.952 107.661 141.968 106.3 140.677 105.187C139.447 104.073 137.941 103.114 136.158 102.31C134.375 101.444 132.346 100.578 130.071 99.7116C128.35 99.0929 126.874 98.5052 125.644 97.9484C124.415 97.3917 123.369 96.8039 122.509 96.1853C121.709 95.5048 121.095 94.7624 120.664 93.9582C120.295 93.1539 120.111 92.226 120.111 91.1743C120.111 89.1327 121.002 87.648 122.785 86.72C124.568 85.7302 126.659 85.2353 129.057 85.2353C131.824 85.2353 134.191 85.5136 136.158 86.0704C138.126 86.5653 139.57 87.0603 140.493 87.5552L142.061 80.1314C141.569 79.9458 140.862 79.7293 139.939 79.4818C139.079 79.2344 138.064 79.0179 136.896 78.8323C135.728 78.5848 134.467 78.3992 133.115 78.2755C131.762 78.0899 130.409 77.9971 129.057 77.9971C123.646 77.9971 119.373 79.2653 116.237 81.8018C113.102 84.2764 111.534 87.648 111.534 91.9166C111.534 94.0819 111.903 95.9069 112.641 97.3917C113.378 98.8764 114.362 100.145 115.592 101.196C116.821 102.248 118.266 103.176 119.926 103.98C121.648 104.723 123.431 105.465 125.275 106.207C129.087 107.754 131.824 109.146 133.484 110.383C135.144 111.621 135.974 113.291 135.974 115.394C135.974 117.436 135.113 118.921 133.391 119.849Z" fill="white"/>
</svg>
